<svg version="1.1" viewBox="0 0 1277 648" xml:space="preserve" xmlns="http://www.w3.org/2000/svg" xmlns:xlink="http://www.w3.org/1999/xlink"><defs><linearGradient id="SVGID_12_" x1="662.1" x2="415.4" y1="1445" y2="1451" gradientUnits="userSpaceOnUse"><stop stop-color="#B59FA8" offset="0"/><stop stop-color="#CDB9B9" offset="1"/></linearGradient><linearGradient id="SVGID_11_" x1="528.5" x2="528.5" y1="1388" y2="1388" gradientTransform="matrix(.1441 0 0 .1635 -32.23 32.13)" gradientUnits="userSpaceOnUse"><stop stop-color="#86A1F9" offset="0"/><stop stop-color="#B7C6FB" offset=".6576"/></linearGradient><linearGradient id="linearGradient1553" x1="28.4" x2="42.46" y1="284.3" y2="252.9" gradientTransform="matrix(1.139 0 0 1.073 -1.418 -20.7)" gradientUnits="userSpaceOnUse"><stop stop-color="#414578" offset="0"/><stop stop-color="#34ccd3" offset="1"/></linearGradient><path id="SVGID_1_" d="m706 614.5s-5.5-1.8-13.6-2.3l-8.1-.5s-16.6 15.2-26.1 18.4-17.4 4.7-18.3 10.3-1.2 7.6 0 8.8 67.2 0 68.5-1.8c1.4-1.9-2.4-32.9-2.4-32.9z"/><path id="SVGID_3_" d="m788.8 614.5s-5.5-1.8-13.6-2.3l-8.1-.5s-16.6 15.1-26.1 18.3-17.4 4.7-18.3 10.3-1.2 7.6 0 8.8 67.2 0 68.5-1.8c1.4-1.8-2.4-32.8-2.4-32.8z"/></defs>
<style type="text/css">.custom-controls {
height: 64px;
fill: #fff;
}
.control-icon {
opacity: 0;
animation: icon-fade-in-out 1s ease-in-out infinite;
animation-fill-mode: forwards;
}
.stop {
animation-delay: .2s;
}
.play {
animation-delay: .2s;
}
.gamepad {
animation-delay: .7s;
padding: 0 0 0 20px;
}
@keyframes icon-fade-in-out {
0% {
opacity: 0;
}
10% {
opacity: 1;
}
80% {
opacity: 1;
}
90% {
opacity: 0;
}
100% {
opacity: 0;
}
}</style>
<g transform="matrix(2.315 0 0 2.136 2.137 6.508)"><g fill="#8191a2"><g transform="translate(33.81 7.426)" stroke-width="5.611"><path d="m354-8.212a64.39 70.41 0 00-64.39 70.41 64.39 70.41 0 0064.39 70.41 64.39 70.41 0 0064.39-70.41 64.39 70.41 0 00-64.39-70.41zm0 52.81a16.1 17.6 0 0116.1 17.6 16.1 17.6 0 01-16.1 17.6 16.1 17.6 0 01-16.1-17.6 16.1 17.6 0 0116.1-17.6z" opacity=".739"/><path d="m342.6 49.76c.7087-.774 1.48-1.437 2.28-2.036l-12.67-51.71c-8.666 3.397-16.82 8.819-23.76 16.41-6.944 7.587-11.9 16.5-15 25.97l47.29 13.85c.5428-.8689 1.148-1.713 1.857-2.488z" opacity=".739"/><path d="m367.8 76.81 12.2 49.77c7.083-3.415 13.74-8.226 19.54-14.57 6.724-7.352 11.59-15.94 14.72-25.08l-43.94-12.87c-1.529-.4516-2.93 1.08-2.517 2.758z" opacity=".739"/></g><g transform="translate(16.42)" stroke-width="5.611"><path d="m258.8-2.555a64.39 70.41 0 00-64.39 70.41 64.39 70.41 0 0064.39 70.41 64.39 70.41 0 0064.39-70.41 64.39 70.41 0 00-64.39-70.41zm0 52.81a16.1 17.6 0 0116.1 17.6 16.1 17.6 0 01-16.1 17.6 16.1 17.6 0 01-16.1-17.6 16.1 17.6 0 0116.1-17.6z" opacity=".739"/><path d="m247.4 55.41c.7087-.774 1.48-1.437 2.28-2.036l-12.67-51.71c-8.666 3.397-16.82 8.819-23.76 16.41-6.944 7.587-11.9 16.5-15 25.97l47.29 13.85c.5428-.8689 1.148-1.713 1.857-2.488z" opacity=".739"/></g><g transform="translate(9.503)"><path d="m183.8 88.38 12.2 49.77c7.083-3.415 13.74-8.226 19.54-14.57 6.724-7.352 11.59-15.94 14.72-25.08l-43.94-12.87c-1.529-.4516-2.93 1.08-2.517 2.758z" opacity=".739" stroke-width="5.611"/><g stroke-width="3.964"><path d="m364.6 104.3a44.97 50.32 0 00-44.97 50.32 44.97 50.32 0 0044.97 50.32 44.97 50.32 0 0044.97-50.32 44.97 50.32 0 00-44.97-50.32zm0 37.74a11.24 12.58 0 0111.24 12.58 11.24 12.58 0 01-11.24 12.58 11.24 12.58 0 01-11.24-12.58 11.24 12.58 0 0111.24-12.58z" opacity=".739"/><path d="m356.6 145.7c.495-.5532 1.034-1.027 1.593-1.455l-8.848-36.96c-6.052 2.428-11.74 6.303-16.59 11.72-4.849 5.422-8.308 11.79-10.48 18.56l33.03 9.901c.3791-.621.8021-1.224 1.297-1.778z" opacity=".739"/><path d="m374.2 165 8.518 35.57c4.947-2.441 9.594-5.879 13.64-10.42 4.696-5.254 8.095-11.39 10.28-17.93l-30.68-9.2c-1.068-.3228-2.046.7719-1.758 1.971z" opacity=".739"/></g></g></g><g transform="matrix(1.44 0 0 1.58 -147.8 -109.3)"><g fill="#8191a2"><g stroke-width="3.77">
<path d="m298.2 130.6a46.12 44.38 0 00-46.12 44.38 46.12 44.38 0 0046.12 44.38 46.12 44.38 0 0046.12-44.38 46.12 44.38 0 00-46.12-44.38zm0 33.29a11.53 11.1 0 0111.53 11.1 11.53 11.1 0 01-11.53 11.1 11.53 11.1 0 01-11.53-11.1 11.53 11.1 0 0111.53-11.1z" opacity=".739"/><path d="m290.1 167.2c.5076-.4879 1.06-.9057 1.633-1.283l-9.073-32.59c-6.206 2.142-12.04 5.559-17.01 10.34-4.973 4.782-8.52 10.4-10.74 16.37l33.87 8.732c.3888-.5477.8225-1.08 1.33-1.568z" opacity=".739"/><path d="m308.1 184.2 8.735 31.37c5.073-2.153 9.838-5.185 13.99-9.187 4.815-4.634 8.301-10.05 10.54-15.81l-31.47-8.115c-1.095-.2847-2.098.6808-1.802 1.738z" opacity=".739"/></g><g stroke-width="2.587"><path d="m236.1 136.1a31.13 30.95 0 00-31.13 30.95 31.13 30.95 0 0031.13 30.95 31.13 30.95 0 0031.13-30.95 31.13 30.95 0 00-31.13-30.95zm0 23.21a7.783 7.737 0 017.783 7.738 7.783 7.737 0 01-7.783 7.737 7.783 7.737 0 01-7.782-7.737 7.783 7.737 0 017.782-7.738z" opacity=".739"/><path d="m230.6 161.5c.3426-.3402.7156-.6316 1.103-.895l-6.125-22.73c-4.19 1.493-8.13 3.876-11.48 7.211-3.357 3.335-5.751 7.252-7.253 11.42l22.86 6.089c.2624-.382.5552-.7531.8976-1.094z" opacity=".739"/><path d="m242.7 173.4 5.897 21.88c3.424-1.501 6.641-3.616 9.445-6.406 3.251-3.232 5.604-7.007 7.116-11.03l-21.24-5.659c-.739-.1985-1.416.4748-1.217 1.212z" opacity=".739"/></g></g><path d="m252.5 221.9c4.829-11.49 2.449-41.97 8.221-55.84" fill="none" stroke="#cecece" stroke-linecap="round" stroke-linejoin="round" stroke-width=".5963"/><path d="m302.4 149.9-4.355-.8456c-.4449-.0862-.8129-.3824-.9557-.781-.2197-.5979-.4668-1.18-.7415-1.745-.1867-.3878-.1428-.8564.1153-1.228l2.158-3.151c.8019-1.169.6206-2.715-.4229-3.679l-4.487-4.142c-1.005-.9264-2.504-1.04-3.641-.2801l-2.955 1.977c-.3845.2585-.8678.3016-1.258.1185-.6371-.3016-1.291-.571-1.961-.808-.4119-.1454-.7195-.5171-.7964-.9695l-.6975-3.9c-.2472-1.368-1.45-2.365-2.872-2.365h-6.305c-1.39 0-2.592.9695-2.862 2.305l-.8019 3.97c-.0878.4363-.39.7972-.7909.9426-.6865.2424-1.357.5171-2.01.8241-.3955.1831-.8788.14-1.258-.1185l-2.955-1.977c-1.137-.7595-2.636-.6464-3.641.2801l-4.487 4.142c-1.044.9642-1.219 2.51-.4229 3.679l2.158 3.151c.2526.3716.2966.8403.1153 1.223-.2746.5763-.5273 1.169-.7524 1.772-.1538.4094-.5328.711-.9886.7918l-3.806.6517c-1.401.2424-2.411 1.422-2.411 2.817v3.216h15.41c0-6.803 5.646-12.34 12.58-12.34s12.58 5.537 12.58 12.34h15.86v-3.065c0-1.357-.9886-2.537-2.351-2.806z" fill="#ddeefa" opacity=".284" stroke-width=".5439"/><g stroke-width=".09537"><rect x="229.6" y="194.2" width="24.26" height="52.13" rx="3.11" ry="2.108" fill="#2b2837" style="paint-order:fill markers stroke"/><path d="m232.7 205.8h18.19c.5199 0 .9384.4719.9384 1.058v39.5l-20.06-.0263v-39.47c0-.5862.4186-1.058.9384-1.058z" fill="#3a3b5c" style="paint-order:fill markers stroke"/><rect x="231.7" y="196.8" width="20.22" height="6.205" rx="1.892" ry="1.892" fill="#293746" style="paint-order:fill markers stroke"/></g><path d="m236.7 199.9a1.755 1.722 0 01-1.755 1.722 1.755 1.722 0 01-1.755-1.721 1.755 1.722 0 011.755-1.723 1.755 1.722 0 011.756 1.721" fill="none" stroke="#1e628e" stroke-linecap="round" stroke-linejoin="round" stroke-width=".3522" style="paint-order:fill markers stroke"/><path d="m233 207.5 17.11.0128 3e-5 3.547-17.14-3e-5z" fill="#293746"/><g fill="#394c61"><path d="m233.6 212.5 3.317-.0179.002 1.378-3.319-.0102z"/><path d="m237.9 212.5 3.317-.0179.002 1.378-3.319-.0102z"/><path d="m242.2 212.5 3.317-.0179.002 1.378-3.319-.0102z"/><path d="m246.5 212.5 3.317-.0179.002 1.378-3.319-.0102z"/></g><ellipse class="control-icon play" cx="248.6" cy="210.2" rx=".7047" ry=".671" fill="#ff5d5d" style="paint-order:fill markers stroke"/><rect x="233.6" y="208.1" width="16.09" height="1.187" rx=".6005" ry=".5934" fill="#535353" style="paint-order:fill markers stroke"/><path d="m234 210 1.934-.007.001.5146-1.936-.004z" fill="#536070"/><g transform="translate(4.799)" fill="#8191a2"><path transform="matrix(.6943 0 0 .633 109.2 69.18)" d="m145 3.358a64.39 70.41 0 00-64.39 70.41 64.39 70.41 0 0064.39 70.41 64.39 70.41 0 0064.39-70.41 64.39 70.41 0 00-64.39-70.41zm0 52.81a16.1 17.6 0 0116.1 17.6 16.1 17.6 0 01-16.1 17.6 16.1 17.6 0 01-16.1-17.6 16.1 17.6 0 0116.1-17.6z" opacity=".739" stroke-width="5.611"/><path transform="matrix(.6943 0 0 .633 109.2 69.18)" d="m133.6 61.33c.7087-.774 1.48-1.437 2.28-2.036l-12.67-51.71c-8.666 3.397-16.82 8.819-23.76 16.41-6.944 7.587-11.9 16.5-15 25.97l47.29 13.85c.5428-.8689 1.148-1.713 1.857-2.488z" opacity=".739" stroke-width="5.611"/><path d="m217.3 127 6.976 27.46c4.051-1.884 7.857-4.538 11.17-8.041 3.846-4.056 6.629-8.795 8.418-13.84l-25.13-7.102c-.8743-.2492-1.676.5959-1.439 1.521z" opacity=".739" stroke-width="3.152"/></g></g><path d="m422.4 281c0 1.548-46.41 2.796-103.6 2.796-57.24 0-103.6-1.248-103.6-2.796s46.41-2.796 103.6-2.796c57.25 0 103.6 1.264 103.6 2.796z" fill="#75b3d0" opacity=".4" stroke-width="1.508"/><g transform="matrix(1.44 0 0 1.58 -147.8 -109.3)">
<rect x="257.1" y="189.9" width=".93" height="56.2" fill="#567fa1"/>
<rect x="257.1" y="187.8" width="131.8" height="2.14" fill="#346084"/>
<rect x="257.1" y="189.9" width="131.8" height="5.86" fill="#567fa1"/>
<rect x="388" y="189.9" width=".93" height="57.25" fill="#567fa1"/>
</g><g transform="matrix(3.457 0 0 3.581 -772.1 -484.4)"><rect x="296.8" y="177.7" width="7.967" height="7.69" fill="#c6d5e1" stroke-width=".8859"/>
<path d="m322.2 180.1h-43.05c-.97 0-1.76-.832-1.76-1.854v-31.46c0-1.022.79-1.854 1.76-1.854h43.05c.97 0 1.76.832 1.76 1.854v31.46c0 1.022-.79 1.854-1.76 1.854z" fill="#f4f4f6" stroke-width="1.026"/><rect x="278.8" y="148.9" width="43.76" height="25.06" fill="#567fa1"/>
<polygon points="292.4 187.6 308.9 187.6 308.9 186 308.3 185.4 293 185.4 292.4 185.9" fill="#e5e4ea"/>
</g><g transform="matrix(1.44 0 0 1.58 -147.8 -109.3)"><path transform="translate(-54.04 12.9)" d="m259.8 149.7.8-.5.3-.8-2.7 1.3c-.561.4333-.9819.8667-1.2 1.3l-2.387 1.161 2.187 1.839c.3503-.2676.4453-.031 1.1-.9h1.7l.8-.2v-2.9h-.2z" fill="#ffc4bf"/>
<g transform="matrix(.1055 -.1658 .1852 .1213 210 152.7)" aria-label="WINDOWS"><path d="m1.93 33.18-.07689-18.46-20.87-.01194.07893 18.46zm-4.847-4.534-4.292-.01105-.01687-3.753 4.294.000775zm-4.329-9.487 4.286.0066.01687 3.753-4.29-.0095zm-13.77-9.278-67.72-.05613c-3.682-.00311-6.662 2.137-6.656 4.78l.09218 19.13c.01189 2.644 3.02 4.784 6.691 4.785l67.72.05906z" fill="#fff" stroke-width=".9503"/></g><path d="m205.5 162.1 1.751-.953c.0986-.01.2116.0127.2866.1079.076.1154.1761.3868.0273.49l-1.784 1.1z" fill="#ffc4bf"/><g transform="matrix(1.13 0 0 1.071 -39.78 4.984)"><g transform="matrix(1.097,0,0,1.116,-21.14,-17.45)" fill="#5258a8" stroke-linecap="round" stroke-linejoin="round"><path transform="matrix(.2999 0 0 .2964 126 67.25)" d="m307.2 285.1-2.092-1.39.7395-1.128 1.679.0925c.9235.0509 1.679.054 1.679.007 0-.0471-.5408-.4452-1.202-.8847-1.098-.7304-1.183-.8284-.9884-1.141.1173-.1879.2742-.3416.3487-.3416s1.06.6197 2.191 1.377l2.055 1.377-.2869.4379c-.2808.4286-.318.4356-1.76.3324-.8103-.058-1.724-.1446-2.031-.1924-.3068-.0478-.5577-.0252-.5577.0502s.65.5527 1.444 1.061c1.361.87 1.434.947 1.26 1.329-.1017.2232-.2305.4055-.2861.4051-.0556-.00045-1.042-.6265-2.193-1.391z" style="paint-order:fill markers stroke"/><path transform="matrix(.2999 0 0 .2964 126 67.25)" d="m307 289.6c-.2508-.1834-.2743-.2953-.1217-.5804.1715-.3205.0641-.4343-1.161-1.231-1.465-.9516-1.639-1.01-1.858-.6183-.1236.2208-.1922.2246-.464.0258-.3043-.2225-.2889-.282.3325-1.289.6916-1.12.7175-1.141 1.118-.8865.2071.1318.2175.2281.0532.4933-.1844.2976-.062.4242 1.26 1.304 1.298.864 1.487.9427 1.667.696.2022-.2766.795-.2057.795.0951 0 .0805-.2947.6124-.6548 1.182-.5907.9342-.6853 1.013-.9656.8085z" style="paint-order:fill markers stroke"/><path transform="matrix(.2999 0 0 .2964 126 67.25)" d="m310.1 280.5-2.085-1.408.6901-1.045c.3796-.5748.9048-1.172 1.167-1.327 1.085-.6409 2.533-.1739 3.396 1.095.55.8092.4436 1.817-.3302 3.124-.32.5408-.6205.98-.6677.9759-.0472-.004-1.024-.6411-2.17-1.416zm2.408-.5267c.3949-.8322.3504-1.093-.2964-1.74-.9738-.9738-1.979-.9671-2.624.0175-.2544.3882-.262.4764-.052.5996.1354.0794.7482.4914 1.362.9156.6135.4241 1.165.7756 1.225.7811.06.005.2338-.2526.3861-.5737z" style="paint-order:fill markers stroke"/></g><g transform="matrix(1.097,0,0,1.116,-21.14,-17.45)"><g fill="#5258a8" stroke-linecap="round" stroke-linejoin="round"><path transform="matrix(.2999 0 0 .2964 126 67.25)" d="m313.4 276.5c-.8165-.4291-1.62-1.281-1.791-1.899-.3801-1.376.7855-2.965 2.176-2.965.7169 0 2.271 1.007 2.645 1.713.4126.78.3998 1.438-.0431 2.226-.6411 1.141-1.859 1.518-2.987.9249zm2.196-1.292c.3048-.41.3178-.5208.1184-1.002-.4753-1.147-2.461-1.878-3.021-1.112-.3606.4931-.2862 1.032.2261 1.641.898 1.067 2.08 1.276 2.677.4733z" style="paint-order:fill markers stroke"/><path transform="matrix(.2999 0 0 .2964 126 67.25)" d="m318 271.8c-.1888-.073-1.249-.462-2.355-.8643l-2.012-.7315.5034-.9734 1.66.6755c.9131.3715 1.688.6473 1.723.6128.0345-.0345-.4914-.656-1.169-1.381-1.167-1.25-1.22-1.34-1.006-1.739.1239-.2315.3205-.4208.437-.4208s.8948.2641 1.73.5868c.8348.3227 1.552.5522 1.595.5098.0423-.0423-.4927-.6505-1.189-1.351-1.232-1.241-1.26-1.287-1.044-1.754l.2218-.4796 1.781 1.888c.9795 1.038 1.782 1.976 1.783 2.083.00097.1075-.1339.363-.2996.5677l-.3014.3722-1.518-.5358c-.835-.2947-1.554-.4996-1.599-.4552-.0443.0443.4315.6234 1.057 1.287l1.138 1.206-.272.526c-.2896.5601-.3308.5778-.8638.3715z" style="paint-order:fill markers stroke"/><path transform="matrix(.2999 0 0 .2964 126 67.25)" d="m321.2 266.3c-.3427-.2771-.3772-.3672-.1716-.4476.1416-.0554.5138-.3562.827-.6685.4234-.422.5556-.69.5148-1.044-.0812-.7047-.5123-.6702-1.418.1133-.9127.79-1.522.8866-2.205.3498-.2414-.1899-.4888-.5722-.5498-.8496-.1362-.6199.3596-1.802 1.004-2.395.407-.3744.4942-.3927.8814-.1855.5461.2923.5384.3662-.0741.7147-.5759.3276-1.087 1.197-.9353 1.591.117.3048.675.3612.8455.0853.2599-.4206 1.538-1.19 1.977-1.19.617 0 1.362.8615 1.362 1.575 0 .6956-.4093 1.517-1.079 2.165l-.5511.5331z" style="paint-order:fill markers stroke"/><path transform="matrix(.2999 0 0 .2964 126 67.25)" d="m301.4 294.1c-1.197-.4424-2.002-.876-2.002-1.078 0-.6105.6354-.6008 2.065.0315.774.3423 1.466.5636 1.538.4919.0718-.0718-.43-.7012-1.115-1.399-1.103-1.123-1.209-1.318-.9237-1.701.3063-.412.4014-.4032 1.956.182.8988.3383 1.699.6151 1.779.6151.0797 0-.4436-.5959-1.163-1.324-1.115-1.129-1.274-1.4-1.077-1.841.2138-.479.3612-.3728 1.996 1.438 1.54 1.706 1.732 2.018 1.501 2.448-.1452.2712-.3017.4931-.3478.4931-.0462 0-.8068-.2721-1.69-.6046-.8835-.3326-1.606-.5196-1.606-.4156s.5377.7186 1.195 1.366c1.03 1.015 1.156 1.239.9124 1.629-.3648.5842-.6173.5565-3.017-.3304z" style="paint-order:fill markers stroke"/></g></g></g></g><g transform="matrix(1.782 0 0 1.941 -289.5 -198.8)">
<path d="m447.6 247.4c0 .4524-7.332.8214-16.39.8214-9.053 0-16.39-.369-16.39-.8214s7.332-.8214 16.39-.8214c9.053 0 16.39.369 16.39.8214z" fill="#75b3d0" opacity=".4" stroke-width="1.188"/>
<linearGradient id="SVGID_13_" x1="430.4" x2="436.5" y1="248.6" y2="231.9" gradientUnits="userSpaceOnUse">
<stop stop-color="#414578" offset="0"/>
<stop stop-color="#41487A" offset=".2399"/>
<stop stop-color="#405180" offset=".4087"/>
<stop stop-color="#3E618B" offset=".5557"/>
<stop stop-color="#3C7799" offset=".6902"/>
<stop stop-color="#3993AD" offset=".8162"/>
<stop stop-color="#36B5C4" offset=".9342"/>
<stop stop-color="#34CCD3" offset="1"/>
</linearGradient>
<polygon transform="matrix(1.186 0 0 1.19 -83.69 -46.99)" points="440.6 247.6 427.4 247.6 426 233.9 442 233.9" fill="url(#SVGID_13_)"/><g transform="matrix(1.186 0 0 1.19 -83.69 -46.99)" fill="#bf544c">
<path d="m433.1 226.6s-1.32-1.67-3.11-.36c-1.8 1.32 3.11.36 3.11.36z"/>
<path d="m432.9 226.1s-.54-2.06 1.6-2.69c2.13-.64-1.6 2.69-1.6 2.69z"/>
<path d="m432 224.1s-1.19-1.51-2.81-.32 2.81.32 2.81.32z"/>
<path d="m431.7 223.6s-.48-1.86 1.44-2.44c1.93-.57-1.44 2.44-1.44 2.44z"/>
<path d="m430.9 222.1s-1.16-1.15-2.4.02 2.4-.02 2.4-.02z"/>
<path d="m430.7 221.8s-.6-1.52.96-2.2c1.57-.69-.96 2.2-.96 2.2z"/>
<path d="m429.3 220.2s-1.04-1.03-2.16.02c-1.11 1.05 2.16-.02 2.16-.02z"/>
<path d="m429 219.9s-.54-1.36.87-1.98c1.4-.62-.87 1.98-.87 1.98z"/>
<path d="m427.2 218.3s-1.26-.75-2.09.53c-.84 1.29 2.09-.53 2.09-.53z"/>
<path d="m426.9 218s-.85-1.2.37-2.13c1.21-.93-.37 2.13-.37 2.13z"/>
<path d="m425.4 217s-1.2-.59-1.86.64 1.86-.64 1.86-.64z"/>
<path d="m425.1 216.7s-.86-1.02.18-1.96-.18 1.96-.18 1.96z"/>
<path d="m423.2 215.8s-1.16-.39-1.62.81c-.45 1.2 1.62-.81 1.62-.81z"/>
<path d="m422.9 215.6s-.91-.83-.08-1.81c.84-.97.08 1.81.08 1.81z"/>
<path d="m421.3 215.1s-.96-.25-1.26.75c-.29.99 1.26-.75 1.26-.75z"/>
<path d="m421.1 215s-.78-.61-.17-1.45.17 1.45.17 1.45z"/>
<path d="m419.5 214.7s-.98-.15-1.17.88c-.19 1.02 1.17-.88 1.17-.88z"/>
<path d="m419.2 214.6s-.84-.53-.32-1.43.32 1.43.32 1.43z"/>
<path d="m417.9 214.5s-.99-.02-1.05 1.02c-.05 1.04 1.05-1.02 1.05-1.02z"/>
<path d="m417.6 214.4s-.9-.41-.5-1.37.5 1.37.5 1.37z"/>
<path d="m416.2 214.3s-.86-.5-1.41.38c-.55.89 1.41-.38 1.41-.38z"/></g><path d="m431.2 229.4h-.2136c0-11.67-9.563-21.15-21.33-21.15v-.2143c11.88-.0119 21.55 9.583 21.55 21.37z" fill="#8f3f39" stroke-width="1.188"/>
<g transform="matrix(1.186 0 0 1.19 -83.69 -46.99)" fill="#ff7065">
<path d="m433.6 223.5s-.58-2.76-3.49-2.26c-2.91.51 3.49 2.26 3.49 2.26z"/>
<path d="m433.6 222.7s.58-2.76 3.49-2.26-3.49 2.26-3.49 2.26z"/>
</g><g transform="matrix(1.186 0 0 1.19 -83.69 -46.99)" fill="#ff7065">
<path d="m433.4 221.2s-.58-2.76-3.49-2.26 3.49 2.26 3.49 2.26z"/>
<path d="m433.4 220.4s.58-2.76 3.49-2.26-3.49 2.26-3.49 2.26z"/>
<path d="m433.3 217.9s-.62-2.45-3.2-1.89 3.2 1.89 3.2 1.89z"/>
<path d="m433.2 217.2s.42-2.49 3.03-2.15c2.62.35-3.03 2.15-3.03 2.15z"/>
<path d="m432.9 215s-.65-2.3-3.08-1.71 3.08 1.71 3.08 1.71z"/>
<path d="m432.9 214.3s.33-2.37 2.82-2.11-2.82 2.11-2.82 2.11z"/>
<path d="m432.6 212s-.84-2.14-3.11-1.34c-2.27.81 3.11 1.34 3.11 1.34z"/>
<path d="m432.5 211.3s.09-2.3 2.49-2.29c2.41 0-2.49 2.29-2.49 2.29z"/>
<path d="m432.1 209.1s-.79-2-2.91-1.25c-2.11.75 2.91 1.25 2.91 1.25z"/>
<path d="m432 208.5s.08-2.15 2.33-2.14c2.24.01-2.33 2.14-2.33 2.14z"/>
<path d="m431.7 206.4s-.8-1.8-2.7-1.03c-1.91.77 2.7 1.03 2.7 1.03z"/>
<path d="m431.6 205.9s-.01-1.97 2.05-2.05c2.05-.07-2.05 2.05-2.05 2.05z"/>
<path d="m431.1 203.4s-.74-1.67-2.52-.96 2.52.96 2.52.96z"/>
<path d="m431 202.8s-.01-1.83 1.9-1.91c1.91-.07-1.9 1.91-1.9 1.91z"/>
<path d="m430.2 200.6s-.62-1.4-2.1-.8c-1.49.59 2.1.8 2.1.8z"/>
<path d="m430.1 200.2s-.01-1.53 1.59-1.59c1.6-.07-1.59 1.59-1.59 1.59z"/>
<path d="m429.3 198.4s-.79-1.27-2.14-.49c-1.35.77 2.14.49 2.14.49z"/>
<path d="m429.2 198s-.21-1.48 1.32-1.75c1.54-.28-1.32 1.75-1.32 1.75z"/>
<path d="m428.4 197s-.79-.79-1.65 0c-.85.81 1.65 0 1.65 0z"/>
<path d="m427.3 196.3s-.79-.79-1.65 0c-.86.8 1.65 0 1.65 0z"/>
<path d="m428.2 196.7s-.41-1.04.67-1.51c1.08-.45-.67 1.51-.67 1.51z"/>
</g><path d="m431.2 231.9h-.2136c0-24.9-3.654-45.17-8.151-45.17v-.2143c2.266 0 4.378 4.738 5.956 13.34 1.542 8.547 2.409 19.92 2.409 32.03z" fill="#8f3f39" stroke-width="1.188"/><g transform="matrix(1.186 0 0 1.19 -83.69 -46.99)" fill="#ff8d84">
<path d="m434.5 227.2s1.05-2.86-1.9-4.06c-2.95-1.21 1.9 4.06 1.9 4.06z"/>
<path d="m434.9 226.4s2.11-2.2 4.49-.07c2.37 2.13-4.49.07-4.49.07z"/>
<path d="m435 224.4s1.21-2.8-1.67-4.17 1.67 4.17 1.67 4.17z"/>
<path d="m435.6 223.7s2.23-2.07 4.48.18c2.25 2.27-4.48-.18-4.48-.18z"/>
<path d="m436 221.8s1.33-2.32-1.05-3.79 1.05 3.79 1.05 3.79z"/>
<path d="m436.5 221.2s2.15-1.59 3.89.59c1.74 2.19-3.89-.59-3.89-.59z"/>
<path d="m437.3 218.7s1.31-1.97-.69-3.41c-2.01-1.45.69 3.41.69 3.41z"/>
<path d="m437.8 218.3s1.99-1.27 3.4.76c1.41 2.04-3.4-.76-3.4-.76z"/>
<path d="m438.8 216.4s1.23-1.85-.65-3.21c-1.89-1.35.65 3.21.65 3.21z"/>
<path d="m439.2 216s1.87-1.2 3.19.72c1.32 1.91-3.19-.72-3.19-.72z"/>
<path d="m440.7 213.8s1.31-1.49-.21-2.92c-1.51-1.41.21 2.92.21 2.92z"/>
<path d="m441.1 213.4s1.8-.84 2.75 1c.94 1.85-2.75-1-2.75-1z"/>
<path d="m442.7 211.6s1.38-1.29.08-2.77c-1.3-1.49-.08 2.77-.08 2.77z"/>
<path d="m443.2 211.4s1.78-.63 2.5 1.21c.72 1.83-2.5-1.21-2.5-1.21z"/>
<path d="m445.4 209.5s1.25-1.18.07-2.53-.07 2.53-.07 2.53z"/>
<path d="m445.8 209.2s1.62-.57 2.28 1.1-2.28-1.1-2.28-1.1z"/>
<path d="m448.4 207.8s1.21-.8.42-2.08c-.79-1.29-.42 2.08-.42 2.08z"/>
<path d="m448.7 207.6s1.42-.25 1.73 1.23-1.73-1.23-1.73-1.23z"/>
<path d="m451.3 206.7s1.16-.53.64-1.76c-.51-1.24-.64 1.76-.64 1.76z"/>
<path d="m451.6 206.6s1.28-.02 1.35 1.31c.07 1.34-1.35-1.31-1.35-1.31z"/>
<path d="m453.7 206s1.21-.4.83-1.68-.83 1.68-.83 1.68z"/>
<path d="m454.1 205.9s1.27.12 1.19 1.45c-.07 1.33-1.19-1.45-1.19-1.45z"/>
<path d="m455.8 205.8s1.21-.4.84-1.68c-.38-1.28-.84 1.68-.84 1.68z"/>
<path d="m456.2 205.7s1.27.12 1.19 1.45c-.07 1.33-1.19-1.45-1.19-1.45z"/>
<path d="m457.1 205.8s1.2.42 1.69-.82c.48-1.25-1.69.82-1.69.82z"/>
</g><path d="m431.2 230.3h-.2136c0-17.92 12.55-32.5 27.98-32.5v.2143c-15.32.0119-27.76 14.49-27.76 32.28z" fill="#8f3f39" stroke-width="1.188"/>
<path d="m209.3 249c0 .38-6.18.69-13.81.69s-13.81-.31-13.81-.69 6.18-.69 13.81-.69 13.81.31 13.81.69z" fill="#75b3d0" opacity=".4"/></g><g transform="matrix(.432 0 0 .4682 73.42 -389.7)"><g transform="translate(381,556.5)"><g transform="matrix(.7712 0 0 .7658 7.089 -54.24)"><g transform="translate(.2073)"><g transform="matrix(.1072 0 0 .1132 -8.854 -.698)"><path d="m-923.1 5176c-30.73 0-55.87 25.24-55.87 56.1v785.4c0 30.85 25.14 56.1 55.87 56.1h558.7c30.73 0 55.87-25.24 55.87-56.1v-617.1l-223.4-224.4z" fill="#fff" stroke-width="1.749"/><path d="m-476.2 5401h167.6l-223.4-224.4v168.3c0 30.85 25.14 56.1 55.87 56.1z" fill="#e8e8e8" stroke-width="1.749"/><path d="m-247.9 5820c0 17.82-14.79 32.41-32.86 32.41h-723c-18.07 0-32.86-14.59-32.86-32.41v-324.1c0-17.82 14.79-32.41 32.86-32.41h723c18.07 0 32.86 14.59 32.86 32.41z" fill="#50bee8" stroke-width="2.04"/><g transform="matrix(2.053,0,0,2.027,-1053,5460)" fill="#fff"><path d="m95.23 64.87c0-10.5 16.9-10.88 16.9 0v73.02c0 10.62-16.9 10.88-16.9 0z"/><path d="m132.3 76.37c2.944-24.82 40.42-29.28 58.08-15.71 8.704 7.024-.512 18.16-8.192 12.53-9.472-6.016-30.96-8.832-33.65 4.464-3.456 20.99 52.19 8.976 51.3 42.99-.896 32.5-47.97 33.26-65.63 18.67-4.24-3.44-4.096-9.056-1.792-12.53 3.328-3.312 7.024-4.464 11.39-.896 10.48 7.168 37.49 12.54 39.39-5.648-1.648-18.91-54.86-7.52-50.9-43.87z"/><path d="m261.5 147c-23.66 1.024-48.24-14.72-48.24-46.06 0-31.47 24.56-46.94 48.24-46.94 22.38 1.136 45.79 16.62 45.79 46.94.016 30.34-23.39 46.06-45.79 46.06zm-1.408-76.37c-14.34 0-29.94 10.11-29.94 30.32 0 20.1 15.62 30.34 29.94 30.34 14.72 0 30.45-10.24 30.45-30.34.016-20.22-15.73-30.32-30.45-30.32z"/></g><g transform="matrix(14.62,0,0,13.65,-7829,-6654)"><rect x="676.2" y="892.2" width="17.82" height="15.53" rx="9.651" ry="9.702" fill="#fafafa" stroke-width="1.588" style="paint-order:fill markers stroke"/><path d="m684.7 888.3c-2.817 0-5.633 1.096-7.79 3.289-4.316 4.386-4.316 11.45 0 15.83 4.316 4.386 11.27 4.386 15.58 0 4.316-4.386 4.316-11.45 0-15.83-2.158-2.193-4.975-3.289-7.79-3.289zm-.002 6.331a4.731 4.807 0 014.729 4.808 4.731 4.807 0 01-4.729 4.805 4.731 4.807 0 01-4.732-4.805 4.731 4.807 0 014.732-4.808z" fill="#6077e1" stroke-opacity=".5503" stroke-width="13.64"/><path d="m684.7 864c-8.918 0-17.84 3.479-24.68 10.44-13.67 13.91-13.67 36.32 0 50.23s35.68 13.91 49.34 0c13.67-13.91 13.67-36.32 0-50.23-6.834-6.958-15.75-10.44-24.68-10.44zm0 24.34c2.813 0 5.626 1.098 7.782 3.294.4497.4578.8524.9448 1.208 1.455 3.057 4.38 2.653 10.46-1.208 14.39-4.311 4.389-11.25 4.389-15.57 0-4.311-4.389-4.311-11.46 0-15.85 2.156-2.195 4.969-3.294 7.782-3.294zm-3.454 28.04c.9923-.011 1.992.2802 2.697.8654.9258.8076-.0546 2.086-.8715 1.439-1.008-.6917-3.292-1.014-3.579.5148-.3676 2.413 5.553 1.033 5.459 4.945-.0954 3.737-5.105 3.821-6.983 2.142-.451-.3956-.4352-1.039-.19-1.438.354-.3808.7477-.5124 1.212-.1022 1.115.824 3.986 1.441 4.188-.6498-.1754-2.174-5.837-.8633-5.415-5.042.1957-1.783 1.828-2.653 3.481-2.673zm10.26.0949c2.38.1307 4.87 1.911 4.87 5.397.001 3.488-2.488 5.298-4.87 5.298-2.517.1177-5.128-1.695-5.128-5.298 0-3.617 2.609-5.397 5.128-5.397zm-16.79.3322c.4493-.006.8966.2946.8966.9201v8.397c0 1.221-1.797 1.251-1.797 0v-8.397c0-.6036.4508-.9147.9001-.9201zm16.64 1.581c-1.525 0-3.184 1.163-3.184 3.486 0 2.311 1.662 3.486 3.184 3.486 1.566 0 3.239-1.176 3.239-3.486.001-2.326-1.673-3.486-3.239-3.486z" fill="#fdfdfd" stroke-opacity=".5503" stroke-width="15.91"/></g><g transform="matrix(1.318 -.4858 .5345 1.28 324.8 6584)"><path d="m310.5-262.5-192.4 3.019 1.459 149.8 192.4-3.034zm-46.89 35.39.2114 30.81-39.11.6258-.3178-30.83zm-98.55 32.33-.2554-30.77 39.11-.6258.226 30.79zm-95.67 100.1 4.553 486.1c.2478 26.42 22.79 47.53 50.33 47.13l199.4-3.22c27.56-.446 49.63-22.32 49.38-48.67l-4.523-486z" fill="#6077e1"/></g><g transform="matrix(1.331 .4456 -.4994 1.295 682.5 6383)" fill="#6077e1"><path d="m338.1-274.5-192.6-1.468-2.106 149.7 192.6 1.452zm-47.75 34.27-.5219 30.78-39.14-.286.4159-30.8zm-99.36 30.01.4769-30.75 39.14.286-.5069 30.77zm-98.08 97.75-7.017 485.8c-.3811 26.4 21.66 48.01 49.23 48.26l199.6 1.429c27.58.1967 50.18-21.14 50.55-47.47l7.043-485.6z" fill="#50bee8"/></g><g transform="matrix(1.414,0,0,1.376,499.6,6483)"><path d="m285.8 385.3c-23.66 1.024-48.24-14.72-48.24-46.06 0-31.47 24.56-46.94 48.24-46.94 22.38 1.136 45.79 16.62 45.79 46.94.016 30.34-23.39 46.06-45.79 46.06zm-1.408-76.37c-14.34 0-29.94 10.11-29.94 30.32 0 20.1 15.62 30.34 29.94 30.34 14.72 0 30.45-10.24 30.45-30.34.016-20.22-15.73-30.32-30.45-30.32zm-127.8 5.77c2.944-24.82 40.42-29.28 58.08-15.71 8.704 7.024-.512 18.16-8.192 12.53-9.472-6.016-30.96-8.832-33.65 4.464-3.456 20.99 52.19 8.976 51.3 42.99-.896 32.5-47.97 33.26-65.63 18.67-4.24-3.44-4.096-9.056-1.792-12.53 3.328-3.312 7.024-4.464 11.39-.896 10.48 7.168 37.49 12.54 39.39-5.648-1.648-18.91-54.86-7.52-50.9-43.87zm-37.1-11.5c0-10.5 16.9-10.88 16.9 0v73.02c0 10.62-16.9 10.88-16.9 0zm191-565.7-192.4 3.019 1.459 149.8 192.4-3.034zm-46.89 35.39.2114 30.81-39.11.6258-.3178-30.83zm-98.55 32.33-.2554-30.77 39.11-.6258.226 30.79zm-95.67 100.1 4.553 486.1c.2478 26.42 22.79 47.53 50.33 47.13l199.4-3.22c27.56-.446 49.63-22.32 49.38-48.67l-4.523-486z" fill="#fff"/></g><path d="m1276 5074-100.6 167c-209.9-161.9-893.7-201.3-1224-16.09 42.84 121.6 40.49 248 13.75 377.1 281-291.4 724.4-387.2 1142-226l-142 184.7c188.9-87.03 377.7-79.74 566.6-85.84-105.6-110.2-204.3-228.2-255.3-400.9z" fill="#fff" stroke-width="1.533"/><g transform="matrix(1.554,0,0,1.572,1837,5396)" fill="#50bee8" stroke="#50bee8" stroke-width=".7557"><path d="m119.5 303.2c0-10.5 16.9-10.88 16.9 0v73.02c0 10.62-16.9 10.88-16.9 0z"/><path d="m156.6 314.7c2.944-24.82 40.42-29.28 58.08-15.71 8.704 7.024-.512 18.16-8.192 12.53-9.472-6.016-30.96-8.832-33.65 4.464-3.456 20.99 52.19 8.976 51.3 42.99-.896 32.5-47.97 33.26-65.63 18.67-4.24-3.44-4.096-9.056-1.792-12.53 3.328-3.312 7.024-4.464 11.39-.896 10.48 7.168 37.49 12.54 39.39-5.648-1.648-18.91-54.86-7.52-50.9-43.87z"/><path d="m285.8 385.3c-23.66 1.024-48.24-14.72-48.24-46.06 0-31.47 24.56-46.94 48.24-46.94 22.38 1.136 45.79 16.62 45.79 46.94.016 30.34-23.39 46.06-45.79 46.06zm-1.408-76.37c-14.34 0-29.94 10.11-29.94 30.32 0 20.1 15.62 30.34 29.94 30.34 14.72 0 30.45-10.24 30.45-30.34.016-20.22-15.73-30.32-30.45-30.32z"/></g><path d="m1632 6864-54.7-103.8c176.6-42.04 474-345.8 501.4-562.4-75.98-21.44-152-42.84-220.3-122.6 53.01 230-70.75 468.5-330.3 606.9l-48.1-129c-35.9 111-104.3 203.4-178.9 292.2 107.4-7.721 215.9-10.49 331 18.64z" fill="#fff" stroke-width=".9717"/><path d="m-18.79 6864 54.7-103.8c-176.6-42.04-474-345.8-501.4-562.4 99.27-11.3 159.1-67.71 220.3-122.6-53.01 230 70.75 468.5 330.3 606.9l48.1-129c50.87 122.5 112.5 214.4 178.9 292.2-110.3-11.14-220.7-7.519-331 18.64z" fill="#fff" stroke-width=".9717"/></g></g></g></g></g><g transform="translate(9.503)" fill="#fff"><g transform="matrix(.08726 .01441 -.01346 .0958 45.31 6.72)"><g fill="#fff"><path d="m211 27.08c0 14.95 11.26 27.07 25.16 27.07h25.16l-50.31-54.15v27.08z"/><path d="m35.66 32.82c.1126 78.25-.2254 156.5.1694 234.8 1.324 18.44 19.73 31.58 37.54 29.45 52.82-.1126 105.6.2254 158.5-.1694 18.44-1.327 31.59-19.73 29.46-37.54v-198.6c-13.2-.7059-26.91 1.865-39.6-2.385-14.2-5.938-18.67-22.05-17.42-36.13v-22.2c-46.38.1126-92.78-.2258-139.2.1702-16.34 1.361-29.81 16.3-29.45 32.65zm69.39 141.1c8.214-1.701 15.6 4.162 15.16-8.489.3101-16.72-.6275-33.54.4814-50.18 4.332-7.619 14.55-6.083 21.97-8.609 18.1-3.62 36.12-8.024 54.27-11.17 7.157.1173 8.75 8.153 7.841 13.83-.1687 24.15.3418 48.33-.2632 72.46-3.325 24.19-43.25 30.63-52.41 7.264-5.775-18.49 15.96-33.39 32.75-29.84 6.715 2.538 2.297-8.793 3.563-13.07v-32.42l-51.84 10.94c-.1732 23.84.3505 47.7-.2692 71.52-3.325 24.18-43.25 30.64-52.41 7.274-4.843-14.03 8.071-27.14 21.16-29.52z"/><path d="m154.7 228.2h-1.819c-1.013 0-1.823 1.388-1.823 3.081v2.739c0 1.693.795 3.076 1.781 3.076h1.803c1.714 0 3.094-.373 4.14-1.108 1.03-.751 1.563-1.838 1.563-3.282 0-1.554-.486-2.642-1.476-3.387-.999-.745-2.388-1.119-4.169-1.119z"/></g></g><g transform="matrix(.08726 .01441 -.01346 .0958 465.5 5.356)"><g fill="#fff"><path d="m211 27.08c0 14.95 11.26 27.07 25.16 27.07h25.16l-50.31-54.15v27.08z"/><path d="m35.66 32.82c.1126 78.25-.2254 156.5.1694 234.8 1.324 18.44 19.73 31.58 37.54 29.45 52.82-.1126 105.6.2254 158.5-.1694 18.44-1.327 31.59-19.73 29.46-37.54v-198.6c-13.2-.7059-26.91 1.865-39.6-2.385-14.2-5.938-18.67-22.05-17.42-36.13v-22.2c-46.38.1126-92.78-.2258-139.2.1702-16.34 1.361-29.81 16.3-29.45 32.65zm69.39 141.1c8.214-1.701 15.6 4.162 15.16-8.489.3101-16.72-.6275-33.54.4814-50.18 4.332-7.619 14.55-6.083 21.97-8.609 18.1-3.62 36.12-8.024 54.27-11.17 7.157.1173 8.75 8.153 7.841 13.83-.1687 24.15.3418 48.33-.2632 72.46-3.325 24.19-43.25 30.63-52.41 7.264-5.775-18.49 15.96-33.39 32.75-29.84 6.715 2.538 2.297-8.793 3.563-13.07v-32.42l-51.84 10.94c-.1732 23.84.3505 47.7-.2692 71.52-3.325 24.18-43.25 30.64-52.41 7.274-4.843-14.03 8.071-27.14 21.16-29.52z"/><path d="m154.7 228.2h-1.819c-1.013 0-1.823 1.388-1.823 3.081v2.739c0 1.693.795 3.076 1.781 3.076h1.803c1.714 0 3.094-.373 4.14-1.108 1.03-.751 1.563-1.838 1.563-3.282 0-1.554-.486-2.642-1.476-3.387-.999-.745-2.388-1.119-4.169-1.119z"/></g></g><g transform="matrix(-.05426 -.007999 -.006137 .0566 131.5 43.15)"><path d="m480 0h-448c-17.67 0-32 13.95-32 31.62v448c0 17.67 14.33 32.38 32 32.38h448c17.67 0 32-14.7 32-32.38v-448c0-17.67-14.33-31.62-32-31.62zm-368 448h-48v-48h48zm0-112h-48v-48h48zm0-112h-48v-48h48zm0-112h-48v-48h48zm112 207.6v-112l96 56zm224 128.4h-48v-48h48zm0-112h-48v-48h48zm0-112h-48v-48h48zm0-112h-48v-48h48z" fill="#fff"/></g><g transform="matrix(-.03862 -.00588 -.004368 .04161 526.1 61.22)"><path d="m480 0h-448c-17.67 0-32 13.95-32 31.62v448c0 17.67 14.33 32.38 32 32.38h448c17.67 0 32-14.7 32-32.38v-448c0-17.67-14.33-31.62-32-31.62zm-368 448h-48v-48h48zm0-112h-48v-48h48zm0-112h-48v-48h48zm0-112h-48v-48h48zm112 207.6v-112l96 56zm224 128.4h-48v-48h48zm0-112h-48v-48h48zm0-112h-48v-48h48zm0-112h-48v-48h48z" fill="#fff"/></g><g transform="matrix(.04453 -.006984 .006063 .04611 172.1 7.85)"><g fill="#fff" stroke-width="1.236"><path d="m2134 350.5-527.5-202.5c-20.81-7.988-43.3 1.962-50.22 22.22l-125.4 366.9c-6.926 20.26 4.33 43.17 25.14 51.15l527.5 202.5c20.81 7.988 43.3-1.962 50.22-22.22l125.4-366.9c6.926-20.26-4.33-43.17-25.14-51.15zm-62.76 58.91-74.63 218.3-57.4-157.4c-2.05-5.63-6.484-10.19-12.09-12.44-5.553-2.264-11.78-1.941-16.83.8523l-145 79.34-41.16-70.16c-4.764-8.101-14.33-12.18-23.11-9.857l-173.6 46.09 91.72-268.3z"/><ellipse transform="matrix(.9336 .3584 -.3235 .9462 0 0)" cx="1730" cy="-282.9" rx="40.36" ry="38.77"/></g></g><g transform="matrix(.04981 -.008048 .006782 .05314 404.8 50.18)"><g fill="#fff"><path d="m480 64h-448c-17.67 0-32 14.33-32 32v320c0 17.67 14.33 32 32 32h448c17.67 0 32-14.33 32-32v-320c0-17.67-14.33-32-32-32zm-32 64v190.4l-83.5-104.4c-2.984-3.734-7.484-5.938-12.27-6.008-4.75-.102-9.344 1.992-12.42 5.641l-88.5 104.1-48.91-41.91c-5.656-4.836-13.88-5.148-19.88-.758l-118.5 86.93v-234z"/><circle cx="160" cy="192" r="32"/></g></g><g transform="matrix(.04981 -.008048 .006782 .05314 8.492 54.27)"><g transform="translate(-19.92 22.64)" fill="#fff"><path d="m480 64h-448c-17.67 0-32 14.33-32 32v320c0 17.67 14.33 32 32 32h448c17.67 0 32-14.33 32-32v-320c0-17.67-14.33-32-32-32zm-32 64v190.4l-83.5-104.4c-2.984-3.734-7.484-5.938-12.27-6.008-4.75-.102-9.344 1.992-12.42 5.641l-88.5 104.1-48.91-41.91c-5.656-4.836-13.88-5.148-19.88-.758l-118.5 86.93v-234z"/><circle cx="160" cy="192" r="32"/></g></g><g transform="matrix(1.139 0 0 1.073 -10.28 -20.7)" stroke-width=".1535"><path d="m47.07 249.5c.614-.103-3.589-21.85 14.04-46.56.3618.8897.7121 1.786 1.051 2.692.1658-1.572.3344-3.143.5059-4.718 3.043-3.832 6.697-7.651 11.05-11.25.01443-.006-.5088 3.907-2.39 10.11l-.0016.002c-1.698 1.372-3.399 2.839-3.397 2.838.885-.1734 1.776-.3386 2.67-.4972-4.176 13.3-14.44 35.11-23.52 47.4z" fill="#bec66e"/><path d="m43.99 255.7c-1.669-16.26 2.055-34.46 5.475-46.87 3.702-13.43 7.853-23.16 7.895-23.26l.6241.3451c-.04181.0965-4.173 9.777-7.859 23.16-3.397 12.33-7.099 30.4-5.444 46.53z" fill="#cfd68b"/><path d="m47.74 258.6c-.1831.0147-1.183-4.349-4.314-11.47-2.88-7.09-7.89-16.94-10.32-27.07 1.1.2175 2.188.4596 3.26.7262-1.157-.875-2.357-1.732-3.598-2.569-.3531-2.27-.4771-4.543-.2436-6.771-.02163-.0294 5.985 5.35 10.42 13.1v.002c-.4281 1.065-.836 2.142-1.222 3.233.7236-.5004 1.464-.9796 2.223-1.436 5.949 10.72 6.943 23.17 3.791 32.25z" fill="#c5cc78"/></g><g transform="matrix(.1642 0 0 .1754 -47 13.77)" fill="#cfd68b"><path d="m665.5 1261s-.01.01 0 0c-13.06.45-31.1 2.24-31.03 2.29 8.21 1.43 16.39 3.02 24.53 4.78-1.87 2.02-3.76 4.02-5.65 5.98-13.69 1.2-26.61 2.95-38.72 5.17 10.03.91 20.11 2.11 30.23 3.59-31.81 30.86-52.98 57.76-62.48 77.04-10.13 19.26-8.6 30.9-9.59 30.68-13.9-39.93-21.25-75.52-7.61-103 12.08-27.6 45.15-47.13 75.86-56.57.25 4 .41 7.99.5 11.98 1.89-4.63 3.8-9.26 5.75-13.88 26.64-7.69 48.8-9.13 48.63-9.19-8.07 15.07-19.07 28.61-30.42 41.18z"/><path d="m543 1385-4.77-.65c13.79-101.8-10.35-225.8-33.03-312-24.6-93.44-52.85-163.7-53.13-164.4l4.46-1.8c.28.7 28.62 71.16 53.31 164.9 22.8 86.57 47.06 211.3 33.16 313.9z"/><path d="m520.7 1127c-.48 0-21.8-30.55-51.27-66.68-28.69-38.2-65.63-82.06-75.37-151.5 7.41-1.21 14.79-2.09 22.15-2.66-7.65-3.49-15.41-6.63-23.27-9.34-1.58-23.22.32-49.61 8.13-79.94l.03.03c.64.16 22.2 4.94 45.52 25.61v.03c-3.92 11.81-7.38 23.84-7.57 24.59 5.29-5.48 10.68-10.9 16.21-16.32 24.45 24.16 45.58 67.43 55.7 120.4 10.87 52.12 10.76 114 9.74 155.7z"/><path d="m542.4 1360c-4.47-54.72-24.63-96.54-59.92-124.3-65.82-51.78-163-37.2-164-37.05l-.75-4.75c.25-.04 25.27-3.89 58.21-1.14 30.46 2.54 74.19 11.4 109.5 39.16 36.39 28.63 57.16 71.59 61.74 127.7z"/><path d="m528.5 1388c-.13.21-.03-.27.03-1.4.03-.03 0-.05 0-.05.03-.62.05-1.4.03-2.34-.24-12.4-8.05-53.85-101.9-111.8 6.33-.72 12.67-1.37 19-1.91-8.97-1.42-18.23-2.68-27.86-3.7-9.82-6.17-20.21-12.51-31.06-19.09 4.48 0 8.88.03 13.29.11-6.68-1.61-13.53-3.11-20.62-4.54-5.15-3.14-10.44-6.34-15.73-9.58-4.24-.4 72.56-.27 124.7 25.31 54.48 23.79 84.38 72.99 40.07 129z"/></g><g transform="matrix(1.139 0 0 1.073 -10.28 -20.7)" stroke-width=".1535"><path d="m42.82 216.5c-2.55-16.39-17.01-50.18-17.24-50.72.09225.0262 3.2.8079 6.561 4.188v.005c-.565 1.931-1.064 3.899-1.091 4.022.7625-.8962 1.539-1.783 2.337-2.669 3.524 3.951 6.57 11.03 8.029 19.69 1.568 8.524 1.552 18.64 1.405 25.46z" fill="#c5cc78"/><path d="m43.95 259c0 .0752 0 .1488-.0043.229-.01874.0343-.003-.0441.0043-.229z" fill="url(#SVGID_11_)"/><path d="m43.96 258.6c-.0346-2.028-1.16-8.807-14.69-18.28.9124-.1178 1.826-.2241 2.739-.3124-1.293-.2322-2.628-.4383-4.016-.6051-1.415-1.009-2.913-2.046-4.477-3.122.6458 0 1.28.005 1.916.0179-.9629-.2633-1.95-.5086-2.972-.7425-.7423-.5135-1.505-1.037-2.267-1.567 0 .002 23.88 2.538 23.77 24.61z" fill="#c5cc78"/></g><polygon transform="matrix(.1642 0 0 .1754 -47 13.77)" points="621.1 1371 622.2 1381 622.8 1386 623.9 1396 639.9 1542 474.6 1542 490.6 1396 491.7 1386 492.2 1381 493.4 1371 495.5 1352 619 1352" fill="url(#SVGID_12_)"/><path d="m55.44 258.7c.876 8.539 1.752 17.08 2.627 25.62h-27.15c1.146-11.11 2.298-22.22 3.433-33.33h20.28c.2879 2.572.5461 5.145.8048 7.72z" fill="url(#linearGradient1553)" stroke-width=".1697"/><g transform="matrix(.1642 0 0 .1754 -47 13.77)" fill="#3992ac"><polygon points="623.9 1396 490.6 1396 491.7 1386 622.8 1386"/><polygon points="622.2 1381 492.2 1381 493.4 1371 621.1 1371"/></g></g><g transform="matrix(.3919 -.1968 .1817 .4248 341.7 27.52)"><g transform="matrix(1.515 .008569 .00857 1.536 21.52 -22.76)" fill="#fff"><path d="m50.95 12.19-11.64-11.64c-.349-.349-.833-.55-1.328-.55h-29.02c-1.186 0-2.463.916-2.463 2.926v36.07h.633l16.74-14.24c.397-.337.986-.314 1.355.055l4.743 4.743 9.795-10.73c.181-.198.434-.315.703-.325.282-.009.53.09.725.274l10 9.5.311.297v-14.59c-.001-.766-.093-1.333-.551-1.791zm-34.45 11.45c-3.071 0-5.569-2.498-5.569-5.569s2.498-5.569 5.569-5.569 5.569 2.498 5.569 5.569-2.498 5.569-5.569 5.569zm31.61-9.638h-10.61v-10.61c0-.458.553-.687.877-.363l10.1 10.1c.324.324.095.877-.363.877z"/><path d="m31.38 30.97 4.807 4.807c.391.391.391 1.023 0 1.414s-1.023.391-1.414 0l-10.31-10.31-14.24 12.12h41.28v-7.636l-10.95-10.44z"/><path d="m20.82 49.06c.196-.068.376-.18.54-.335s.296-.371.396-.649.15-.622.15-1.032c0-.164-.023-.354-.068-.567-.046-.214-.139-.419-.28-.615-.142-.196-.34-.36-.595-.492s-.593-.198-1.012-.198h-1.23v3.992h1.504c.201-.002.399-.036.595-.104z"/><path d="m16.5 14.5c-1.968 0-3.569 1.601-3.569 3.569s1.601 3.569 3.569 3.569 3.569-1.601 3.569-3.569-1.601-3.569-3.569-3.569z"/><path d="m7.85 41h-1.35v15c0 1.009 1.22 2 2.463 2h40.07c1.243 0 2.463-.991 2.463-2v-15h-43zm27.45 5.679c.214-.643.51-1.178.889-1.606.378-.429.822-.754 1.333-.978.51-.224 1.062-.335 1.654-.335.547 0 1.057.091 1.531.273.474.183.897.456 1.271.82l-1.135 1.012c-.219-.265-.47-.456-.752-.574-.283-.118-.574-.178-.875-.178-.337 0-.659.063-.964.191-.306.128-.579.344-.82.649-.242.306-.431.699-.567 1.183s-.21 1.075-.219 1.777c.009.684.08 1.276.212 1.777s.314.911.547 1.23.497.556.793.711.608.232.937.232c.1 0 .234-.007.403-.021.168-.014.337-.036.506-.068.168-.032.33-.075.485-.13s.269-.132.342-.232v-2.488h-1.709v-1.121h3.336v3.896c-.21.265-.444.48-.704.649s-.533.308-.82.417-.584.189-.889.235c-.306.046-.608.068-.909.068-.602 0-1.155-.109-1.661-.328s-.948-.542-1.326-.971-.675-.966-.889-1.613-.321-1.395-.321-2.242.106-1.593.321-2.235zm-9.933-2.755h1.668l3.951 6.945v-6.945h1.668v10.08h-1.668l-3.951-6.945v6.945h-1.668zm-8.285 0h2.898c.428 0 .852.068 1.271.205s.795.342 1.128.615.602.604.807.991.308.822.308 1.306c0 .511-.087.973-.26 1.388s-.415.764-.725 1.046-.684.501-1.121.656-.921.232-1.449.232h-1.217v3.637h-1.641v-10.08z"/></g></g><g transform="matrix(.3441 .1354 -.1232 .3783 179.2 3.191)" fill="#fff"><g fill="#fff"><path d="m50.95 12.19-11.64-11.64c-.349-.349-.833-.55-1.328-.55h-29.02c-1.186 0-2.463.916-2.463 2.926v36.07h.633l16.74-14.24c.397-.337.986-.314 1.355.055l4.743 4.743 9.795-10.73c.181-.198.434-.315.703-.325.282-.009.53.09.725.274l10 9.5.311.297v-14.59c-.001-.766-.093-1.333-.551-1.791zm-34.45 11.45c-3.071 0-5.569-2.498-5.569-5.569s2.498-5.569 5.569-5.569 5.569 2.498 5.569 5.569-2.498 5.569-5.569 5.569zm31.61-9.638h-10.61v-10.61c0-.458.553-.687.877-.363l10.1 10.1c.324.324.095.877-.363.877z"/><path d="m31.38 30.97 4.807 4.807c.391.391.391 1.023 0 1.414s-1.023.391-1.414 0l-10.31-10.31-14.24 12.12h41.28v-7.636l-10.95-10.44z"/><path d="m20.82 49.06c.196-.068.376-.18.54-.335s.296-.371.396-.649.15-.622.15-1.032c0-.164-.023-.354-.068-.567-.046-.214-.139-.419-.28-.615-.142-.196-.34-.36-.595-.492s-.593-.198-1.012-.198h-1.23v3.992h1.504c.201-.002.399-.036.595-.104z"/><path d="m16.5 14.5c-1.968 0-3.569 1.601-3.569 3.569s1.601 3.569 3.569 3.569 3.569-1.601 3.569-3.569-1.601-3.569-3.569-3.569z"/><path d="m7.85 41h-1.35v15c0 1.009 1.22 2 2.463 2h40.07c1.243 0 2.463-.991 2.463-2v-15h-43zm27.45 5.679c.214-.643.51-1.178.889-1.606.378-.429.822-.754 1.333-.978.51-.224 1.062-.335 1.654-.335.547 0 1.057.091 1.531.273.474.183.897.456 1.271.82l-1.135 1.012c-.219-.265-.47-.456-.752-.574-.283-.118-.574-.178-.875-.178-.337 0-.659.063-.964.191-.306.128-.579.344-.82.649-.242.306-.431.699-.567 1.183s-.21 1.075-.219 1.777c.009.684.08 1.276.212 1.777s.314.911.547 1.23.497.556.793.711.608.232.937.232c.1 0 .234-.007.403-.021.168-.014.337-.036.506-.068.168-.032.33-.075.485-.13s.269-.132.342-.232v-2.488h-1.709v-1.121h3.336v3.896c-.21.265-.444.48-.704.649s-.533.308-.82.417-.584.189-.889.235c-.306.046-.608.068-.909.068-.602 0-1.155-.109-1.661-.328s-.948-.542-1.326-.971-.675-.966-.889-1.613-.321-1.395-.321-2.242.106-1.593.321-2.235zm-9.933-2.755h1.668l3.951 6.945v-6.945h1.668v10.08h-1.668l-3.951-6.945v6.945h-1.668zm-8.285 0h2.898c.428 0 .852.068 1.271.205s.795.342 1.128.615.602.604.807.991.308.822.308 1.306c0 .511-.087.973-.26 1.388s-.415.764-.725 1.046-.684.501-1.121.656-.921.232-1.449.232h-1.217v3.637h-1.641v-10.08z"/></g></g></g><g transform="matrix(.9548 0 0 .9806 241 -1329)"><g transform="translate(-1443 367)">
<g transform="matrix(.7244 0 0 .7489 1355 1144)">
<rect class="st7" x="1014" y="306.5" width="23.8" height="54.6" fill="#567c92"/>
</g>
<g transform="matrix(.7244 0 0 .7489 1355 1144)">
<path class="st10" d="m753.7 341.1s-8.8-.5-12.5-2.5-17.2-9-25.8-8.2-18.6 6.8-18.8 9 2.6 8.8 9.3 10.5 18.8 3.6 24.5 3.1c5.8-.6 17.2 1.2 17.2 1.2z" fill="#ffb28f"/>
</g>
<g transform="matrix(.7244 0 0 .7489 1355 1144)">
<polygon class="st10" points="682.6 617.8 688.9 625.2 703 622.9 710 603.5 686.6 603.5" fill="#ffb28f"/>
</g>
<g transform="matrix(.7244 0 0 .7489 1355 1144)">
<clipPath id="SVGID_2_">
<use width="100%" height="100%" xlink:href="#SVGID_1_"/>
</clipPath>
<g class="st11" clip-path="url(#SVGID_2_)">
<path class="st1" d="m706 614.5s-3 1.2-12.2-.1c-8-1.2-9.5-2.8-9.5-2.8s-16.6 15.2-26.1 18.4-17.4 4.7-18.3 10.3-1.2 7.6 0 8.8 67.2 0 68.5-1.8c1.4-1.8-2.4-32.8-2.4-32.8z" fill="#2d5064"/>
</g>
<g class="st11" clip-path="url(#SVGID_2_)">
<path class="st0" d="m672.8 614.4c4.9 3.3 9.9 6.5 14.8 9.8 1.1.7.1 2.6-1.1 1.8-4.9-3.3-9.9-6.5-14.8-9.8-1.1-.7 0-2.6 1.1-1.8z" fill="#fff"/>
</g>
<g class="st11" clip-path="url(#SVGID_2_)">
<path class="st0" d="m662.5 618.2c5.3 3.4 10.6 6.9 15.9 10.3 1.1.7.1 2.6-1.1 1.8-5.3-3.4-10.6-6.9-15.9-10.3-1.1-.8-.1-2.6 1.1-1.8z" fill="#fff"/>
</g>
<g class="st11" clip-path="url(#SVGID_2_)">
<path class="st0" d="m636.5 643.9c25.8-.1 51.7-.2 77.5-.4 1.4 0 1.4 2.1 0 2.1-25.8.1-51.7.2-77.5.4-1.4 0-1.4-2.1 0-2.1z" fill="#fff"/>
</g>
</g>
<g transform="matrix(.7244 0 0 .7489 1355 1144)">
<polygon class="st10" points="765.5 617.8 771.8 625.2 785.8 622.9 792.8 603.5 769.5 603.5" fill="#ffb28f"/>
</g>
<g transform="matrix(.7244 0 0 .7489 1355 1144)">
<clipPath id="SVGID_4_">
<use width="100%" height="100%" xlink:href="#SVGID_3_"/>
</clipPath>
<g class="st12" clip-path="url(#SVGID_4_)">
<path class="st1" d="m788.8 614.5s-3 1.2-12.2-.1c-8-1.2-9.5-2.8-9.5-2.8s-16.6 15.2-26.1 18.4-17.4 4.7-18.3 10.3-1.2 7.6 0 8.8 67.2 0 68.5-1.8c1.4-1.8-2.4-32.8-2.4-32.8z" fill="#2d5064"/>
</g>
<g class="st12" clip-path="url(#SVGID_4_)">
<path class="st0" d="m755.7 614.4c4.9 3.3 9.9 6.5 14.8 9.8 1.1.7.1 2.6-1.1 1.8-4.9-3.3-9.9-6.5-14.8-9.8-1.1-.7-.1-2.6 1.1-1.8z" fill="#fff"/>
</g>
<g class="st12" clip-path="url(#SVGID_4_)">
<path class="st0" d="m745.3 618.2c5.3 3.4 10.6 6.9 15.9 10.3 1.1.7.1 2.6-1.1 1.8-5.3-3.4-10.6-6.9-15.9-10.3-1.1-.8 0-2.6 1.1-1.8z" fill="#fff"/>
</g>
<g class="st12" clip-path="url(#SVGID_4_)">
<path class="st0" d="m719.3 643.9c25.8-.1 51.7-.2 77.5-.4 1.4 0 1.4 2.1 0 2.1-25.8.1-51.7.2-77.5.4-1.4 0-1.4-2.1 0-2.1z" fill="#fff"/>
</g>
</g>
<g transform="matrix(.7244 0 0 .7489 1355 1144)">
<path class="st5" d="m916 422c-2 0-93 15.3-107.5 26.7-14.5 11.3-41.9 139.4-43.3 150.1-1.3 10.7 17.6 15.3 26.3 13.3s9.8-14.7 25.8-47.7 21.3-66.3 36-71 110.3 35.3 136.2-3.3c25.8-38.7 15.9-76 8.9-78.7-7.1-2.7-82.4 10.6-82.4 10.6z" fill="#a8a045"/>
</g>
<g transform="matrix(.7244 0 0 .7489 1355 1144)">
<path class="st3" d="m835 422c-2 0-93 15.3-107.5 26.7-14.5 11.3-41.9 138.4-43.2 149.1s15.8 15.8 24.5 13.8 11.6-14.2 27.6-47.2 21.3-66.3 36-71 110.3 35.3 136.2-3.3c25.8-38.7 15.9-76 8.9-78.7-7.2-2.7-82.5 10.6-82.5 10.6z" fill="#c4bb5e"/>
</g>
<g transform="matrix(.7244 0 0 .7489 1355 1144)">
<path class="st10" d="m955.5 268.2-15.7 5.9-22.9.7s-11.2-27-13.4-32.8c-.2-.6-.4-1-.4-1.1l7.5-5.4 21.8-15.6 2.2 4.5 4 8.4z" fill="#ffb28f"/>
</g>
<g transform="matrix(.7244 0 0 .7489 1355 1144)">
<path class="st10" d="m932.1 237c-3.7 1.1-8.6.8-13.5 2.5-2.5.9-6.7 1.9-11.2 2.6-10.2 1.6-22.4 1.8-23.5-4.4-.3-1.9-1.8-10.7-1.9-11.1-.1-.6-.2-1.1-.3-1.7-.2-1.6-.4-3.2-.6-4.9 0-.3 0-.5-.1-.8v-.5c-.5-5.8-.8-12.1-.9-18.3v-6.6c0-.9 0-2.3.1-3.9 0-1.2.1-2.5.1-3.7.2-3.2.4-6.4.7-7.2 1.7-5.8 16.3-9.6 18.9-9l30 9.1 6.2 48.3c2.8 8.3.1 8.4-4 9.6z" fill="#ffb28f"/>
</g>
<g transform="matrix(.7244 0 0 .7489 1355 1144)">
<circle class="st1" transform="matrix(.3615 -.9324 .9324 .3615 343.3 988.8)" cx="893.6" cy="243.7" r="14.8" fill="#2d5064"/>
</g>
<g transform="matrix(.7244 0 0 .7489 1355 1144)">
<path class="st7" d="m904.1 241c1.5 5.8-1.9 11.7-7.7 13.3-5.8 1.5-11.7-1.9-13.3-7.7-1.5-5.8 1.9-11.7 7.7-13.3 5.9-1.6 11.8 1.9 13.3 7.7z" fill="#567c92"/>
</g>
<g transform="matrix(.7244 0 0 .7489 1355 1144)">
<path class="st10" d="m886.2 204c.8 2.9-.9 5.9-3.8 6.7s-8.1-1.4-6.3-3.9c2.2-3.1 3.1-4.4 6.3-7.5 2.1-2 3 1.8 3.8 4.7z" fill="#ffb28f"/>
</g>
<g transform="matrix(.7244 0 0 .7489 1355 1144)">
<path class="st0" d="m886.1 222.1c-.4.7-2 1.9-4.3 2.8-.2-1.1-.4-2.2-.6-3.4 0-.2-.1-.4-.1-.6v-.3c1.5-.1 2.8-.1 4 0 .5.1 1.7.4 1 1.5z" fill="#fff"/>
</g>
<g transform="matrix(.7244 0 0 .7489 1355 1144)">
<path class="st14" d="m882.2 197.9c-.1.7-.3 1.7-.7 2.3-.2.3-.5.5-.8.5-.2 0-.4-.1-.5-.2v-6.6c.6-.4 1.1-.3 1.4.1.6.8.7 3.2.6 3.9z" fill="#8a4932"/>
</g>
<g transform="matrix(.7244 0 0 .7489 1355 1144)">
<path class="st14" d="m885.2 191.5c-1.9-.8-3.5-1.2-5-1.6 0-1.2.1-2.5.1-3.7 2.7 1.2 5.4 3.1 6.4 3.9 1.2 1-.2 1.9-1.5 1.4z" fill="#8a4932"/>
</g>
<g transform="matrix(.7244 0 0 .7489 1355 1144)">
<path class="st4" d="m908.5 250.5-28.4 1.5c-10.5 16.4-13.1 111-22.6 131.5s-17.8 24.4-20.3 32.4 5.1 23.9 19.1 33.5c14 9.5 47.9 12.9 49.5 11.7 10.1-7.3 14.7-25.6 20.2-32.1s86.5-182.2 86.5-182.2z" fill="#fa7a7a"/>
</g>
<g transform="matrix(.7244 0 0 .7489 1355 1144)">
<path class="st5" d="m758.2 484.4c-8.6-4.1-15.8-10.2-21.1-18.2-.7-1.1-2.4-.1-1.7 1 5.5 8.2 12.9 14.6 21.8 18.9 1.2.5 2.2-1.2 1-1.7z" fill="#a8a045"/>
</g>
<g transform="matrix(.7244 0 0 .7489 1355 1144)">
<path class="st5" d="m757.2 477.1c-3-2-5.8-4.4-8.3-7-.9-.9-2.3.5-1.4 1.4 2.6 2.7 5.6 5.2 8.7 7.3 1.1.7 2.1-1 1-1.7z" fill="#a8a045"/>
</g>
<g transform="matrix(.7244 0 0 .7489 1355 1144)">
<path class="st4" d="m908.5 250.5s5.9-7.3 21.5-9.2c25-3.1 25 9.2 25 9.2s-12.3 7.2-14.7 8.5c-2.3 1.3-27 2.7-27 2.7z" fill="#fa7a7a"/>
</g>
<g transform="matrix(.7244 0 0 .7489 1355 1144)">
<rect class="st1" x="804.7" y="433.5" width="15.8" height="39" fill="#2d5064"/>
</g>
<g transform="matrix(.7244 0 0 .7489 1355 1144)">
<circle class="st1" cx="841.2" cy="639.2" r="10.3" fill="#2d5064"/>
</g>
<g transform="matrix(.7244 0 0 .7489 1355 1144)">
<circle class="st1" cx="977.2" cy="639.2" r="10.3" fill="#2d5064"/>
</g>
<g transform="matrix(.7244 0 0 .7489 1355 1144)">
<circle class="st1" cx="909.2" cy="639.2" r="10.3" fill="#2d5064"/>
</g>
<g transform="matrix(.7244 0 0 .7489 1355 1144)">
<rect class="st7" x="900.5" y="498" width="17.5" height="132.7" fill="#567c92"/>
</g>
<g transform="matrix(.7244 0 0 .7489 1355 1144)">
<path class="st2" d="m834.1 465.6c18.3 0 34-13.1 37.3-31.2 9.9-53.7 30.1-157.5 39.9-170.3 13.3-17.3 54-29.3 96-24.7 42 4.7 65.3 24.7 70.7 38.7 5.3 14-27.3 205.8-37.8 224.7-9.2 16.4-93.5 15.7-181.5 14.7-100.7-1.2-116.3-4.9-119.3-26-3.2-22.2 56.3-25.9 94.7-25.9z" fill="#ffe7d9"/>
</g>
<g transform="matrix(.7244 0 0 .7489 1355 1144)">
<path class="st7" d="m975.4 640.5h-132.3c-3.2 0-5.8-2.6-5.8-5.8s2.6-5.8 5.8-5.8h132.3c3.2 0 5.8 2.6 5.8 5.8s-2.6 5.8-5.8 5.8z" fill="#567c92"/>
</g>
<g transform="matrix(.7244 0 0 .7489 1355 1144)">
<path class="st2" d="m799.7 398.7c-32 .4-45 9.3-41.7 24.7 2.8 13 46.7 10.2 46.7 10.2h77.9l6.4-35.6s-51.7.2-89.3.7z" fill="#ffe7d9"/>
</g>
<g transform="matrix(.7244 0 0 .7489 1355 1144)">
<path class="st6" d="m877.9 400c-1.1 8.2-2.2 16.4-3.3 24.7-.2 1.3 1.8 1.3 2 0 1.1-8.2 2.2-16.4 3.3-24.7.1-1.3-1.9-1.3-2 0z" fill="#f3cab1"/>
</g>
<g transform="matrix(.7244 0 0 .7489 1355 1144)">
<path class="st6" d="m934.6 272.8c-6.3-1.6-13.7-2.5-19.2-6.2-1.1-.7-2.1 1-1 1.7 5.7 3.8 13.1 4.8 19.7 6.4 1.2.3 1.7-1.6.5-1.9z" fill="#f3cab1"/>
</g>
<g transform="matrix(.7244 0 0 .7489 1355 1144)">
<path class="st6" d="m932.8 278.2c-11.6 67.1-25.4 134-42.8 199.9-3.7 14.2-9.2 30.8-23.9 36.9-1.2.5-.7 2.4.5 1.9 10.8-4.5 17-14.2 21.1-24.8 5.7-14.8 8.7-30.8 12.4-46.1 8.6-35.4 16.4-71 23.5-106.8 4-20.1 7.7-40.3 11.2-60.5.1-1.3-1.8-1.8-2-.5z" fill="#f3cab1"/>
</g>
<g transform="matrix(.7244 0 0 .7489 1355 1144)">
<path class="st6" d="m1073 276.7c-36.9-35-91.4-24.6-134.1-7.9-1.2.5-.7 2.4.5 1.9 42-16.4 95.7-27.2 132.1 7.3 1 1 2.4-.4 1.5-1.3z" fill="#f3cab1"/>
</g>
<g transform="matrix(.7244 0 0 .7489 1355 1144)">
<path class="st6" d="m1063 350.9c-45.5-1.5-91.1-2.2-136.6-2.3-1.3 0-1.3 2 0 2 45.6 0 91.1.8 136.6 2.3 1.3 0 1.3-2 0-2z" fill="#f3cab1"/>
</g>
<g transform="matrix(.7244 0 0 .7489 1355 1144)">
<path class="st6" d="m1036 500.7c-24.4 5-49.3 5-74.1 5.6-24.9.6-49.9 1.2-74.8 1.8-1.3 0-1.3 2 0 2l76.8-1.8c24.3-.6 48.7-.7 72.6-5.6 1.3-.3.8-2.3-.5-2z" fill="#f3cab1"/>
</g>
<g transform="matrix(.7244 0 0 .7489 1355 1144)">
<path class="st6" d="m901.2 489.4c-2.3.2-4.3 2.3-4.1 4.6v.2c.4 2.2 2.6 3.6 4.8 3.4s3.7-2.2 3.5-4.4c-.2-2.1-1.9-4-4.2-3.8zm-2 4.5c0-1.3 1-2.5 2.3-2.5 1.2 0 1.9 1.1 2 2.1.1 2.8-3.7 2.7-4.3.4z" fill="#f3cab1"/>
</g>
<g transform="matrix(.7244 0 0 .7489 1355 1144)">
<path class="st6" d="m1036 485.8c-2.4-.2-4.4 1.7-4.7 4-.1.6.4 1.1.8 1.2.5 1.5 1.9 2.7 3.5 2.8 2.2.1 4.1-1.8 4.2-4 0-2.1-1.8-3.8-3.8-4zm0 6c-1.3.1-2.2-1.3-2.1-2.4 0-.2 0-.4-.1-.6.3-.5.8-.9 1.5-1 1-.2 2.3.5 2.5 1.6s-.7 2.3-1.8 2.4z" fill="#f3cab1"/>
</g>
<g transform="matrix(.7244 0 0 .7489 1355 1144)">
<path class="st6" d="m931.2 358.6c-.4-2.2-3.4-2.6-5.1-1.7-1.9.9-2.6 3.3-1.9 5.3.6 1.8 3.4 2.4 4.8 2.2 1.3-.2 1.7-1 2.1-2.2.3-1.2.4-2.4.1-3.6zm-2.6 3.8c-.8.3-2.5-.7-2.7-2 .1-.5.3-1 .7-1.4.7-.5 2.4-.8 2.7.2.2.7.2 2.9-.7 3.2z" fill="#f3cab1"/>
</g>
<g transform="matrix(.7244 0 0 .7489 1355 1144)">
<path class="st6" d="m1064 360.6c-.3-2.1-2.5-3.6-4.5-2.6-.6.3-1.5 1.1-1.8 1.6-1.5 1.9 0 4.6.9 5.1 3 1.6 5.9-1.1 5.4-4.1zm-3.7 2.6c-.2 0-.4-.1-.6-.2-.6-.5-1.4-2.5.8-3.3 1-.4 1.6.6 1.6 1.5 0 1.1-.7 2.1-1.8 2z" fill="#f3cab1"/>
</g>
<g transform="matrix(.7244 0 0 .7489 1355 1144)">
<path class="st6" d="m946.2 278.4c-.4-4-5.9-3.3-6.9-.2 0 .1-.1.2-.1.3-.1.3-.1.6-.1.9s.2.6.4.7c.6 1.4 2 2.3 3.6 2.3 1.9-.1 3.3-2.1 3.1-4zm-3.1 2c-.9.2-1.8-.6-1.9-1.5.5-1.3 2.7-2.1 3-.5.1.8-.3 1.8-1.1 2z" fill="#f3cab1"/>
</g>
<g transform="matrix(.7244 0 0 .7489 1355 1144)">
<path class="st4" d="m880.1 252s-7.5-1-13.1 4c-5.7 5-49 73.1-58.2 76.1s-57.5.9-68.5 4.2-11 23-7.7 24.8h98.4c1.7 0 46.4-37.4 46.4-37.4l16.2-55.7z" fill="#fa7a7a"/>
</g>
<g transform="matrix(.7244 0 0 .7489 1355 1144)">
<path class="st16" d="m880.5 255.2c-.8-1-2.2.4-1.4 1.4 7.7 9.2 7.7 25.2 5.9 36.5-1.9 11.7-6.9 22.6-14.4 31.7-.8 1 .6 2.4 1.4 1.4 8.2-9.9 13.5-21.7 15.2-34.4 1.5-11.5 1.1-27.2-6.7-36.6z" fill="#ed6464"/>
</g>
<g transform="matrix(.7244 0 0 .7489 1355 1144)">
<path class="st5" d="m712.5 600.8c-7.3 3.7-15.9 2-21.4-4-.9-1-2.3.5-1.4 1.4 6.1 6.7 15.8 8.3 23.8 4.3 1.2-.5.2-2.2-1-1.7z" fill="#a8a045"/>
</g>
<g transform="matrix(.7244 0 0 .7489 1355 1144)">
<path class="st16" d="m807.3 335.4c-2.1 4.7-2.6 9.6-1.4 14.5.3 1.3 2.2.7 1.9-.5-1-4.4-.7-8.8 1.2-13 .6-1.1-1.2-2.2-1.7-1z" fill="#ed6464"/>
</g>
<g transform="matrix(.7244 0 0 .7489 1355 1144)">
<path class="st16" d="m803.6 336c-1.4 3.4-2.1 7-2.3 10.6-.1 1.3 1.9 1.3 2 0 .2-3.5.9-6.9 2.2-10.1.5-1.1-1.4-1.7-1.9-.5z" fill="#ed6464"/>
</g>
<g transform="matrix(.7244 0 0 .7489 1355 1144)">
<path class="st9" d="m939.8 232.2s-6.3 1.8-14.2 3.2c-11.5 2-26.6 2.6-26.6 2.6s-5.6.3-5.4 6c.2 5.8 5.5 5.1 5.5 5.1s-.8.8 18.6-1c14.8-1.4 28.4-5.2 28.4-10.9.1-5.7-6.3-5-6.3-5z" fill="#7f9eb2"/>
</g>
<path class="st10" d="m2005 1286s1.449-.8238 2.97 1.198c1.521 2.097 2.101 5.842-.652 10.93-1.232 2.397-1.594 2.172-1.594 2.172s-3.912-.674-3.84-2.172c.073-1.498.652-9.062.7245-9.287.072-.2247 2.391-2.846 2.391-2.846z" fill="#ffb28f" stroke-width=".7366"/>
<path class="st14" d="m2034 1311c-2.246 4.793-4.202 7.414-12.17 3.37-4.057-2.022-11.16-5.692-12.17-10.34-.7244-3.295 1.014-8.164.2898-11.53-.7245-3.37-2.101-3.445-4.492-6.74s1.087-7.04-4.347-8.613c-5.433-1.498-4.347.7489-8.838.3744-3.55-.2995-8.404-4.344-7.679-13.78.6519-8.014 8.693-12.13 13.98-10.56s10.94 3.146 15.07 1.198c5.288-2.472 10.36-1.573 15.58 1.198 5.144 2.771 8.621 3.37 10.79 7.714 4.202 8.613.2897 20.6-2.173 26.44-2.028 4.868-1.232 15.58-3.84 21.27z" fill="#8a4932" stroke-width=".7366"/>
</g></g><g transform="translate(-2451 -312.1)"><g transform="translate(-1804 126.2)">
<g transform="matrix(.4841 0 0 .5266 4048 316.1)">
<path d="m968.9 944c9.081 3.289 17.83 8.015 24.47 15.15 2.354 3.183 6.911 2.686 10.42 3.583 8.244 1.111 16.73.5555 24.71-1.837 1.617-3.284-.9543-6.66-2.752-9.297-1.625-2.225-5.168-.6006-7.648-1.286-17.27-1.123-33.95-7.362-48.6-16.42-5.384-3.476-10.01-8.267-16.05-10.63-3.357-1.271-8.176.6159-8.257 4.631.0615 4.957 3.172 10.32 8.233 11.56 5.171 1.465 10.44 2.614 15.47 4.534z" fill="#784743"/>
<path d="m946.6 927.9c1.293 11.02 2.396 22.06 3.5 33.1h15.4c-.2408-6.728-.2566-13.46-.1-20.19-.0255-1.805.107-3.607.2-5.407-4.331-2.261-8.9-4.095-13.5-5.741-1.816-.635-3.648-1.223-5.495-1.759z" fill="#784743"/>
<path class="st4" d="m956.2 858.1c3.9-4.9 17.1-1.1 28.6 3.5-2.3 3.5-3.891 31.47-5.391 36.97-4.177 10.28-11.17 15.93-22.81 3.635.5-4.152 1.9-14.7 0-31.2-1-9.1-1.9-11-.4-12.9z" fill="#fdb8ac"/>
<path d="m1029 954.5c-.3842-5.511-7.069-4.931-10.92-6.304-8.237-3.72-14.61-10.61-19.93-17.74-6.915-9.614-10.54-21.37-11.06-33.15-10.7-3.577-22.34-4.263-33.4-2.1.6721 8.255.3048 17.79-6.006 23.95-3.386 3.296-4.163 8.876-1.308 12.75 2.431 1.973 5.927 2.631 8.777 4.093 14.59 6.101 29.02 12.58 43.19 19.59 8.97 3.993 19.89 5.768 28.95 1.099.784-.4891 1.619-1.191 1.694-2.184z" fill="#2d2e2d"/>
<path d="m1017 948.3c-1.603.2106-3.223.2213-4.831.3748-1.681.126-3.336.4595-4.978.8292-1.947.3892-3.813 1.076-5.701 1.67-.085-.1058.4543-.6096.6509-.8448 1.15-1.195 2.579-2.112 4.143-2.665 2.314-.858 4.869-1.1 7.296-.6418 1.185.2754 2.373.6454 3.421 1.277z" fill="#434543"/>
<path class="st2" d="m931.6 947.9c10.3 3.8 15.8 7.7 17.1 8.7 4.1 3 7.1 6.1 9 8.2 5.2 1.5 12.8 2.9 21.8 2.2 4.5-.4 8.4-1.2 11.7-2.2 0-.1.1-.1.1-.2s.1-.1.1-.2c.6-1.2.4-2.8-.4-4.7-.7-1.5-1.8-3.3-3.4-5.3-9.5.1-17.3-1.3-23-2.7-3.8-1-7.4-2.1-10.7-3.3-13-4.8-21.7-10.6-21.7-10.6-4.8-3.3-8.7-6.6-12.1-8.7-3.2-2-5.9-2.9-8.5-1.9-1 .3-2.2.9-2.9 2.1-2 3 .1 7.7 1.7 10 3.3 5.1 8 3.8 21.2 8.6z" fill="#784743"/>
<path d="m909.3 931.8c1.293 11.02 2.396 22.06 3.5 33.1h15.4c-.2408-6.728-.2566-13.46-.1-20.19-.0255-1.805.107-3.607.2-5.407-4.331-2.261-8.9-4.095-13.5-5.741-1.816-.635-3.648-1.223-5.495-1.759z" fill="#784743"/>
<path class="st4" d="m915.4 859.9c7.867-4.728 17.42-3.535 26.4-1.7-.5 6.4-1.409 33.61-1.109 41.01-.1402 8.82-11.26 10.88-21.39 6.894 1.5-10.7 3.1-20.4 0-31.2-2.4-8.8-5.9-12-3.9-15z" fill="#fdb8ac"/>
<path class="st142" d="m991.6 958.4c.1-1.9-1.4-3.6-3.2-4.4s-3.8-.9-5.7-1.3c-6.6-1.3-18.5-12.3-25.4-23.8-7-11.7-9.6-23.1-10.6-31.2-3.2-1.5-8.3-3.4-14.8-3.9-7.7-.6-13.8 1-17.4 2.2 2.7 15.2.1 22.1-3 25.6-1.1 1.3-4.2 4.1-4.3 8.2-.1 2.7 1.1 5 2.2 6.5 20.5 8.5 36.1 15.4 48.6 21.7 2.9 1.4 13.6 6.9 25.2 4.8 1.7-.4 8.2-1.6 8.4-4.4z" fill="#2d2e2d"/>
<path d="m980.9 951.6c-2.491.3032-5.021.2381-7.49.7257-2.023.3788-4.038.8234-5.988 1.49-.6775.2193-1.353.4448-2.032.6588.1605-.4479.6149-.7581.9255-1.12 2.017-1.974 4.816-2.973 7.589-3.214 2.368-.2032 4.814.2366 6.897 1.401z" fill="#434543"/>
<path class="st144" d="m975.6 608.1c7.6 16.4 13.09 34.64 20.69 51.04-3.9 7.4-9.3 18.5-14.4 32.5-6.4 17.6-10 33-12.5 48.2-1.7 10.6-3 21.2-4.3 32.4-2.7 22.4-7 56.4-13.4 101.3 2.9 1.5 6.5 3 10.7 4.1 9.5 2.5 17.7 1.8 22.9.8 8.1-55.1 26.7-89.8 36.9-114.5 12.7-30.7 27.9-60.4 36.7-92.5 1.3-4.8 2.5-9.6 2.4-14.6-.1-4.5-1.3-8.9-2.4-13.2-2.5-9.1-19.9-72.4-44.4-164.5-.4-1.7-.9-3.3-1.3-5-.2-.9-.5-1.9-.7-2.8-.4-1.4-.8-2.9-1.2-4.4-1.3-4.9-2.6-9.9-3.9-14.9-1.1-4-2.1-8.1-3.2-12.2-.2-.6-.3-1.2-.5-1.8-2.8.3-25.9 3.5-45.3 18.9-8.4 6.7-16.2 15.7-21.3 27.7-5.2 12.2 9.842 19.39 10.14 28.19 14 31 14.16 64.47 28.36 95.27z" fill="#9ed6f0"/>
<path class="st144" d="m890.3 516.8c0 2 .1 3.6.1 5.4.4 12.6 2.3 35.2 12 89.3 3.5 19.5 8.5 46.1 15.4 77.8-7.7 23-17.2 60.4-15.7 107.1 1.1 35.7 8.2 64.9 14.8 85.2 4 .7 8.8 1.2 14.3 1.1 5.3 0 10.1-.6 14-1.3.2-2.4.4-4.7.6-7.1.8-9.2 1.7-18.5 2.5-27.7 4.3-34.9 8.7-69.7 13-104.6 2.4-19.4 4.8-38.7 7.2-58.1.6-23.9 1.2-47.7 1.8-71.6-2.49-32.38-11.36-57.6-10.66-86.3 2.2-5.4 17.86-12.4 21.16-20.8 18.3-46.6 21.02-39.36 15.02-46.16-5.4-6.1-16.8 1.8-40.4 6.4-25.2 4.9-46.9 2.4-61.8-.7-4 8.8-6 16.3-7.2 21.2-3.4 14.7 3.281-.1351 3.881 30.86z" fill="#9ed6f0"/>
<path class="st19" d="m997.5 453.3c-.1 5.2 2.6 10.2 6.2 14 2.7 2.7 5.9 4.9 9.2 6.9-.2-.9-.5-1.9-.7-2.8-.4-1.4-.8-2.9-1.2-4.4-5.3-3.6-9.9-8.3-13.5-13.7z" fill="#4b74a3"/>
<path d="m986.7 872.7c-4.018.3917-8.063.3341-12.09.2535-4.139-.252-8.479-.4156-12.21-2.443-2.142-1.243-3.943-3.202-4.636-5.618-.083-.3307.5892.8168.867 1.028 2.123 2.44 5.291 3.651 8.401 4.219 2.792.4273 5.616.5929 8.419.9318 3.086.306 6.147.807 9.217 1.228.6812.1131 1.359.2449 2.032.4008z" fill="#74a4db"/>
<path d="m944.4 874.1c-4.095 1.282-8.316 2.086-12.55 2.763-3.743.6739-7.66 1.012-11.37-.0295-2.416-.8209-4.91-2.205-5.957-4.665.5968.5478 1.503 1.26 2.345 1.685 2.998 1.471 6.426 1.759 9.716 1.508 1.951-.1878 3.891-.5089 5.848-.6641 2.774-.3166 5.559-.525 8.352-.5668 1.204-.047 2.408-.0831 3.612-.0315z" fill="#74a4db"/>
<path class="st4" d="m913.2 263.3c-.5 5-1.1 13.3-7.2 19.5-8 8.1-19 5.8-19.5 8.9-.8 4.8 24.1 18.3 53.5 18.4 31.5.1 62-15.3 60.7-22.3-.6-3.4-9-6.5-40.7-6.1-2.8-3.4-4.5-6.7-5.6-9.5-7.2-19.1 6.9-38.6 8.9-41.2-2.3-1.4-4.6-2.9-6.9-4.3-11.3-7.1-22.3-14.2-33.2-21.3-5.8 26-8.7 44.2-10 57.9z" fill="#fdb8ac"/>
<path class="st145" d="m966.2 290.7c-2.8.3-5.8.6-8.2-.8-2.8-1.6-4.1-4.9-5-8-4.1-14.4-2.2-61.9-2.2-61.9.4-14-3.5-34.1-23.7-59.2.8-.7 14.3-13.3 31.2-8.7 10.4 2.8 15.4 11.3 22.3 23 5.2 8.8 17.7 29.7 12.7 52.6-2.1 9.9-5.9 12.8-6.1 23.9-.1 4.8-.1 15 6.7 24.5 3.9 5.5 8.7 8.7 11.7 10.4-13.1 1.4-26.3 2.8-39.4 4.2z" fill="#59453b"/>
<path class="st4" d="m948.9 169.7c10.9.4 16.3.6 20 4.5 3.5 3.6 1.8 6.9 5.6 18.9.5 1.7 1.4 4.1 1.1 7.3-.1 1.7-.5 2.4-.6 4.5-.2 3.1.2 5.3.4 6.2.7 4.4-.7 9.3-2.7 16.4-2.3 8.3-3.5 12.4-6.7 16.2-1.7 2-4.6 5.5-9.8 7.1-.9.3-6 1.9-11.7 0-6.5-2.1-9.7-7.4-13.4-13.4-6-9.9-7.7-19.2-9.5-28.4-1-5.5-1.8-9.5-1.7-15 .1-8.5.2-15.9 5-20.6 4.6-4.4 11.1-4.1 24-3.7z" fill="#fdb8ac"/>
<path class="st146" d="m925 285.7c7.5-.5 15 2.1 22.5 2.3 6.2.2 12.3-1.2 18.3-2.6 2.4-.6 5.3-1.6 5.7-4 .6-3.1-3.2-5.1-6.2-6 1.3-1.2.8-3.6-.5-4.7-1.4-1.1-3.3-1.4-5.1-1.6-6.7-.6-13.4-.7-20.1-.8-11-.2-23.2.1-31 7.9 1.6.7.7 3.2-.8 4.1s-3.5 1.6-3.8 3.3c-.4 2 2 3.4 4 3.7 5.7 1 11.3-1.2 17-1.6z" fill="#dcdedd"/>
<path class="st142" d="m927.8 491c-10.5 2.3-23.59-16.39-41.59-5.392 1.1-9.2.9269-39.27-1.273-41.37-2.9-2.6-5.2-2.4-10-5.3-3.2-2-6.1-5.3-5.7-9.1.5-4.6 5.6-7.2 8-11.2 1.1-1.9 1.6-4 2.1-6.2 1.9-8.1 3.7-16.3 4.3-24.6 1.2-16.5-2.5-33-7.8-48.6-4.5-13-10.2-26.9-5.7-39.9 1.4-4.2 4.6-6.7 5.8-7.8 8.9-8.2 21.1-8.1 27.4-8.1 33.7.1 32.6-3.9 92.5.8 5.5.4 14.8 1.2 21.6 8 4.3 4.3 6.2 10.4 7.9 16.2 4.3 14.4 8.6 29 10 44 1.5 16.4-.3 17.6 1.2 33.9 1.3 14.3 3.9 25.8 5.9 33.5.3 6.5-1.9 9.4-3.2 10.6-3.9 3.7-10.8 2.9-24.3 1.1-7.359-.9018-.8275 2.398.5529 5.967 10.94 12.01-1.709 43.3 4.465 58.86-6.3.1-27.45 5.442-33.95.8416-8.1-5.7-16-7-25.4-8.5-13-1.8-23.1.2-32.8 2.3z" fill="#2d2e2d"/>
<path d="m964.1 275.1c-3.598 1.305-7.369 2.125-11.17 2.577-3.64.3993-7.309.5986-10.97.3513-3.482-.2042-6.97-.6487-10.34-1.58-.5408-.1257-1.172-.3177-.242-.3162 5.301-.2907 10.61-.4589 15.92-.6226 5.133-.1615 10.26-.3658 15.4-.5091.4651.0504.932.0921 1.4.1z" fill="#bebfbe"/>
<path class="st142" d="m1005 429.9c-6.027-10.09 2.023-22.44 3.201-24.18 31.99-8.656 64-17.4 96.1-26.04 1.562 1.43 3.98 3.495 7.437 5.385 6.637 3.539 10.99 2.972 11.91 4.278 2.191 3.054-10.28 14.83-63.94 48.23-23.6 10.37-47.84 4.086-54.71-7.671z" fill="#2d2e2d"/>
<path d="m987 457.7c5.029.3933 11.51.7763 14.54-4.134 2.578-4.687.7691-10.32-1.308-14.82-4.657-9.283-12.82-16.97-14.79-27.47-1.871-10.47 2.598-20.65 6.199-30.25 2.316-6.747 4.975-13.9 3.746-21.14-.344-1.774-2.934-5.026-.3062-1.973 2.962 4.882 2.166 11 1.255 16.37-2.052 10.81-7.313 21.06-7.233 32.22.1365 1.638.2075 3.301.6 4.9.6653 3.136 2.527 6.921 4.344 9.956 4.531 7.715 10.91 15.13 11.46 24.44.3856 4.935-1.692 10.7-6.846 12.24-3.783 1.323-7.86.4354-11.65-.3404z" fill="#3e403e"/>
<path class="st54" d="m947.4 196.2c.8.8.9 2.1.9 3.3 0 .5 0 1.1-.3 1.5-.6.8-2.4 0-3-.3-1.9-.7-4.9-1.7-10.4-2.7-4.7.5-5.9.4-5.9.2-.1-.6 6-1.4 14.8-2.6 1.1-.2 2.9-.4 3.9.6z" fill="#302d30"/>
<path class="st54" d="m960 195.6c-.9.7-1.1 2-1.2 3.2 0 .5-.1 1.1.2 1.5.6.9 2 .4 3 0 4.8-2.4 10.4-3.2 15.8-2.3-4.6-.9-9.3-1.9-13.9-2.8-1.4-.2-2.9-.5-3.9.4z" fill="#302d30"/>
<path d="m958.9 202c-.0527.5241-.2272 1.033-.197 1.567.005 1.082-.026 2.165.0207 3.245.0599.8648.2879 1.703.4257 2.556.2112.8402.351 1.721.7694 2.488.1216.4474.3939.8252.5453 1.259.2546.461.398.9693.6938 1.405.0156.1672-.438-.3359-.5922-.4131-.4314-.4687-.8782-.9262-1.228-1.463-.5057-.7737-1.014-1.561-1.303-2.445-.2697-.6033-.358-1.272-.4922-1.916-.0727-.759-.0312-1.523-.0422-2.284.0939-.7866.1988-1.588.5375-2.312.1317-.4524.3514-.869.5625-1.288.1175-.1187.2207-.2528.3-.4z" fill="#e3988a"/>
<path d="m952.4 220.9c-.0584.5574.1708 1.092.5264 1.512.4046.5253 1.161.9552 1.804.5888.4649-.2492.5-.8579.7788-1.262.2391-.2979.4955-.6441.8984-.6969 1.1-.2239 2.09.4165 3.111.6974.6877.1492 1.36.4339 2.069.4557 1.267-.0415 2.595-.8075 2.969-2.071.0689-.3126.0498-.6421.0264-.959-.3187-.7089-.8482-1.318-1.483-1.766.4982.224 1.024.4491 1.419.8359.3136.4546.6879.8806.8312 1.427.224.7125-.0584 1.47-.5086 2.031-.4903.7622-1.292 1.269-2.122 1.588-.7238.2363-1.501.1325-2.238.0201-.8999-.1632-1.75-.5006-2.588-.8584-.4236-.1366-.8366-.3762-1.294-.3435-.3385.0593-.4966.625-.7425.9739-.2996.5437-.9002.8422-1.508.8549-.9694.0816-1.854-.6377-2.132-1.542-.1381-.4492-.2665-1.111.1578-1.424z" fill="#e3988a"/>
<path d="m933.1 208.5c1.221-.9427 2.593-1.653 3.933-2.403 1.397-.7511 2.831-1.514 4.406-1.811.7252-.2293 1.487-.1886 2.236-.1816.6456.1165 1.134.6178 1.484 1.143.3368.5266.5585 1.148 1.033 1.572.5204.4852 1.138.8958 1.853 1.017.2778.0687.8204.1941.2279.2311-1.334.1852-2.808-.2709-3.615-1.393-.324-.3846-.5879-.9204-1.089-1.075-.4225-.003-.8467-.0228-1.257.0976-.6935.1262-1.382.2758-2.039.5391-1.071.3807-2.149.7427-3.18 1.226-.2104.0717-.4225.1546-.6237.2375-.3841.006-.734.2252-1.113.2901-.747.1912-1.499.3657-2.256.5099z" fill="#473d3b"/>
<path class="st150" d="m939.7 205.7c-.1.2-.1.3 0 1.5.1.9.2 1.7.3 2.2.7-.2 1.6-.5 2.7-.6 1-.1 1.9-.1 2.6 0 .6-1.1.6-2.2 0-3-.5-.7-1.4-.8-2.3-.9-.5 0-2.7-.3-3.3.8z" fill="#473d3b"/>
<circle class="st151" cx="941.1" cy="206" r="1.3" fill="#fdd8d2"/>
<path d="m974.3 206.9c-1.168.2765-2.423.1937-3.52-.3072-.9209-.2821-1.685-.8748-2.464-1.415-.6312-.4072-1.376-.7286-2.143-.5831-.6204.1343-1.254.3058-1.795.648-.9715.7724-2.037 1.535-3.304 1.692-.383.0872-1.168.1082-1.304-.0523 1.129-.3302 2.266-.8222 3.063-1.718.9079-1.016 2.095-1.934 3.504-2.023 1.357-.0856 2.657.582 3.595 1.526.6362.5609 1.299 1.094 2.04 1.509.5129.2826 1.079.4651 1.634.6455.2276.0915.4714-.012.6932.0784z" fill="#473d3b"/>
<path class="st150" d="m969.9 205.6c.2.7 0 1.4-.1 1.7-.7.2-1.6.4-2.6.5s-1.8.1-2.6 0c-.6-1.1-.6-2.2 0-3 .5-.7 1.4-.8 2.3-.9h.2c1.1 0 2.4.6 2.8 1.7z" fill="#473d3b"/>
<circle class="st151" cx="966.3" cy="204.2" r="1.3" fill="#fdd8d2"/><g fill="#e3988a">
<path class="st149" d="m952 229.4c-.2.1-.4.3-.6.5-1 1-2.4 1.5-3.7 1.6-1.4.2-2.8 0-4.1-.1 2.5 1.6 5.5 2.2 8.4 2.2s5.9-.5 8.8-1c-1.4-.4-2.9-1-3.5-2.3-.1-.3-.2-.7-.5-.9-.4-.4-1.1-.4-1.6 0-.5.3-.8.9-.9 1.5-.2-.4-.5-.9-.8-1.2-.5-.3-1-.5-1.5-.3z"/>
<path class="st149" d="m944 231.9c1.3.6 3.2 1.4 5.6 1.8 1.4.3 2.6.4 2.8.4 1.6.1 4.3 0 7.6-1.1-.3.8-.9 2-2.1 3.1-.6.6-1.8 1.8-3.6 2.1-2.2.4-4-.7-5.6-1.6-2.3-1.3-3.8-3.2-4.7-4.7z"/>
<path class="st149" d="m942.8 229.1-.3.3c-.1.1-.1.2-.2.3s-.1.2-.2.4c-.1.3-.2.5-.3.8 0 .2-.1.4-.1.4s-.2-.1-.2-.4c-.1-.3-.1-.7.1-1s.5-.6.7-.7c.1-.1.3-.1.3-.1h.2z"/>
</g><path d="m893.4 227.5c.8794 6.656 3.816 13.13 8.7 17.8-9.311-18.7-10.93-41.68-2.318-60.94 2.836-6.424 7.17-12.22 12.94-16.28 2.71-2.049 6.51-4.149 9.841-2.217 3.939 2.533 6.964-1.922 7.637-5.33 2.594-4.77-4.265-3.503-6.898-3.53-11.03.7118-20.91 8.312-25.19 18.38-3.365 7.755-4.763 16.21-5.817 24.54-.7597 9.188-.2609 18.46 1.102 27.57z" fill="#70564a"/>
<path d="m910.8 422.2c10.6-4.068 21.89-6.149 33.18-6.981 15.3-.8288 30.91.5438 45.41 5.744.4484.3024-3.296-.2694-4.319-.2852-17.45-1.71-35.06-2.176-52.54-.7276-7.261.5342-14.49 1.432-21.72 2.25z" fill="#3e403e"/>
<path class="st4" d="m904.5 479.7c4.3 8 5.3 13.9 7.8 13.8 1.8-.1 2-3.1 5.4-8.5 5-7.9 9.9-9.7 9.2-12.3-.6-2.3-4.8-2.2-12.1-3.7-14.1-3-20.6-8.1-21.8-6.3-1.2 1.7 5.5 5.8 11.5 17z" fill="#fdb8ac"/>
<path d="m926.6 285.1c-19.27 38.41-39.79 76.88-68.72 109-3.189 5.504-4.252 12.13-6.488 18.1-2.567 8.146-5.084 16.31-7.587 24.47-20.07-10.52-33.79-32.72-32.35-55.6.3554-7.35 1.532-14.92 6.08-20.93 12.38-20.15 26.67-39.29 43.48-55.96 9.588-8.907 19.45-17.71 30.4-24.89 9.37-5.59 21.32-3.859 30.04 2.141 1.781 1.118 3.491 2.347 5.144 3.647z" fill="#2d2e2d"/>
<path d="m917.7 466.8c-8.636 2.463-14.7 11.36-13.8 20.3-3.537-7.474-12.09-12-20.25-10.17-8.062 2.12-14.45-4.656-19.77-9.659-12.76-13.2-23.49-28.19-34.24-43.02-8.162-11.24-13.61-24.47-14.73-38.39-.6416-6.165-.6549-12.4-.009-18.56 3.219-2.721 5.829-10.3 9.369-9.833 15.34 12.8 30.43 26.51 40.79 43.8 7.889 12.7 21.31 20.24 30.79 31.55 6.388 7.409 13.45 15.86 13.41 26.18.1326 4.64 4.34 7.043 8.442 7.803z" fill="#2d2e2d"/>
<path d="m995 286.8c1.59 1.529 2.768 3.43 3.853 5.336.8512 1.664 1.683 3.346 2.38 5.08.8943 2.283 1.4 4.691 1.885 7.087.1603 1.159.3104 2.326.2818 3.497-1.208-2.054-1.975-4.323-2.953-6.488-1.202-2.928-2.286-5.903-3.489-8.831-.5805-1.584-1.233-3.144-1.658-4.781-.1168-.294-.2191-.5941-.3-.9z" fill="#3e403e"/>
<path d="m1012 419.4c2.52-3.09 6.364-4.955 10.32-5.261 6.148-.5742 12.49 2.139 16.27 7.027.8583 1.071 1.617 2.216 2.41 3.334-2.341.947-4.905 1.53-6.862 3.223-1.313 1.013-2.153 2.501-3.444 3.535-.184-.706.5681-2.331.9371-3.325.7307-1.79 1.877-3.427 3.497-4.516.6407-.3958 1.848-1.375 2.227-1.247-.2895.697-.3596 2.239-.7907 2.39-2.333-2.512-5.219-4.508-8.455-5.664-3.433-1.261-7.199-1.656-10.82-1.13-1.568.2516-3.09.729-4.592 1.234-.1493.2489-.4514.3046-.7.4z" fill="#3e403e"/>
<path d="m929.9 473.2c1.736.9579 1.478 3.072.4077 4.429-5.67 10.34-14.56 18.78-24.91 24.37-.9212-3.09 1.075-6.019 2.807-8.402 4.752-6.278 9.221-12.79 13.06-19.68 1.049-2.225 2.044-5.073.6418-7.364-.4861-.7262-1.698-1.328-.1429-.898 2.586.4581 5.369 1.842 6.181 4.539.4116 1.136.9965 2.234 1.956 3z" fill="#4b74a3"/><g fill="#3e403e">
<path d="m907 456.7c-1.033 1.685-2.209 3.279-3.383 4.867-2.191 2.982-4.199 6.094-6.176 9.22-.6129.9043-1.131 1.877-1.84 2.713-.5229-2.165-.556-4.468.1164-6.605.6227-2.166 1.803-4.142 3.256-5.851 1.712-1.858 3.857-3.397 6.327-4.043.5565-.1498 1.121-.2968 1.701-.301z"/>
<path d="m831.5 390.7c2.247-.233 4.509-.2494 6.765-.2974 6.337.0728 12.66.7262 18.9 1.813.8117.1282 1.623.2563 2.435.3845-1.748 1.933-3.389 4.005-5.569 5.482-1.673 1.229-3.489 2.318-4.931 3.818-1.347 1.612-2.532 3.767-1.935 5.923.0893.4008.407.9322-.0902.3517-.9937-1.02-1.459-2.455-1.374-3.87.049-1.752.7485-3.448 1.762-4.854 1.252-1.66 2.823-3.035 4.376-4.406.7772-.7576 1.568-1.507 2.262-2.344.4333 1.133.8667 2.267 1.3 3.4-5.788-.7234-11.57-1.683-17.18-3.28-2.001-.6359-4.026-1.191-6.022-1.838-.2345-.0874-.4666-.1812-.6953-.2828z"/>
<path d="m884 298c.2842 7.273 3.391 13.97 5.695 20.75 1.628 5.301 3.098 10.96 1.992 16.51-.965 6.532-5.367 11.71-8.952 16.99-.5331.5746-2.099 4.086-1.458 1.691.7884-4.528 3.394-8.439 4.85-12.75 1.13-2.8 1.819-5.782 1.672-8.813-.0602-7.752-3.36-14.98-4.328-22.6-.6629-3.907-.7494-7.979.5291-11.78z"/>
</g>
<rect class="st149" transform="matrix(.3809 -.9246 .9246 .3809 351 1020)" x="936.2" y="241.7" width="1.4" height="12" fill="#e3988a"/>
<path class="st152" d="m958.7 157.6c-1.7-.2-6.4-.9-10.4 2.1-5 3.7-5 10.2-5 11.1 5.4-.1 12.7.6 17.3 5.6 3.4 3.8 2.9 7.4 5.6 14.6 3.3 8.8 8.1 14.6 12 19.1 4 4.7 10.9 11.7 21.8 17.6-12.8-13.1-17.2-24.8-18.8-33-1.8-8.9-.6-15.6-6.1-24.5-1.6-2.4-7.1-11.3-16.4-12.6z" fill="#70564a"/>
<path class="st152" d="m910.3 297.9c-6.2-6.7-3.6-13.1-8.4-16-10.6-6.3-34.6 17.2-36.3 15.2-1.2-1.3 10.6-9.9 18.6-25.3 6.5-12.5 7.8-24.5 9.5-40.1 1.6-14.8-.7-14.6 2-29.5 2.7-15 5-27.3 15.2-35.9.3-.2.5-.4.6-.5 2.2-1.8 13.9-11.3 23.2-7.7 7.2 2.8 9.5 12.1 9.9 13.8-2.9-.4-7.5-.4-10.7 2.4-3.8 3.5-3.5 9.6-3.4 12 .6 13.3-2.9 17.2-4.8 26.6-.8 4.2-1.1 7.6-1.1 15.6.2 25.1.3 37.7 3.4 47.6 5.3 17.3 13.3 22.7 10.1 27-3.7 5.1-19.8 3.5-27.8-5.2z" fill="#70564a"/>
</g>
</g></g></svg>
