<svg version="1.1" viewBox="0 0 300.6 165" xmlns="http://www.w3.org/2000/svg">
<style type="text/css">.custom-controls {
height: 64px;
fill: #fff;
}

.control-icon {
opacity: 0;
animation: icon-fade-in-out 4s ease-in-out infinite;
animation-fill-mode: forwards;
}

.stop {
animation-delay: .3s;
}

.play {
animation-delay: .5s;
}

.gamepad {
animation-delay: .7s;
padding: 0 0 0 20px;
}

@keyframes icon-fade-in-out {
0% {
opacity: 0;
}

10% {
opacity: 1;
}

80% {
opacity: 1;
}

90% {
opacity: 0;
}

100% {
opacity: 0;
}
}</style>
<defs>
<linearGradient id="linearGradient1446" x1="-143.8" x2="-24.94" y1="-101.1" y2="-70.58" gradientTransform="matrix(.391 0 0 .3962 80.31 55.36)" gradientUnits="userSpaceOnUse">
<stop stop-color="#965fbd" offset="0"/>
<stop stop-color="#965dad" offset="1"/>
</linearGradient>
<linearGradient id="linearGradient1438" x1="10.92" x2="-33.97" y1="40.16" y2="3.108" gradientTransform="matrix(.391 0 0 .3962 80.31 55.36)" gradientUnits="userSpaceOnUse">
<stop stop-color="#ffa92b" offset="0"/>
<stop stop-color="#965dad" offset="1"/>
</linearGradient>
<radialGradient id="radialGradient957" cx="3.96" cy="2.314" r="78.63" gradientTransform="matrix(-.5729 .2199 -.1729 -.4627 81.09 65.68)" gradientUnits="userSpaceOnUse">
<stop stop-color="#f8b741" offset="0"/>
<stop stop-color="#ae6b9f" offset="1"/>
</radialGradient>
<linearGradient id="linearGradient1060" x1="-148.2" x2="-25.39" y1="17.81" y2="-170.8" gradientTransform="matrix(.391 0 0 .3962 80.31 55.36)" gradientUnits="userSpaceOnUse">
<stop stop-color="#ebebeb" offset="0"/>
<stop stop-color="#c64dff" stop-opacity="0" offset="1"/>
</linearGradient>
</defs>
<rect x=".04851" y=".03292" width="300.5" height="164.9" fill="#567fa1" stroke-width=".9997" style="paint-order:stroke fill markers"/>
<g transform="matrix(.09869 0 0 .09949 357.2 -65.95)">
<g transform="translate(-5640 -49.7)">
<g transform="matrix(3.23 0 0 2.891 2636 758.9)" opacity=".19" stroke-width="5.611">
<path d="m354-8.212a64.39 70.41 0 00-64.39 70.41 64.39 70.41 0 0064.39 70.41 64.39 70.41 0 0064.39-70.41 64.39 70.41 0 00-64.39-70.41zm0 52.81a16.1 17.6 0 0116.1 17.6 16.1 17.6 0 01-16.1 17.6 16.1 17.6 0 01-16.1-17.6 16.1 17.6 0 0116.1-17.6z" opacity=".739" style=""/>
<path d="m342.6 49.76c.7087-.774 1.48-1.437 2.28-2.036l-12.67-51.71c-8.666 3.397-16.82 8.819-23.76 16.41-6.944 7.587-11.9 16.5-15 25.97l47.29 13.85c.5428-.8689 1.148-1.713 1.857-2.488z" opacity=".739" style=""/>
<path d="m367.8 76.81 12.2 49.77c7.083-3.415 13.74-8.226 19.54-14.57 6.724-7.352 11.59-15.94 14.72-25.08l-43.94-12.87c-1.529-.4516-2.93 1.08-2.517 2.758z" opacity=".739" style=""/>
</g>
<g transform="matrix(5.486 0 0 5.061 2461 831.4)" opacity=".25" stroke-width="5.611">
<path d="m354-8.212a64.39 70.41 0 00-64.39 70.41 64.39 70.41 0 0064.39 70.41 64.39 70.41 0 0064.39-70.41 64.39 70.41 0 00-64.39-70.41zm0 52.81a16.1 17.6 0 0116.1 17.6 16.1 17.6 0 01-16.1 17.6 16.1 17.6 0 01-16.1-17.6 16.1 17.6 0 0116.1-17.6z" opacity=".739" style=""/>
<path d="m342.6 49.76c.7087-.774 1.48-1.437 2.28-2.036l-12.67-51.71c-8.666 3.397-16.82 8.819-23.76 16.41-6.944 7.587-11.9 16.5-15 25.97l47.29 13.85c.5428-.8689 1.148-1.713 1.857-2.488z" opacity=".739" style=""/>
<path d="m367.8 76.81 12.2 49.77c7.083-3.415 13.74-8.226 19.54-14.57 6.724-7.352 11.59-15.94 14.72-25.08l-43.94-12.87c-1.529-.4516-2.93 1.08-2.517 2.758z" opacity=".739" style=""/>
</g>
<g transform="matrix(1 0 0 -1 -315.3 2139)">
<path d="m2548 1038-173.6 73.06c-5.634 2.371-12.14-.2776-14.55-5.902-2.41-5.634.2078-12.11 5.832-14.48l173.6-73.06c5.634-2.371 12.14.2777 14.55 5.902 2.406 5.625-.2077 12.11-5.832 14.48z" fill="#4e6c89"/>
<g transform="matrix(.9206 -.3874 .3937 .9206 -372.6 1232)" fill="#4e6c89">
<polygon points="2618 1201 2723 1201 2723 1127 2776 1127 2671 1002 2566 1127 2618 1127"/>
<rect x="2618" y="1216" width="105" height="18.64"/>
<rect x="2618" y="1249" width="105" height="7.56"/>
</g>
<g fill="#7296b4">
<g transform="matrix(.2349 .7383 .7648 -.2331 2829 680.3)">
<path d="m109.1-233.4-190.2 30.01 23.56 147.9 190.2-30.02zm-41.23 41.57 4.757 30.43-38.65 6.112-4.866-30.43zm-92.86 45.8-4.795-30.38 38.65-6.112 4.769 30.4zm-80 112.4 76.26 479.9c4.145 26.08 29.59 43.78 56.82 39.52l197.1-31.19c27.24-4.312 45.87-29.03 41.74-55.04l-76.22-479.8z" fill="#7296b4"/>
</g>
<g transform="matrix(.7564 .1851 .1822 -.774 3068 1056)">
<path d="m338.1-274.5-192.6-1.468-2.106 149.7 192.6 1.452zm-47.75 34.27-.5219 30.78-39.14-.286.4159-30.8zm-99.36 30.01.4769-30.75 39.14.286-.5069 30.77zm-98.08 97.75-7.017 485.8c-.3811 26.4 21.66 48.01 49.23 48.26l199.6 1.429c27.58.1967 50.18-21.14 50.55-47.47l7.043-485.6z" fill="#7296b4"/>
</g>
<g transform="matrix(.5185 .5789 .5976 -.5267 2821 898.1)">
<path d="m310.5-262.5-192.4 3.019 1.459 149.8 192.4-3.034zm-46.89 35.39.2114 30.81-39.11.6258-.3178-30.83zm-98.55 32.33-.2554-30.77 39.11-.6258.226 30.79zm-95.67 100.1 4.553 486.1c.2478 26.42 22.79 47.53 50.33 47.13l199.4-3.22c27.56-.446 49.63-22.32 49.38-48.67l-4.523-486z" fill="#7296b4"/>
</g>
</g>
<path d="m5177 1038 173.6 73.06c5.634 2.371 12.14-.2776 14.55-5.902 2.41-5.634-.2078-12.11-5.832-14.48l-173.6-73.06c-5.634-2.371-12.14.2777-14.55 5.902-2.406 5.625.2078 12.11 5.832 14.48z" fill="#49627b" opacity=".628"/>
<g transform="matrix(-.9206 -.3874 -.3937 .9206 8098 1232)" fill="#49627b" opacity=".628">
<polygon points="2723 1201 2723 1127 2776 1127 2671 1002 2566 1127 2618 1127 2618 1201"/>
<rect x="2618" y="1216" width="105" height="18.64"/>
<rect x="2618" y="1249" width="105" height="7.56"/>
</g>
</g>
<g fill="#fff">
<path d="m4516 2198c-1.69.03-3.15-1.24-3.32-2.95-.18-1.8 1.14-3.4 2.93-3.58 12.96-1.28 25.97-3.39 38.68-6.25 1.76-.4 3.51.71 3.91 2.47s-.71 3.51-2.47 3.91c-12.97 2.92-26.25 5.07-39.47 6.38-.08.01-.17.02-.26.02zm-52.79.87c-.09 0-.19 0-.28-.01-13.23-.87-26.59-2.57-39.7-5.05-1.78-.34-2.94-2.05-2.61-3.82.34-1.78 2.04-2.94 3.82-2.61 12.85 2.43 25.94 4.1 38.91 4.95 1.8.12 3.17 1.68 3.05 3.48-.1 1.71-1.51 3.02-3.19 3.06zm142.3-22.97c-1.32.03-2.57-.75-3.1-2.04-.68-1.67.13-3.58 1.8-4.26 12.07-4.9 23.97-10.59 35.37-16.92 1.58-.88 3.57-.31 4.45 1.27s.31 3.57-1.27 4.45c-11.63 6.46-23.77 12.27-36.09 17.26-.38.15-.78.23-1.16.24zm-232.5 4.02c-.39.01-.79-.05-1.18-.2-12.52-4.55-24.86-9.92-36.7-15.95-1.61-.82-2.25-2.79-1.43-4.4s2.79-2.25 4.4-1.43c11.6 5.91 23.7 11.17 35.96 15.63 1.7.62 2.58 2.49 1.96 4.19-.48 1.31-1.7 2.13-3.01 2.16zm312.1-50.41c-.99.02-1.97-.41-2.63-1.24-1.12-1.42-.88-3.48.54-4.6 10.23-8.1 20.07-16.9 29.22-26.17 1.27-1.28 3.34-1.3 4.63-.03s1.3 3.34.03 4.63c-9.34 9.46-19.38 18.44-29.82 26.7-.59.46-1.28.69-1.97.71zm63.44-66.9c-.67.01-1.36-.18-1.95-.6-1.48-1.04-1.82-3.09-.78-4.56 7.54-10.65 14.48-21.87 20.65-33.36.85-1.59 2.84-2.19 4.43-1.34s2.19 2.84 1.34 4.43c-6.29 11.72-13.38 23.18-21.07 34.05-.63.88-1.61 1.36-2.62 1.38zm41.93-82.11c-.37.01-.75-.05-1.12-.18-1.71-.58-2.62-2.44-2.04-4.15 4.19-12.29 7.68-25.02 10.38-37.82l.1-.49c.37-1.77 2.1-2.91 3.87-2.53 1.77.37 2.9 2.1 2.53 3.87l-.11.5c-2.75 13.06-6.31 26.04-10.59 38.58-.44 1.34-1.68 2.19-3.02 2.22zm17.19-91.09h-.21c-1.81-.08-3.2-1.61-3.13-3.41.3-6.74.38-13.57.25-20.3-.12-6.28-.44-12.64-.94-18.91-.14-1.8 1.2-3.38 3-3.52s3.38 1.2 3.52 3c.51 6.39.83 12.88.96 19.3.14 6.87.05 13.85-.25 20.72-.08 1.72-1.49 3.08-3.2 3.12zm-9.19-91.72c-1.49.03-2.86-.97-3.24-2.48-3.14-12.64-7.1-25.22-11.77-37.39-.65-1.69.2-3.58 1.88-4.23 1.69-.65 3.58.2 4.23 1.88 4.76 12.42 8.8 25.26 12 38.16.44 1.75-.63 3.53-2.39 3.96-.23.06-.47.09-.71.1zm-34.72-85.38c-1.15.02-2.27-.56-2.89-1.62-6.57-11.26-13.91-22.23-21.8-32.6-1.09-1.44-.81-3.49.62-4.59 1.44-1.09 3.49-.82 4.59.62 8.05 10.59 15.54 21.78 22.24 33.26.91 1.56.39 3.56-1.18 4.48-.5.29-1.04.44-1.58.45zm-57.3-72.23c-.83.02-1.66-.28-2.31-.9-9.48-8.97-19.6-17.44-30.09-25.17-1.45-1.07-1.76-3.12-.69-4.58s3.12-1.77 4.58-.69c10.7 7.89 21.03 16.53 30.71 25.69 1.31 1.24 1.37 3.31.13 4.63-.64.66-1.48 1-2.33 1.02zm-75.33-53.16c-.52.01-1.05-.1-1.55-.36-11.6-5.91-23.71-11.15-35.98-15.6-1.7-.62-2.58-2.49-1.96-4.19s2.49-2.58 4.19-1.96c12.52 4.54 24.87 9.9 36.71 15.92 1.61.82 2.25 2.79 1.43 4.4-.56 1.12-1.67 1.77-2.84 1.79z"/>
<path d="m3844 2305h-.15c-13.25-.43-26.64-1.24-39.81-2.42-2.52-.23-4.38-2.45-4.16-4.97s2.45-4.37 4.97-4.16c13 1.16 26.22 1.96 39.29 2.39 2.53.08 4.51 2.2 4.43 4.73-.07 2.47-2.11 4.43-4.57 4.43zm52.83-.28c-2.44 0-4.47-1.92-4.57-4.39-.11-2.53 1.85-4.66 4.38-4.77 13.08-.56 26.29-1.5 39.26-2.79 2.52-.26 4.76 1.59 5.01 4.1.25 2.52-1.59 4.76-4.1 5.01-13.15 1.31-26.53 2.26-39.78 2.83-.06.01-.13.01-.2.01zm-144.8-8.83c-.25 0-.5-.02-.76-.06-13.07-2.18-26.24-4.77-39.14-7.7-2.47-.56-4.01-3.01-3.46-5.48.56-2.47 3.02-4.01 5.48-3.46 12.73 2.89 25.73 5.44 38.62 7.6 2.5.42 4.18 2.78 3.76 5.27-.36 2.24-2.3 3.83-4.5 3.83zm236.6-1.23c-2.18 0-4.11-1.56-4.51-3.78-.44-2.49 1.22-4.87 3.71-5.31 12.87-2.29 25.83-4.98 38.54-8 2.46-.58 4.93.94 5.52 3.4s-.94 4.93-3.4 5.52c-12.88 3.06-26.02 5.79-39.06 8.11-.27.04-.54.06-.8.06zm-326.5-20.07c-.45 0-.9-.07-1.35-.21-12.67-3.92-25.4-8.26-37.83-12.91-2.37-.89-3.57-3.53-2.69-5.9.89-2.37 3.53-3.57 5.9-2.69 12.27 4.59 24.83 8.87 37.33 12.74 2.42.75 3.77 3.31 3.02 5.73-.61 1.98-2.43 3.24-4.38 3.24zm416.2-2.17c-1.94 0-3.74-1.24-4.36-3.18-.77-2.41.55-4.99 2.96-5.76 12.43-3.99 24.92-8.4 37.12-13.1 2.36-.91 5.01.27 5.92 2.63s-.27 5.01-2.63 5.92c-12.36 4.77-25.02 9.24-37.62 13.28-.46.14-.93.21-1.39.21zm-502.6-31.06c-.65 0-1.3-.14-1.93-.43-12.02-5.58-24.04-11.59-35.73-17.86-2.23-1.2-3.07-3.97-1.87-6.2s3.97-3.07 6.2-1.87c11.53 6.19 23.4 12.12 35.26 17.62 2.3 1.07 3.29 3.79 2.23 6.08-.78 1.68-2.43 2.66-4.16 2.66zm588.4-3c-1.71 0-3.35-.96-4.14-2.61-1.09-2.28-.12-5.02 2.16-6.11 11.77-5.61 23.54-11.65 34.98-17.93 2.22-1.22 5-.41 6.22 1.81s.41 5-1.81 6.22c-11.59 6.37-23.52 12.48-35.45 18.17-.63.3-1.3.45-1.96.45zm-669.5-41.49c-.84 0-1.7-.23-2.46-.72-11.16-7.14-22.27-14.69-33.01-22.45-2.05-1.48-2.51-4.35-1.03-6.4s4.35-2.51 6.4-1.03c10.6 7.66 21.56 15.12 32.57 22.16 2.13 1.36 2.76 4.2 1.39 6.33-.87 1.37-2.35 2.11-3.86 2.11zm750-3.74c-1.5 0-2.96-.73-3.84-2.08-1.38-2.12-.79-4.96 1.33-6.34 10.92-7.13 21.79-14.69 32.31-22.45 2.04-1.5 4.9-1.07 6.41.97 1.5 2.04 1.07 4.9-.97 6.41-10.66 7.86-21.67 15.52-32.74 22.75-.77.5-1.64.74-2.5.74zm-824.4-51.13c-1.05 0-2.1-.36-2.96-1.08-10.11-8.55-20.11-17.51-29.72-26.62-1.84-1.74-1.91-4.64-.17-6.48s4.64-1.91 6.48-.17c9.48 8.99 19.35 17.83 29.33 26.28 1.93 1.63 2.17 4.52.54 6.46-.9 1.06-2.2 1.61-3.5 1.61zm898.2-4.43c-1.29 0-2.56-.54-3.47-1.59-1.65-1.92-1.44-4.81.48-6.46 9.89-8.53 19.67-17.47 29.06-26.55 1.82-1.76 4.72-1.71 6.48.11s1.71 4.72-.11 6.48c-9.52 9.21-19.42 18.26-29.45 26.9-.86.75-1.93 1.11-2.99 1.11zm-964.7-59.81c-1.25 0-2.49-.51-3.4-1.51-8.89-9.81-17.61-20.01-25.92-30.31-1.59-1.97-1.28-4.85.69-6.44s4.85-1.28 6.44.69c8.2 10.16 16.81 20.23 25.58 29.91 1.7 1.88 1.56 4.77-.32 6.47-.87.8-1.97 1.19-3.07 1.19zm1031-5.07c-1.08 0-2.17-.38-3.04-1.16-1.89-1.68-2.06-4.58-.38-6.47 8.68-9.78 17.19-19.93 25.3-30.18 1.57-1.98 4.45-2.32 6.44-.75 1.98 1.57 2.32 4.45.75 6.43-8.21 10.39-16.84 20.68-25.63 30.58-.92 1.03-2.17 1.55-3.44 1.55zm-1088-67.38c-1.46 0-2.89-.69-3.78-1.98-7.5-10.9-14.79-22.16-21.65-33.46-1.31-2.16-.62-4.98 1.54-6.29s4.98-.62 6.29 1.54c6.77 11.16 13.96 22.27 21.37 33.02 1.43 2.08.91 4.94-1.18 6.37-.79.54-1.69.8-2.59.8zm1144-5.67c-.88 0-1.77-.25-2.56-.78-2.1-1.41-2.65-4.26-1.24-6.36 7.31-10.85 14.4-22.05 21.07-33.29 1.29-2.18 4.1-2.89 6.28-1.6s2.89 4.1 1.6 6.28c-6.76 11.39-13.94 22.74-21.35 33.73-.88 1.31-2.33 2.02-3.8 2.02zm-1192-73.72c-1.67 0-3.28-.92-4.09-2.51-5.98-11.79-11.69-23.91-16.98-36.03-1.01-2.32.05-5.02 2.36-6.03 2.32-1.01 5.02.05 6.03 2.36 5.22 11.95 10.86 23.91 16.76 35.55 1.14 2.26.24 5.01-2.01 6.16-.66.34-1.37.5-2.07.5zm1238-6.25c-.68 0-1.37-.15-2.03-.48-2.27-1.12-3.2-3.87-2.08-6.14 5.8-11.73 11.33-23.79 16.44-35.83.99-2.33 3.67-3.42 6.01-2.43 2.33.99 3.42 3.68 2.43 6.01-5.18 12.2-10.78 24.42-16.66 36.31-.8 1.62-2.42 2.56-4.11 2.56zm-1274-78.68c-1.9 0-3.67-1.19-4.33-3.08-4.35-12.5-8.39-25.3-12.02-38.04-.69-2.43.72-4.97 3.15-5.66s4.97.72 5.66 3.15c3.58 12.57 7.57 25.2 11.86 37.53.83 2.39-.43 5-2.82 5.83-.49.19-1 .27-1.5.27zm1310-6.83c-.48 0-.98-.08-1.46-.24-2.4-.81-3.69-3.4-2.88-5.8 4.16-12.38 8.02-25.05 11.46-37.66.67-2.44 3.19-3.88 5.63-3.21s3.88 3.19 3.21 5.63c-3.49 12.77-7.4 25.61-11.62 38.16-.64 1.91-2.43 3.12-4.34 3.12zm-1334-82.29c-2.13 0-4.04-1.5-4.49-3.67-2.63-12.97-4.92-26.19-6.81-39.3-.36-2.5 1.38-4.83 3.88-5.19s4.83 1.38 5.19 3.88c1.86 12.94 4.12 25.99 6.72 38.78.5 2.48-1.1 4.9-3.58 5.4-.3.07-.61.1-.91.1zm1357-7.08c-.29 0-.58-.03-.87-.08-2.48-.48-4.11-2.88-3.63-5.36 2.46-12.82 4.59-25.9 6.31-38.85.33-2.51 2.63-4.27 5.15-3.94 2.51.33 4.27 2.64 3.94 5.15-1.75 13.13-3.9 26.38-6.4 39.37-.43 2.19-2.35 3.71-4.5 3.71zm-1370-84.49c-2.39 0-4.4-1.86-4.57-4.28-.88-13.19-1.4-26.6-1.53-39.86-.03-2.53 2-4.6 4.53-4.63h.05c2.51 0 4.55 2.02 4.58 4.53.13 13.09.64 26.33 1.51 39.34.17 2.52-1.74 4.71-4.27 4.88-.1.01-.2.02-.3.02zm1381-7.21c-.09 0-.17 0-.26-.01-2.53-.14-4.46-2.31-4.32-4.83.74-13.02 1.11-26.26 1.11-39.35v-1.29c0-2.53 2.04-4.58 4.57-4.59h.01c2.53 0 4.58 2.05 4.58 4.57v1.31c0 13.25-.38 26.66-1.12 39.86-.14 2.44-2.16 4.33-4.57 4.33zm-1381-85.2c-.1 0-.2 0-.3-.01-2.52-.16-4.44-2.34-4.27-4.87.86-13.23 2.11-26.59 3.72-39.71.31-2.51 2.59-4.3 5.1-3.99s4.3 2.59 3.99 5.1c-1.59 12.95-2.82 26.14-3.67 39.19-.16 2.43-2.18 4.29-4.57 4.29zm1380-8.49c-2.37 0-4.38-1.83-4.56-4.23-1.01-13.05-2.41-26.22-4.15-39.14-.34-2.51 1.42-4.81 3.93-5.15s4.82 1.42 5.15 3.93c1.77 13.1 3.19 26.44 4.21 39.66.19 2.52-1.69 4.73-4.21 4.92-.13 0-.25.01-.37.01zm-1368-83.11c-.3 0-.6-.03-.91-.09-2.48-.5-4.09-2.91-3.59-5.39 2.61-12.98 5.64-26.06 8.99-38.86.64-2.45 3.15-3.91 5.59-3.27 2.45.64 3.91 3.14 3.27 5.59-3.31 12.63-6.29 25.54-8.87 38.35-.43 2.17-2.34 3.67-4.48 3.67zm24.27-89.16c-.5 0-1-.08-1.5-.25-2.39-.83-3.66-3.44-2.83-5.83 4.34-12.53 9.1-25.11 14.16-37.37.96-2.34 3.64-3.46 5.98-2.49 2.34.96 3.45 3.64 2.49 5.98-4.99 12.11-9.69 24.51-13.97 36.88-.66 1.89-2.43 3.08-4.33 3.08zm36.07-85.2c-.69 0-1.4-.16-2.06-.49-2.26-1.14-3.16-3.9-2.02-6.16 5.97-11.83 12.38-23.64 19.03-35.11 1.27-2.19 4.07-2.93 6.26-1.67 2.19 1.27 2.94 4.07 1.67 6.26-6.56 11.32-12.88 22.98-18.77 34.65-.82 1.6-2.44 2.52-4.11 2.52zm47.13-79.57c-.89 0-1.8-.26-2.59-.8-2.09-1.43-2.62-4.28-1.18-6.37 7.5-10.92 15.41-21.77 23.52-32.25 1.55-2 4.43-2.37 6.43-.82s2.37 4.43.82 6.43c-8.01 10.34-15.82 21.05-23.21 31.82-.89 1.29-2.33 1.99-3.79 1.99zm57.29-72.57c-1.1 0-2.19-.39-3.07-1.18-1.88-1.7-2.02-4.59-.33-6.47 8.88-9.83 18.16-19.52 27.58-28.83 1.8-1.78 4.7-1.76 6.48.04s1.76 4.7-.04 6.48c-9.3 9.18-18.46 18.75-27.22 28.45-.91 1-2.15 1.51-3.4 1.51zm66.37-64.3c-1.3 0-2.59-.55-3.5-1.62-1.64-1.93-1.4-4.82.53-6.46 10.1-8.56 20.57-16.94 31.14-24.91 2.02-1.52 4.89-1.12 6.42.9 1.52 2.02 1.12 4.89-.9 6.42-10.43 7.86-20.77 16.13-30.73 24.58-.86.73-1.91 1.09-2.96 1.09zm74.29-54.92c-1.51 0-2.99-.74-3.86-2.11-1.37-2.13-.75-4.96 1.38-6.33 11.14-7.14 22.63-14.05 34.15-20.54 2.21-1.24 5-.46 6.24 1.74s.46 5-1.74 6.24c-11.37 6.4-22.71 13.22-33.7 20.27-.77.49-1.62.73-2.47.73zm570.6-80.29c-.43 0-.87-.06-1.31-.19-12.52-3.73-25.32-7.14-38.03-10.14-2.46-.58-3.99-3.05-3.41-5.51s3.05-3.99 5.51-3.41c12.89 3.04 25.86 6.5 38.54 10.28 2.42.72 3.81 3.27 3.08 5.7-.58 1.98-2.41 3.27-4.38 3.27z"/>
<g fill="#fff">
<g fill="#fff">
<polygon points="4614 1985 4606 2010 4584 1991 4525 1942 4662 1827" fill="#fff"/>
</g>
<g fill="#fff">
<g fill="#fff">
<g fill="#fff">
<polygon points="4416 1899 4662 1827 4493 1924" fill="#fff"/>
</g>
</g>
</g>
<g fill="#fff">
<polygon points="4493 1924 4662 1827 4525 1942 4499 1995" fill="#fff"/>
</g>
</g>
</g>
<path d="m3115 1153-325.8 2.82c-18.83.163-35.71 5.723-47.55 18.14-11.85 12.42-18.07 30.97-17.99 55.14l1.26 376 15.14-.051-1.262-376c-.072-21.59 5.304-35.73 13.8-44.64 8.498-8.91 20.72-13.32 36.73-13.46l325.8-2.818z" color="#000000" color-rendering="auto" dominant-baseline="auto" fill="#567fa1" image-rendering="auto" shape-rendering="auto" solid-color="#000000" style="font-feature-settings:normal;font-variant-alternates:normal;font-variant-caps:normal;font-variant-ligatures:normal;font-variant-numeric:normal;font-variant-position:normal;isolation:auto;mix-blend-mode:normal;shape-padding:0;text-decoration-color:#000000;text-decoration-line:none;text-decoration-style:solid;text-indent:0;text-orientation:mixed;text-transform:none;white-space:normal"/>
<path d="m3492 2288v46.25h107c85.87 0 155.5-69.61 155.5-155.5v-161.9h-262.4v271.2z" fill="#545785"/>
<path d="m3351 2017v157.3c0 62.88-50.97 113.8-113.8 113.8h356.9c62.88 0 113.8-50.97 113.8-113.8v-157.3z" fill="#393c5c"/>
<rect x="3076" y="2288" width="415.1" height="46.25" fill="#343653"/>
<rect x="3351" y="2115" width="403.2" height="48.54" fill="#393c5c" opacity=".5"/>
<path d="m4240 2115h-1363c-29.73 0-53.84-24.1-53.84-53.84v-840.5c0-29.73 24.1-53.84 53.84-53.84h1363c29.73 0 53.84 24.1 53.84 53.84v840.5c0 29.74-24.1 53.84-53.84 53.84z" fill="#545785"/>
<path d="m4206 1221v840.5c0 29.73-24.11 53.84-53.84 53.84h-1363c-29.73 0-53.84-24.11-53.84-53.84v-840.5c0-29.73 24.11-53.84 53.84-53.84h1363c29.73 0 53.84 24.11 53.84 53.84z" fill="#343653"/>
<path d="m4126 1961h-1310c-19.22 0-34.8-15.58-34.8-34.8v-676.6c0-19.22 15.58-34.8 34.8-34.8h1310c19.22 0 34.8 15.58 34.8 34.8v676.6c0 19.22-15.58 34.8-34.8 34.8z" fill="#e7f1f8"/>
<path d="m4161 1287h-1380v-35.81c0-20.05 16.26-36.31 36.31-36.31h1305c21.01 0 38.05 17.03 38.05 38.05v34.07z" fill="#8184af"/>
<g transform="translate(1196)" fill="#fff">
<circle transform="matrix(.2298 -.9732 .9732 .2298 955.4 3715)" cx="2825" cy="1254" r="11.55"/>
<circle transform="matrix(.2298 -.9732 .9732 .2298 985.4 3753)" cx="2864" cy="1254" r="11.55"/>
<circle transform="matrix(.2298 -.9732 .9732 .2298 1015 3791)" cx="2903" cy="1254" r="11.55"/>
</g>
<path d="m4127 1967h-1310c-22.8 0-41.35-18.55-41.35-41.35v-676.6c0-22.8 18.55-41.35 41.35-41.35h1310c22.8 0 41.35 18.55 41.35 41.35v676.6c0 22.8-18.55 41.35-41.35 41.35zm-1310-746.3c-15.58 0-28.26 12.68-28.26 28.26v676.6c0 15.58 12.68 28.26 28.26 28.26h1310c15.58 0 28.26-12.68 28.26-28.26v-676.6c0-15.58-12.68-28.26-28.26-28.26z" fill="#24254b"/>
<path d="m3558 2054h-172.8c-10.12 0-18.33-8.2-18.33-18.33 0-10.12 8.2-18.33 18.33-18.33h172.8c10.12 0 18.33 8.2 18.33 18.33-.01 10.13-8.21 18.33-18.33 18.33z" fill="#7b95b7"/>
<g transform="matrix(10.91 0 0 11.33 -1695 -789.7)">
<g id="a_laptop" transform="matrix(.09018 0 0 .0918 25.19 17.4)">
<g transform="matrix(.6495 0 0 .6561 4045 1703)">
<path d="m1950 1061h-1067c-54.52 0-98.73-43.65-98.73-97.5v-246.6c0-53.84 44.2-97.5 98.73-97.5h1067c54.52 0 98.73 43.65 98.73 97.5v246.6c.011 53.85-44.19 97.5-98.72 97.5z" fill="#dadaf0" stroke-width="1.078"/>
<rect x="833.1" y="840" width="1167" height="117.4" fill="#e2e2e2" stroke-width="1.078"/>
<g transform="matrix(1.085 0 0 1.072 -104.6 165.4)" fill="#32c95c">
<rect x="865.3" y="629.6" width="804.9" height="109.6"/>
<rect class="control-icon stop" x="1683" y="629.6" width="37.38" height="109.6"/>
<rect class="control-icon stop" x="1736" y="629.6" width="37.38" height="109.6"/>
<rect class="control-icon play" x="1791" y="629.6" width="37.38" height="109.6"/>
</g>
<g transform="matrix(1.085 0 0 1.072 -104.6 165.4)" fill="#0088a2">
<path d="m1547 683.2c2.953 1.09 5.399 3.699 5.655 6.925.6492 4.993.7668 10.12-.041 15.1-.5297 4.429-4.347 7.643-8.468 8.742-4.668 1.173-9.706 1.211-14.34-.1274-4.135-1.263-7.605-4.809-8.156-9.185-.8107-5.334-.763-10.85.319-16.14.1678-2.492 3.595-4.367 4.296-5.481-3.985-2.074-4.869-7.063-4.677-11.15.022-4.373 1.935-9.061 6.018-11.11 4.684-2.383 10.22-2.258 15.29-1.439 3.424.5604 6.731 2.531 8.181 5.788 1.854 3.946 1.992 8.571 1.082 12.78-.6367 2.553-2.996 4.096-5.152 5.294zm-7.29 10.85c-.051-1.827.1274-4.842-2.3-5.114-2.497-.4113-2.902 2.529-2.821 4.357.049 3.633-.1767 7.284.1981 10.9-.08 2.173 2.99 3.213 4.285 1.575.9941-2.462.5315-5.216.6383-7.823v-3.896zm-.27-22.42c.1833-1.942-.2404-5.15-2.943-4.43-2.032.6628-1.54 3.267-1.657 4.963.1071 2.312-.3247 4.735.53 6.938 1.66 2.331 4.728-.0229 4.04-2.459.056-1.669.019-3.34.03-5.011z"/>
<path d="m1595 678.2c-.047 7.474.1085 14.95-.1096 22.42-.068 3.616-.969 7.379-3.586 10.03-3.748 4.185-9.832 4.646-15.08 4.088-4.148-.3212-8.439-2.157-10.56-5.921-2.864-4.328-2.341-9.707-2.418-14.65.049-6.743-.1174-13.49.1257-20.23.2574-4.164.9218-8.875 4.501-11.57 4.748-3.782 11.45-4.157 17.12-2.566 4.014 1.178 7.758 3.99 9.009 8.121 1.029 3.312.9322 6.855.9984 10.29zm-13.46-4.53c-.2592-2.004.5081-4.669-1.118-6.19-2.181-1.196-3.939 1.044-3.621 3.129-.1898 7.055-.048 14.12-.092 21.17.071 4.384-.1907 8.786.2531 13.15.2848 2.673 4.794 1.983 4.402-.6903.3437-4.792.1214-9.607.1851-14.41-.01-5.385.013-10.8-.01-16.16z"/>
<path d="m1623 669.1c-.087 4.363.2215 8.75-.2671 13.09-.427 4.025-4.74 6.093-8.39 6.107-3.816.2107-8.571-.4905-10.41-4.339-1.24-3.455-.6333-7.191-.78-10.79.141-3.642-.554-7.587 1.321-10.89 2.722-3.537 7.792-3.806 11.85-3.065 3.216.5869 6.33 3.06 6.484 6.522.1529 1.112.1986 2.236.2 3.358zm-8.53-2.36c.8475-1.903-1.401-4.624-2.688-2.236-.3061 4.145-.084 8.321-.1519 12.48.067 2.047-.1768 4.132.23 6.147 2.321 1.803 2.954-1.543 2.6-3.281.01-4.366-.013-8.759.01-13.11zm24.22-7.86c-7.027 18.66-14.05 37.33-21.08 55.99h-5.13c7.053-18.66 14.11-37.33 21.16-55.99zm9.32 36.27c-.074 4.259.1851 8.535-.2165 12.78-.2411 4.005-4.355 6.329-8.006 6.423-3.822.2681-8.473-.2917-10.63-3.91-1.521-3.326-.8445-7.077-.998-10.62.1388-3.681-.5013-7.571 1.046-11.03 2.425-3.869 7.653-4.294 11.75-3.628 3.229.4926 6.545 2.807 6.805 6.299.1908 1.219.2429 2.455.245 3.688zm-8.52-2.33c.8418-1.881-1.381-4.687-2.661-2.274-.2831 4.446-.076 8.916-.1392 13.37.1191 1.803-.3214 3.773.3936 5.445 2.569 1.335 2.538-1.971 2.396-3.64.01-4.298-.013-8.623.01-12.9z"/>
</g>
<g transform="matrix(2.471 0 0 2.496 -505.7 36.19)" fill="#123e4f" aria-label="ЗАГРУЗКА">
<path d="m673.4 289.6c.1004 3.633-2.007 7.176-5.278 8.78-4.611 2.486-10.04 2.504-15.13 2.127-3.111-.3121-6.19-1.001-9.121-2.095v-7.875c1.326-.1843 2.284 1.022 3.48 1.406 2.999 1.37 6.25 2.488 9.598 2.173 2.526-.1317 5.562-.7813 6.762-3.272.7113-1.965.3618-4.816-1.833-5.667-2.746-.9557-5.7-.5506-8.555-.6401h-2.632v-6.234c2.849-.0511 5.708.1264 8.547-.145 1.741-.1186 3.73-1.164 3.812-3.115.3252-1.438-.5199-2.947-1.94-3.375-4.291-1.493-9.019-.4568-13.04 1.361-.9925.3986-1.903 1.198-3.027 1.032v-7.336c6.476-2.22 13.59-3.079 20.31-1.504 3.121.7566 6.418 2.835 6.988 6.235.6902 3.303-1.093 6.777-4.027 8.364-.7009.774-2.515.5483-2.783 1.436 3.144.4832 6.366 2.284 7.453 5.43.3195.9347.4203 1.93.4219 2.914z"/>
<path d="m712.7 300h-9.305l-2.414-7.055h-12.94l-2.414 7.055h-9.07l12.89-34.9h10.36zm-13.9-13.45-4.289-12.52-4.289 12.52z"/>
<path d="m742.9 271.8h-16.17v28.15h-9v-34.9h25.17z"/>
<path d="m777.1 276.1c.0234 3.756-1.621 7.609-4.798 9.749-2.913 2.298-6.713 2.888-10.32 2.767h-4.685v11.37h-9v-34.9c5.534.0259 11.07-.0548 16.6.0464 4.071.1648 8.593 1.559 10.79 5.263 1.039 1.707 1.423 3.728 1.416 5.707zm-9.305.2109c.0991-2.289-1.869-4.147-4.037-4.465-2.133-.3512-4.308-.2145-6.463-.2461v10.45c2.688-.0691 5.522.2965 8.034-.8525 1.83-.8844 2.529-2.978 2.466-4.89z"/>
<path d="m814.2 265.1c-4.383 9.592-8.707 19.21-13.13 28.79-1.626 3.404-4.999 5.99-8.821 6.228-3.021.2579-6.06.0211-9.082-.1157v-7.617c1.573.1049 3.135.5359 4.734.4453 1.844-.0761 4.05-.0261 5.432-1.44.1136-.5805-.5478-1.167-.7543-1.75-4.442-8.179-8.884-16.36-13.33-24.54h9.773c2.891 5.516 5.781 11.03 8.672 16.55 2.383-5.516 4.766-11.03 7.148-16.55 3.117-2e-5 6.234-3e-5 9.352-5e-5z"/>
<path d="m845.7 289.6c.1004 3.633-2.007 7.176-5.278 8.78-4.611 2.486-10.04 2.504-15.13 2.127-3.111-.3121-6.19-1.001-9.121-2.095v-7.875c1.326-.1843 2.284 1.022 3.48 1.406 2.999 1.37 6.25 2.488 9.598 2.173 2.526-.1317 5.562-.7813 6.762-3.272.7113-1.965.3618-4.816-1.833-5.667-2.746-.9557-5.7-.5506-8.555-.6401h-2.632v-6.234c2.849-.0511 5.708.1264 8.547-.145 1.741-.1186 3.73-1.164 3.812-3.115.3252-1.438-.5199-2.947-1.94-3.375-4.291-1.493-9.019-.4568-13.04 1.361-.9925.3986-1.903 1.198-3.027 1.032v-7.336c6.476-2.22 13.59-3.079 20.31-1.504 3.121.7566 6.418 2.835 6.988 6.235.6902 3.303-1.093 6.777-4.027 8.364-.7009.774-2.515.5483-2.783 1.436 3.144.4832 6.366 2.284 7.453 5.43.3195.9347.4203 1.93.4219 2.914z"/>
<path d="m885.3 300h-11.04c-3.438-4.695-6.875-9.391-10.31-14.09h-2.203v14.09h-9v-34.9h9v14.23c1.676.0577 3.362-.6005 4.343-2.005 2.896-3.514 3.935-8.498 7.914-11.1 2.832-1.58 6.177-1.144 9.282-1.124v7.57c-1.998.0886-4.367-.4347-5.869 1.254-2.25 2.455-2.866 6.207-5.78 8.074 4.555 6 9.109 12 13.66 18z"/>
<path d="m922.1 300h-9.305l-2.414-7.055h-12.94l-2.414 7.055h-9.07l12.89-34.9h10.36zm-13.9-13.45-4.289-12.52-4.289 12.52z"/>
</g>
<rect x="911.4" y="340.2" width="162.1" height="110.9" rx="12.88" ry="6.32" fill="#fff" stroke-width="4.132" style="paint-order:fill markers stroke"/>
<g transform="matrix(4.377 0 0 3.987 751.7 210)">
<path d="m54.57 3.753c-22.13.01382-40.06 18.24-40.05 40.72.0048 11.23 4.484 21.39 11.72 28.75l24.88-25.32c-2.92-2.195-1.792-5.567-.8892-6.914 1.403-2.095 6.008-2.504 7.724-.03424l24.93-25.36c-7.254-7.335-17.27-11.86-28.32-11.85z" fill="url(#linearGradient1446)" style="paint-order:fill markers stroke"/>
<path d="m82.89 15.6-.05714-.0161-2.942 2.865.07365.1272-22.01 22.39c3.597 1.848 1.819 6.244.686 7.609-1.494 1.8-5.683 2.816-7.521-.6602l-21.89 22.28-.09148-.08032-3.022 2.931.1254.1894c7.195 7.377 17.14 11.97 28.36 11.97 22.13-.0046 40.07-18.23 40.07-40.71v-.03405c-.0092-11.4-4.509-21.56-11.78-28.86z" fill="url(#linearGradient1438)" style="paint-order:fill markers stroke"/>
<path d="m79.96 18.57-21.65 22.03c4.967 5.044-1.985 12.85-7.481 7.613l-21.59 21.97c6.489 6.562 15.53 10.67 25.49 10.67 19.88-.0041 36-16.28 36-36.35v-.02941c-.0082-10.14-4.242-19.36-10.76-25.89z" fill="url(#radialGradient957)" style="paint-order:fill markers stroke"/>
<path d="m54.47 7.905c-19.88.00421-36 16.28-36 36.35v.03019c.0082 10.14 4.242 19.36 10.76 25.89l21.86-22.24c-3.045-2.974-2.05-5.007-.4297-6.923 1.64-1.939 3.943-3.722 7.314-.07117l21.98-22.38c-6.489-6.562-15.53-10.67-25.49-10.67z" fill="url(#linearGradient1060)" style="paint-order:fill markers stroke"/>
<path d="m54.63 32.22c-6.772.0045-12.26 5.54-12.26 12.36.0032 6.825 5.495 12.36 12.27 12.35 6.772-.0016 12.26-5.535 12.26-12.36v-.01006c-.0057-6.825-5.5-12.35-12.27-12.35zm6.957 12.86c-1.305 10.39-12.66 7.975-14.31.2541 3.041-12.42 13.54-8.593 14.31-.2541z" fill="#fff" style="paint-order:fill markers stroke"/>
</g>
<path d="m1021 389.7a30.13 27.67 0 01-30.12 27.67 30.13 27.67 0 01-30.13-27.65 30.13 27.67 0 0130.11-27.67 30.13 27.67 0 0130.14 27.64" fill="none" stroke="#2d2d2d" stroke-linecap="round" stroke-width="17.09" style="paint-order:fill markers stroke"/>
<g transform="matrix(4.273 0 0 3.995 760.6 210)" fill="#123e4f" stroke-width="3.841" aria-label="UltraISO">
<path d="m130.5 48.42q0 3.646-.8102 6.369-.7877 2.701-2.611 4.501-1.733 1.71-4.051 2.498-2.318.7877-5.401.7877-3.151 0-5.491-.8327t-3.938-2.453q-1.823-1.845-2.633-4.456-.7877-2.611-.7877-6.414v-20.05h4.456v20.28q0 2.723.3601 4.298.3826 1.575 1.26 2.858.9902 1.463 2.678 2.205 1.71.7427 4.096.7427 2.408 0 4.096-.7201 1.688-.7427 2.701-2.228.8777-1.283 1.238-2.926.3826-1.665.3826-4.118v-20.39h4.456z"/>
<path d="m143 61.88h-4.231v-35.02h4.231z"/>
<path d="m164.4 61.65q-1.193.3151-2.611.5176-1.395.2025-2.498.2025-3.848 0-5.851-2.07t-2.003-6.639v-13.37h-2.858v-3.556h2.858v-7.224h4.231v7.224h8.732v3.556h-8.732v11.45q0 1.98.09 3.106.09 1.103.6301 2.07.4951.9002 1.35 1.328.8777.4051 2.656.4051 1.035 0 2.16-.2926 1.125-.3151 1.62-.5176h.225z"/>
<path d="m185.3 41.35h-.225q-.9452-.225-1.845-.3151-.8777-.1125-2.093-.1125-1.958 0-3.781.8777-1.823.8552-3.511 2.228v17.85h-4.231v-25.14h4.231v3.713q2.521-2.025 4.433-2.858 1.935-.8552 3.938-.8552 1.103 0 1.598.06751.4951.04501 1.485.2025z"/>
<path d="m208 61.88h-4.208v-2.678q-.5626.3826-1.53 1.08-.9452.6751-1.845 1.08-1.058.5176-2.43.8552-1.373.3601-3.218.3601-3.398 0-5.761-2.25t-2.363-5.739q0-2.858 1.215-4.613 1.238-1.778 3.511-2.791 2.295-1.013 5.514-1.373 3.218-.3601 6.909-.5401v-.6526q0-1.44-.5176-2.385-.4951-.9452-1.44-1.485-.9002-.5176-2.16-.6976-1.26-.18-2.633-.18-1.665 0-3.713.4501-2.048.4276-4.231 1.26h-.225v-4.298q1.238-.3376 3.578-.7427t4.613-.4051q2.656 0 4.613.4501 1.98.4276 3.421 1.485 1.418 1.035 2.16 2.678.7426 1.643.7426 4.073zm-4.208-6.189v-6.999q-1.935.1125-4.568.3376-2.611.225-4.141.6526-1.823.5176-2.948 1.62-1.125 1.08-1.125 2.993 0 2.16 1.305 3.263 1.305 1.08 3.983 1.08 2.228 0 4.073-.8552 1.845-.8777 3.421-2.093z"/>
<path d="m228.4 61.88h-13.23v-3.421h4.388v-26.67h-4.388v-3.421h13.23v3.421h-4.388v26.67h4.388z"/>
<path d="m260.3 52.31q0 1.958-.9227 3.871-.9002 1.913-2.543 3.241-1.8 1.44-4.208 2.25-2.385.8102-5.761.8102-3.623 0-6.526-.6751-2.881-.6751-5.874-2.003v-5.581h.3151q2.543 2.115 5.874 3.263t6.256 1.148q4.141 0 6.436-1.553 2.318-1.553 2.318-4.141 0-2.228-1.103-3.286-1.08-1.058-3.308-1.643-1.688-.4501-3.668-.7427-1.958-.2926-4.163-.7427-4.456-.9452-6.616-3.218-2.138-2.295-2.138-5.964 0-4.208 3.556-6.886 3.556-2.701 9.024-2.701 3.533 0 6.481.6751t5.221 1.665v5.266h-.3151q-1.913-1.62-5.041-2.678-3.106-1.08-6.369-1.08-3.578 0-5.761 1.485-2.16 1.485-2.16 3.826 0 2.093 1.08 3.286t3.803 1.823q1.44.3151 4.096.7652t4.501.9227q3.736.9902 5.626 2.993 1.89 2.003 1.89 5.604z"/>
<path d="m292.5 32.22q2.048 2.25 3.128 5.514 1.103 3.263 1.103 7.404t-1.125 7.427q-1.103 3.263-3.106 5.446-2.07 2.273-4.906 3.421-2.813 1.148-6.436 1.148-3.533 0-6.436-1.17-2.881-1.17-4.906-3.398t-3.128-5.469q-1.08-3.241-1.08-7.404 0-4.096 1.08-7.336 1.08-3.263 3.151-5.581 1.98-2.205 4.906-3.376 2.948-1.17 6.414-1.17 3.601 0 6.459 1.193 2.881 1.17 4.884 3.353zm-.4051 12.92q0-6.526-2.926-10.06-2.926-3.556-7.989-3.556-5.109 0-8.034 3.556-2.903 3.533-2.903 10.06 0 6.594 2.971 10.1 2.971 3.488 7.967 3.488t7.944-3.488q2.971-3.511 2.971-10.1z"/>
</g>
</g>
</g>
</g>
<g transform="translate(-84.75 -14.43)" fill="#fff">
<g transform="matrix(.7809 0 0 .828 535 396.8)">
<g fill="#fff">
<path d="m2463 2037c-1.74 0-3.15-1.41-3.15-3.14 0-1.74 1.41-3.14 3.15-3.14 12.18 0 23.8-2.81 34.55-8.35 1.54-.8 3.44-.19 4.24 1.35s.19 3.44-1.35 4.24c-11.49 5.91-24.44 9.04-37.44 9.04z"/>
<path d="m2509 2021c-.96 0-1.92-.44-2.53-1.28-1.03-1.4-.73-3.37.66-4.4 7.02-5.18 13.04-11.47 17.91-18.7.97-1.44 2.93-1.82 4.36-.85 1.44.97 1.82 2.92.85 4.36-5.27 7.83-11.79 14.65-19.39 20.25-.56.42-1.21.62-1.86.62z"/>
<path d="m2534 1990c-.43 0-.87-.09-1.29-.28-1.58-.71-2.29-2.57-1.58-4.16 4.39-9.76 6.62-20.17 6.62-30.96 0-16.63-5.3-32.4-15.33-45.61-9.71-12.78-23.49-22.31-38.8-26.81-1.67-.49-2.62-2.24-2.13-3.91s2.24-2.62 3.91-2.13c16.59 4.88 31.52 15.2 42.03 29.04 10.87 14.31 16.61 31.4 16.61 49.41 0 11.69-2.41 22.97-7.18 33.54-.52 1.18-1.66 1.87-2.86 1.87z"/>
<path d="m2401 1856c-.74 0-1.49-.26-2.08-.79-20.68-18.33-32.54-44.67-32.54-72.28 0-22.14 7.68-43.78 21.64-60.92 13.76-16.9 32.98-28.76 54.15-33.4 1.7-.37 3.37.7 3.75 2.4.37 1.7-.7 3.37-2.4 3.75-19.78 4.34-37.75 15.43-50.61 31.22-13.04 16.02-20.23 36.25-20.23 56.95 0 25.81 11.09 50.44 30.42 67.57 1.3 1.15 1.42 3.14.27 4.44-.63.7-1.5 1.06-2.37 1.06z"/>
<path d="m2444 1877c-.21 0-.42-.02-.63-.06-9.84-2.01-19.26-5.54-28.01-10.49-1.51-.86-2.04-2.77-1.19-4.29.86-1.51 2.78-2.04 4.29-1.19 8.18 4.63 16.99 7.93 26.18 9.81 1.7.35 2.8 2.01 2.45 3.71-.32 1.48-1.63 2.51-3.09 2.51z"/>
<path d="m2477 1556c-.9 0-1.8-.39-2.42-1.14-1.11-1.34-.92-3.32.41-4.43 6.12-5.08 8.59-13.28 6.3-20.89-2.41-8-10.88-12.55-18.88-10.14-1.66.5-3.42-.44-3.92-2.1s.44-3.42 2.1-3.92c11.32-3.41 23.31 3.03 26.72 14.35 3.02 10.04-.24 20.85-8.3 27.54-.59.5-1.3.73-2.01.73z"/>
<path d="m2453 1561c-.31 0-.62-.05-.94-.14-10.1-3.14-17.94-11.05-20.99-21.17-6.18-20.53 5.49-42.27 26.02-48.45 9.2-2.77 18.89-2.73 28.02.13 1.66.52 2.58 2.28 2.06 3.94s-2.28 2.58-3.94 2.06c-7.93-2.48-16.34-2.52-24.33-.11-17.21 5.18-27 23.4-21.81 40.62 2.44 8.11 8.74 14.45 16.83 16.97 1.66.52 2.58 2.28 2.07 3.94-.41 1.34-1.65 2.21-2.99 2.21z"/>
<path d="m2462 1599c-1.61 0-2.99-1.23-3.13-2.87-.15-1.73 1.13-3.26 2.86-3.41 4.53-.4 9.06-1.27 13.45-2.6 27.83-8.38 43.65-37.84 35.27-65.67-2.33-7.75-6.82-14.59-12.98-19.77-1.33-1.12-1.5-3.1-.38-4.43s3.1-1.5 4.43-.38c7.1 5.98 12.27 13.85 14.96 22.77 9.38 31.15-8.33 64.12-39.48 73.5-4.8 1.45-9.75 2.4-14.71 2.84-.1.01-.2.02-.29.02z"/>
<path d="m2429 1594c-.4 0-.8-.08-1.19-.24-20.46-8.39-35.85-25.33-42.23-46.49-5.95-19.76-5.07-40.32 2.54-59.45 7.39-18.56 20.88-34.35 37.98-44.45 1.5-.88 3.42-.39 4.31 1.11.88 1.5.39 3.42-1.11 4.31-15.91 9.4-28.46 24.09-35.34 41.36-7.08 17.8-7.9 36.93-2.36 55.31 5.82 19.33 19.89 34.81 38.59 42.48 1.61.66 2.38 2.5 1.72 4.1-.5 1.22-1.67 1.96-2.91 1.96z"/>
<path d="m2530 1450c-.5 0-1.02-.12-1.49-.38-13.96-7.53-29.66-11.89-45.41-12.61-1.73-.08-3.08-1.55-3-3.29s1.55-3.08 3.29-3c16.69.77 33.33 5.39 48.11 13.36 1.53.82 2.1 2.73 1.28 4.26-.57 1.06-1.66 1.66-2.78 1.66z"/>
<path d="m2588 1565c-.09 0-.18 0-.27-.01-1.73-.15-3.01-1.67-2.87-3.4 1.42-16.72-.34-33.42-5.22-49.63-6.31-20.94-18.69-39.14-35.81-52.62-1.36-1.07-1.6-3.05-.52-4.42s3.05-1.6 4.42-.52c18.14 14.29 31.26 33.56 37.94 55.75 5.11 16.98 6.95 34.46 5.47 51.98-.15 1.63-1.53 2.87-3.14 2.87z"/>
<path d="m2492 1684c-1.35 0-2.6-.88-3.01-2.24-.5-1.66.44-3.42 2.1-3.92 18.23-5.49 34.7-14.56 48.95-26.95 13.77-11.97 24.78-26.41 32.71-42.93.75-1.57 2.63-2.23 4.2-1.47 1.57.75 2.22 2.63 1.47 4.2-8.31 17.29-19.84 32.41-34.26 44.95-14.93 12.98-32.17 22.47-51.26 28.22-.29.09-.6.14-.9.14z"/>
<path d="m2603 1609c-.35 0-.72-.06-1.07-.19-1.63-.59-2.48-2.39-1.89-4.03 6.48-17.92 9.05-37.47 7.45-56.54-.15-1.73 1.14-3.25 2.87-3.4 1.73-.14 3.25 1.14 3.4 2.87 1.68 19.97-1.02 40.44-7.8 59.2-.46 1.3-1.67 2.09-2.96 2.09z"/>
<path d="m2575 1655c-.76 0-1.53-.28-2.13-.84-1.28-1.18-1.35-3.17-.17-4.44 7.8-8.43 14.47-17.8 19.82-27.83.82-1.53 2.72-2.11 4.25-1.3 1.53.82 2.11 2.72 1.3 4.25-5.61 10.51-12.59 20.32-20.75 29.14-.63.68-1.48 1.02-2.32 1.02z"/>
</g>
</g>
<path d="m2576 2095v186.4c0 2.12-.12 4.22-.35 6.28-.36 3.31-1.03 6.53-1.95 9.65-6.86 23.16-28.29 40.05-53.68 40.05h-88.19c-30.92 0-55.98-25.07-55.98-55.98v-186.4z" fill="#fff"/>
<path d="m2598 2149c-6.95-2.26-14.36-3.48-22.07-3.48-3.25 0-6.43.21-9.55.64-34.95 4.66-61.91 34.6-61.91 70.84s26.96 66.17 61.91 70.83c3.01.41 6.08.63 9.2.64h.35c7.7 0 15.11-1.22 22.07-3.48 28.68-9.29 49.4-36.22 49.4-67.99 0-31.78-20.73-58.72-49.4-68zm0 116.1c-6.72 3.07-14.19 4.8-22.07 4.8-3.27 0-6.46-.3-9.55-.86-24.67-4.5-43.37-26.1-43.37-52.07 0-25.98 18.7-47.57 43.37-52.07 3.1-.56 6.29-.86 9.55-.86 7.87 0 15.35 1.72 22.07 4.8 18.21 8.37 30.86 26.77 30.86 48.13 0 21.35-12.65 39.76-30.86 48.13z" fill="#fff"/>
<g opacity=".5">
<path d="m2576 2095v186.4c0 2.12-.12 4.22-.35 6.28-.36 3.31-1.03 6.53-1.95 9.65-6.86 23.16-28.29 40.05-53.68 40.05h-44.1v-242.4z" fill="#fff"/>
</g>
<g opacity=".5">
<path d="m2598 2149v19.87c-6.72-3.07-14.19-4.8-22.07-4.8v-18.55c7.7 0 15.12 1.22 22.07 3.48z" fill="#fff"/>
</g>
<g opacity=".5">
<path d="m2576 2269c7.87 0 15.35-1.72 22.07-4.8v19.86c-6.95 2.26-14.36 3.48-22.07 3.48h-.35c.24-2.06.35-4.16.35-6.28z" fill="#fff"/>
</g>
</g>
<g fill="#9ebee5">
<path d="m2736 2336c-1.05 0-2.12-.15-3.18-.48-5.72-1.75-8.94-7.81-7.19-13.53l118.9-388.3c1.75-5.72 7.81-8.94 13.53-7.19s8.94 7.81 7.19 13.53l-118.9 388.3c-1.43 4.66-5.72 7.66-10.35 7.66z"/>
<path d="m2818 2336c-1.05 0-2.12-.15-3.17-.48-5.72-1.75-8.94-7.81-7.19-13.53l118.9-388.3c1.75-5.72 7.81-8.94 13.53-7.19s8.94 7.81 7.19 13.53l-118.9 388.3c-1.43 4.67-5.72 7.67-10.36 7.67z"/>
<path d="m2921 2e3h-82.79c-5.98 0-10.83-4.85-10.83-10.83s4.85-10.83 10.83-10.83h82.79c5.98 0 10.83 4.85 10.83 10.83.01 5.98-4.84 10.83-10.83 10.83z"/>
<path d="m2901 2060h-80.25c-5.82 0-10.53-4.85-10.53-10.83s4.71-10.83 10.53-10.83h80.25c5.82 0 10.53 4.85 10.53 10.83 0 5.97-4.72 10.83-10.53 10.83z"/>
<path d="m2884 2121h-81.54c-5.91 0-10.7-4.85-10.7-10.83s4.79-10.83 10.7-10.83h81.54c5.91 0 10.7 4.85 10.7 10.83s-4.79 10.83-10.7 10.83z"/>
<path d="m2866 2181h-82.56c-5.98 0-10.83-4.85-10.83-10.83s4.85-10.83 10.83-10.83h82.56c5.98 0 10.83 4.85 10.83 10.83s-4.85 10.83-10.83 10.83z"/>
<path d="m2847 2242h-82.56c-5.98 0-10.83-4.85-10.83-10.83s4.85-10.83 10.83-10.83h82.56c5.98 0 10.83 4.85 10.83 10.83s-4.85 10.83-10.83 10.83z"/>
<path d="m2827 2302h-78.91c-5.72 0-10.35-4.85-10.35-10.83s4.64-10.83 10.35-10.83h78.91c5.72 0 10.35 4.85 10.35 10.83s-4.63 10.83-10.35 10.83z"/>
</g>
<g fill="#e7f1f8">
<path d="m4619 2339h-36.07c-3.61 0-6.54-2.93-6.54-6.54s2.93-6.54 6.54-6.54h36.07c3.61 0 6.55 2.93 6.55 6.54s-2.94 6.54-6.55 6.54z"/>
<path d="m4544 2339h-110.8c-3.61 0-6.54-2.93-6.54-6.54s2.93-6.54 6.54-6.54h110.8c3.61 0 6.54 2.93 6.54 6.54s-2.92 6.54-6.54 6.54z"/>
<path d="m4396 2339h-2113c-3.61 0-6.55-2.93-6.55-6.54s2.93-6.54 6.55-6.54h2113c3.61 0 6.54 2.93 6.54 6.54s-2.93 6.54-6.54 6.54z"/>
<path d="m2244 2339h-59.3c-3.61 0-6.54-2.93-6.54-6.54s2.93-6.54 6.54-6.54h59.3c3.61 0 6.55 2.93 6.55 6.54s-2.94 6.54-6.55 6.54z"/>
</g>
</g>
</g>
</svg>
