<svg width="139.7" height="156.1" version="1.1" viewBox="0 0 140 156" xmlns="http://www.w3.org/2000/svg">
 <defs>
  <linearGradient id="linearGradient1446" x1="-143.8" x2="-24.94" y1="-101.1" y2="-70.58" gradientTransform="matrix(.391 0 0 .3962 80.31 55.36)" gradientUnits="userSpaceOnUse">
   <stop stop-color="#965fbd" offset="0"/>
   <stop stop-color="#965dad" offset="1"/>
  </linearGradient>
  <linearGradient id="linearGradient1438" x1="10.92" x2="-33.97" y1="40.16" y2="3.108" gradientTransform="matrix(.391 0 0 .3962 80.31 55.36)" gradientUnits="userSpaceOnUse">
   <stop stop-color="#ffa92b" offset="0"/>
   <stop stop-color="#965dad" offset="1"/>
  </linearGradient>
  <radialGradient id="radialGradient957" cx="3.96" cy="2.314" r="78.63" gradientTransform="matrix(-.5729 .2199 -.1729 -.4627 81.09 65.68)" gradientUnits="userSpaceOnUse">
   <stop stop-color="#f8b741" offset="0"/>
   <stop stop-color="#ae6b9f" offset="1"/>
  </radialGradient>
  <linearGradient id="linearGradient1060" x1="-148.2" x2="-25.39" y1="17.81" y2="-170.8" gradientTransform="matrix(.391 0 0 .3962 80.31 55.36)" gradientUnits="userSpaceOnUse">
   <stop stop-color="#ebebeb" offset="0"/>
   <stop stop-color="#c64dff" stop-opacity="0" offset="1"/>
  </linearGradient>
 </defs>
 <rect x="-.503" y="-.595" width="141" height="158" rx="0" ry="0" fill="#fff" style="paint-order:stroke fill markers"/>
 <g fill="#658798" stroke="#658798" stroke-width="1.2">
  <path d="m98 51.5 18.3 6.9-22.3 6.33z"/>
  <path d="m22 57.3 14.3-6.31 6.02 12.9z"/>
 </g>
 <path d="m100.4 50.08 17.79 7.378-1.887.9462-16.91-7.135z" fill="#87a2af" stroke="#87a2af" stroke-linecap="round" stroke-linejoin="round" stroke-width=".7015"/>
 <path d="m20.07 56.4 16.05-6.652.1782 1.245-14.3 6.31z" fill="#87a2af" stroke="#87a2af" stroke-linecap="round" stroke-linejoin="round" stroke-width=".6503"/>
 <g transform="matrix(3.043 0 0 3.007 -372.4 106.2)">
  <g transform="matrix(.2788 0 0 .2862 129.8 -33.67)">
   <rect x="35.1" y="32.06" width="37.84" height="27.81" rx=".9599" ry=".4997" fill="#fff" style="paint-order:fill markers stroke"/>
   <g transform="matrix(1.022,0,0,1,-2.094,0)">
    <path d="m54.57 3.753c-22.13.01382-40.06 18.24-40.05 40.72.0048 11.23 4.484 21.39 11.72 28.75l24.88-25.32c-2.92-2.195-1.792-5.567-.8892-6.914 1.403-2.095 6.008-2.504 7.724-.03424l24.93-25.36c-7.254-7.335-17.27-11.86-28.32-11.85z" fill="url(#linearGradient1446)" style="paint-order:fill markers stroke"/>
    <path d="m82.89 15.6-.05714-.0161-2.942 2.865.07365.1272-22.01 22.39c3.597 1.848 1.819 6.244.686 7.609-1.494 1.8-5.683 2.816-7.521-.6602l-21.89 22.28-.09148-.08032-3.022 2.931.1254.1894c7.195 7.377 17.14 11.97 28.36 11.97 22.13-.0046 40.07-18.23 40.07-40.71v-.03405c-.0092-11.4-4.509-21.56-11.78-28.86z" fill="url(#linearGradient1438)" style="paint-order:fill markers stroke"/>
    <path d="m79.96 18.57-21.65 22.03c4.967 5.044-1.985 12.85-7.481 7.613l-21.59 21.97c6.489 6.562 15.53 10.67 25.49 10.67 19.88-.0041 36-16.28 36-36.35v-.02941c-.0082-10.14-4.242-19.36-10.76-25.89z" fill="url(#radialGradient957)" style="paint-order:fill markers stroke"/>
    <path d="m54.47 7.905c-19.88.00421-36 16.28-36 36.35v.03019c.0082 10.14 4.242 19.36 10.76 25.89l21.86-22.24c-3.045-2.974-2.05-5.007-.4297-6.923 1.64-1.939 3.943-3.722 7.314-.07117l21.98-22.38c-6.489-6.562-15.53-10.67-25.49-10.67z" fill="url(#linearGradient1060)" style="paint-order:fill markers stroke"/>
    <path d="m54.63 32.22c-6.772.0045-12.26 5.54-12.26 12.36.0032 6.825 5.495 12.36 12.27 12.35 6.772-.0016 12.26-5.535 12.26-12.36v-.01006c-.0057-6.825-5.5-12.35-12.27-12.35zm6.957 12.86c-1.305 10.39-12.66 7.975-14.31.2541 3.041-12.42 13.54-8.593 14.31-.2541z" fill="#fff" style="paint-order:fill markers stroke"/>
   </g>
   <path d="m60.74 44.48a7.034 6.939 0 01-7.033 6.939 7.034 6.939 0 01-7.035-6.936 7.034 6.939 0 017.03-6.941 7.034 6.939 0 017.038 6.933" fill="none" stroke="#2d2d2d" stroke-linecap="round" stroke-width="4.135" style="paint-order:fill markers stroke"/>
  </g>
 </g>
 <g transform="matrix(.2938 0 0 .3128 67.48 43.88)" clip-rule="evenodd" fill="#fff" fill-rule="evenodd" image-rendering="optimizeQuality" shape-rendering="geometricPrecision" stroke-linejoin="round" stroke-width="14.97" style="paint-order:stroke fill markers">
  <path d="m62.87 72.08-13.71 13.56-33.47-12.16 0.2962 35.58 46.8 17.64 47.4-17.03v-40.44l14.81-6.081-15.4-16.12-18.37-6.385 0.2962 5.816 11.26 3.914-39.7 15.06-39.1-14.45 11.26-4.257v-6.385l-19.25 7.906-15.11 15.2 47.4 17.64 14.81-15.2 14.81 15.2 27.25-10.03 0.2962 34.36-42.06 15.51z" fill="#fff" stroke="#e3a15c" stroke-linejoin="round" stroke-width="14.97" style="paint-order:stroke fill markers"/>
  <g clip-rule="nonzero" fill-rule="nonzero" shape-rendering="auto">
   <path d="m65.98-2.006c-3.786-1.474-7.316 1.022-10.82 2.151-6.685 2.647-13.46 5.094-20.09 7.869-2.994 1.573-4.022 5.062-3.785 8.227-0.1194 9.937-0.2986 19.88-0.3804 29.81 0.1111 3.56 3.038 6.193 6.288 7.093 7.878 3.053 15.73 6.185 23.62 9.188 3.613 1.026 6.884-1.24 10.21-2.276 6.729-2.563 13.48-5.072 20.2-7.669 3.262-1.404 4.64-5.076 4.302-8.42-0.02341-9.975 0.07908-19.96-0.02282-29.93-0.1397-3.678-3.135-6.496-6.527-7.41-7.668-2.879-15.34-5.758-23-8.637z" color="#000000" fill="#e3a15c" style="-inkscape-stroke:none"/>
   <path d="m84.01 15.66 4.07-1.372-0.0244 31.33-25.16 9.524-24.51-9.568 0.4189-31.07 24.55-9.506 24.73 9.284-24.86 10.13-0.1594 25.81 20.95-7.963z" color="#000000" style="-inkscape-stroke:none"/>
  </g>
 </g>
 <g stroke-linecap="round" stroke-linejoin="round" stroke-width="2.45" paint-order="stroke fill markers">
  <path d="m20.5 105c-.008-10.7-.108-21.4-.095-32.1l38.3 13.7 9.9-12.3-.133 52.9zm49.4-30.4 9.32 12.1 39.5-13.7c.03 0 .036 7.13.01 15.9l-.044 15.8-49 22.4z" fill="#658798" stroke="#658798"/>
  <path d="m10.5 68.1c3.1-3.52 5.74-6.3 9.08-10l.547-.637 48.2 15.1-9.68 13c-16.1-5.7-32.1-11.6-48.1-17.5zm59.3 4.42 49.4-14.3.485.496c.267.272 2.36 2.6 4.65 5.18l4.16 4.68-48.7 17.1z" fill="#87a2af" stroke="#87a2af"/>
 </g>
 <g aria-label="UltraISO-Install.exe">
  <path d="m14.07 143.4q0 1.052-.2338 1.838-.2273.7793-.7533 1.299-.5.4936-1.169.7208-.6689.2273-1.559.2273-.9092 0-1.585-.2403t-1.136-.7079q-.526-.5325-.7598-1.286-.2273-.7533-.2273-1.851v-5.786h1.286v5.851q0 .7858.1039 1.24.1104.4546.3637.8248.2857.4221.7728.6364.4936.2143 1.182.2143.6949 0 1.182-.2078.4871-.2143.7793-.6429.2533-.3702.3572-.8442.1104-.4806.1104-1.188v-5.884h1.286z"/>
  <path d="m17.48 147.3h-1.221v-10.1h1.221z"/>
  <path d="m23.49 147.2q-.3442.0909-.7533.1494-.4026.0584-.7208.0584-1.11 0-1.688-.5975t-.578-1.916v-3.858h-.8248v-1.026h.8248v-2.085h1.221v2.085h2.52v1.026h-2.52v3.306q0 .5715.02598.8962.02598.3182.1818.5975.1429.2598.3896.3832.2533.1169.7663.1169.2987 0 .6234-.0844.3247-.0909.4676-.1494h.06494z"/>
  <path d="m29.3 141.4h-.06494q-.2728-.0649-.5325-.0909-.2533-.0325-.604-.0325-.565 0-1.091.2533-.526.2468-1.013.6429v5.15h-1.221v-7.254h1.221v1.072q.7273-.5845 1.279-.8248.5585-.2468 1.136-.2468.3182 0 .4611.0195.1429.013.4286.0584z"/>
  <path d="m35.68 147.3h-1.214v-.7728q-.1624.1104-.4416.3117-.2728.1948-.5325.3117-.3052.1494-.7014.2468-.3961.1039-.9287.1039-.9806 0-1.662-.6494-.6819-.6494-.6819-1.656 0-.8248.3507-1.331.3572-.513 1.013-.8053.6624-.2922 1.591-.3961.9287-.1039 1.994-.1559v-.1883q0-.4156-.1494-.6884-.1429-.2728-.4156-.4286-.2598-.1494-.6234-.2013-.3637-.0519-.7598-.0519-.4806 0-1.072.1299-.591.1234-1.221.3637h-.06494v-1.24q.3572-.0974 1.033-.2143.6754-.1169 1.331-.1169.7663 0 1.331.1299.5715.1234.9871.4286.4091.2987.6234.7728t.2143 1.175zm-1.214-1.786v-2.02q-.5585.0325-1.318.0974-.7533.0649-1.195.1883-.526.1494-.8507.4676-.3247.3117-.3247.8637 0 .6234.3767.9416.3767.3117 1.149.3117.6429 0 1.175-.2468.5325-.2533.9871-.604z"/>
  <path d="m41.36 147.3h-3.819v-.9871h1.266v-7.696h-1.266v-.9871h3.819v.9871h-1.266v7.696h1.266z"/>
  <path d="m50.4 144.5q0 .565-.2663 1.117-.2598.552-.7338.9352-.5195.4156-1.214.6494-.6884.2338-1.662.2338-1.046 0-1.883-.1948-.8312-.1948-1.695-.578v-1.611h.09092q.7338.6104 1.695.9416.9611.3312 1.805.3312 1.195 0 1.857-.4481.6689-.4481.6689-1.195 0-.6429-.3182-.9481-.3117-.3052-.9546-.4741-.4871-.1299-1.059-.2143-.565-.0844-1.201-.2143-1.286-.2728-1.909-.9287-.6169-.6624-.6169-1.721 0-1.214 1.026-1.987 1.026-.7793 2.604-.7793 1.02 0 1.87.1948.8507.1948 1.507.4806v1.52h-.09092q-.552-.4676-1.455-.7728-.8962-.3117-1.838-.3117-1.033 0-1.662.4286-.6234.4286-.6234 1.104 0 .604.3117.9482t1.098.526q.4156.0909 1.182.2208.7663.1299 1.299.2663 1.078.2858 1.624.8637.5455.578.5455 1.617z"/>
  <path d="m59.48 138.7q.591.6494.9027 1.591.3182.9416.3182 2.137 0 1.195-.3247 2.143-.3182.9416-.8962 1.572-.5975.6559-1.416.9871-.8118.3312-1.857.3312-1.02 0-1.857-.3377-.8312-.3377-1.416-.9806-.5845-.6429-.9027-1.578-.3117-.9352-.3117-2.137 0-1.182.3117-2.117.3117-.9416.9092-1.611.5715-.6364 1.416-.9741.8507-.3377 1.851-.3377 1.039 0 1.864.3442.8312.3377 1.409.9676zm-.1169 3.728q0-1.883-.8442-2.903-.8442-1.026-2.305-1.026-1.474 0-2.318 1.026-.8377 1.02-.8377 2.903 0 1.903.8572 2.916.8572 1.007 2.299 1.007t2.292-1.007q.8572-1.013.8572-2.916z"/>
  <path d="m66.3 143.6h-4.052v-1.175h4.052z"/>
  <path d="m71.64 147.3h-3.819v-.9871h1.266v-7.696h-1.266v-.9871h3.819v.9871h-1.266v7.696h1.266z"/>
  <path d="m79.62 147.3h-1.221v-4.13q0-.5-.05845-.9352-.05845-.4416-.2143-.6884-.1624-.2728-.4676-.4026-.3052-.1364-.7923-.1364-.5 0-1.046.2468t-1.046.6299v5.416h-1.221v-7.254h1.221v.8053q.5715-.4741 1.182-.7403t1.253-.2663q1.175 0 1.792.7079t.6169 2.039z"/>
  <path d="m86.97 145.2q0 .9936-.8248 1.63-.8183.6364-2.24.6364-.8053 0-1.481-.1883-.6689-.1948-1.123-.4221v-1.37h.06494q.578.4351 1.286.6949.7079.2533 1.357.2533.8053 0 1.26-.2598.4546-.2598.4546-.8183 0-.4286-.2468-.6494t-.9481-.3767q-.2598-.0585-.6819-.1364-.4156-.0779-.7598-.1688-.9546-.2533-1.357-.7403-.3961-.4936-.3961-1.208 0-.4481.1818-.8442.1883-.3961.565-.7079.3637-.3052.9222-.4806.565-.1818 1.26-.1818.6494 0 1.312.1624.6689.1559 1.11.3832v1.305h-.06494q-.4676-.3442-1.136-.578-.6689-.2403-1.312-.2403-.6689 0-1.13.2598-.4611.2533-.4611.7598 0 .4481.2792.6754.2728.2273.8832.3702.3377.0779.7533.1559.4221.0779.7014.1429.8507.1948 1.312.6689.4611.4806.4611 1.273z"/>
  <path d="m92.3 147.2q-.3442.0909-.7533.1494-.4026.0584-.7208.0584-1.11 0-1.688-.5975t-.578-1.916v-3.858h-.8248v-1.026h.8248v-2.085h1.221v2.085h2.52v1.026h-2.52v3.306q0 .5715.02598.8962.02598.3182.1818.5975.1429.2598.3896.3832.2533.1169.7663.1169.2987 0 .6234-.0844.3247-.0909.4676-.1494h.06494z"/>
  <path d="m99.22 147.3h-1.214v-.7728q-.1624.1104-.4416.3117-.2728.1948-.5325.3117-.3052.1494-.7014.2468-.3961.1039-.9287.1039-.9806 0-1.662-.6494-.6819-.6494-.6819-1.656 0-.8248.3507-1.331.3572-.513 1.013-.8053.6624-.2922 1.591-.3961.9287-.1039 1.994-.1559v-.1883q0-.4156-.1494-.6884-.1429-.2728-.4156-.4286-.2598-.1494-.6234-.2013-.3637-.0519-.7598-.0519-.4806 0-1.072.1299-.591.1234-1.221.3637h-.06494v-1.24q.3572-.0974 1.033-.2143.6754-.1169 1.331-.1169.7663 0 1.331.1299.5715.1234.9871.4286.4091.2987.6234.7728t.2143 1.175zm-1.214-1.786v-2.02q-.5585.0325-1.318.0974-.7533.0649-1.195.1883-.526.1494-.8507.4676-.3247.3117-.3247.8637 0 .6234.3767.9416.3767.3117 1.149.3117.6429 0 1.175-.2468.5325-.2533.9871-.604z"/>
  <path d="m102.6 147.3h-1.221v-10.1h1.221z"/>
  <path d="m106.1 147.3h-1.221v-10.1h1.221z"/>
  <path d="m110.3 147.3h-1.552v-1.851h1.552z"/>
  <path d="m119.1 143.8h-5.345q0 .6689.2013 1.169.2013.4936.552.8118.3377.3117.7988.4676.4676.1559 1.026.1559.7403 0 1.487-.2922.7533-.2987 1.072-.5845h.0649v1.331q-.6169.2598-1.26.4351t-1.351.1753q-1.805 0-2.818-.9741-1.013-.9806-1.013-2.779 0-1.779.9676-2.825.9741-1.046 2.559-1.046 1.468 0 2.26.8572.7988.8572.7988 2.435zm-1.188-.9352q-.006-.9611-.4871-1.487-.4741-.526-1.448-.526-.9806 0-1.565.578-.578.578-.6559 1.435z"/>
  <path d="m127 147.3h-1.539l-2.059-2.786-2.072 2.786h-1.422l2.831-3.617-2.805-3.637h1.539l2.046 2.741 2.052-2.741h1.429l-2.851 3.572z"/>
  <path d="m134.3 143.8h-5.345q0 .6689.2013 1.169.2013.4936.552.8118.3377.3117.7988.4676.4676.1559 1.026.1559.7403 0 1.487-.2922.7533-.2987 1.072-.5845h.0649v1.331q-.6169.2598-1.26.4351t-1.351.1753q-1.805 0-2.818-.9741-1.013-.9806-1.013-2.779 0-1.779.9676-2.825.9741-1.046 2.559-1.046 1.468 0 2.26.8572.7988.8572.7988 2.435zm-1.188-.9352q-.006-.9611-.4871-1.487-.4741-.526-1.448-.526-.9806 0-1.565.578-.578.578-.6559 1.435z"/>
 </g>
</svg>
