<svg width="200" height="200" version="1.1" viewBox="0 -7 75 80" xmlns="http://www.w3.org/2000/svg">
<g transform="matrix(.4 0 0 .4 -142.8 -459.3)">
<g transform="translate(381,556.5)">
<g transform="matrix(.7712 0 0 .7658 7.089 -54.24)">
<g transform="translate(.2073)">
<g transform="matrix(.1072 0 0 .1132 -8.854 -.698)">
<g transform="matrix(-67.06 1.599 .05285 62.9 14208 -2149)"></g>
<path d="m-233.9 7513c-13.08 10.23-14.46 29.59-3.059 43.04l290 342.2c11.39 13.44 31.42 16.08 44.5 5.851l237.8-185.9c13.08-10.23 14.46-29.59 3.059-43.04l-227.9-268.9-177.9-23.38z" fill="#5d6c7f" stroke-width=".9712"/>
<path d="m39.29 7462 71.31-55.77-178-23.38 62.15 73.33c11.39 13.44 31.42 16.08 44.5 5.851z" fill="#aeb7c5" stroke-width=".9712"/>
<path d="m291.4 7568c6.581 7.765 5.674 19.05-2.014 25.06l-307.7 240.6c-7.692 6.016-19.37 4.577-25.96-3.188l-119.7-141.2c-6.581-7.765-5.674-19.05 2.014-25.06l307.7-240.6c7.693-6.016 19.37-4.577 25.96 3.187z" fill="#50bee8" stroke-width="1.133"/>
<g transform="matrix(.874 -.6835 .7486 .8833 -184.6 7679)" fill="#fff">
<path d="m95.23 64.87c0-10.5 16.9-10.88 16.9 0v73.02c0 10.62-16.9 10.88-16.9 0z"/>
<path d="m132.3 76.37c2.944-24.82 40.42-29.28 58.08-15.71 8.704 7.024-.512 18.16-8.192 12.53-9.472-6.016-30.96-8.832-33.65 4.464-3.456 20.99 52.19 8.976 51.3 42.99-.896 32.5-47.97 33.26-65.63 18.67-4.24-3.44-4.096-9.056-1.792-12.53 3.328-3.312 7.024-4.464 11.39-.896 10.48 7.168 37.49 12.54 39.39-5.648-1.648-18.91-54.86-7.52-50.9-43.87z"/>
<path d="m261.5 147c-23.66 1.024-48.24-14.72-48.24-46.06 0-31.47 24.56-46.94 48.24-46.94 22.38 1.136 45.79 16.62 45.79 46.94.016 30.34-23.39 46.06-45.79 46.06zm-1.408-76.37c-14.34 0-29.94 10.11-29.94 30.32 0 20.1 15.62 30.34 29.94 30.34 14.72 0 30.45-10.24 30.45-30.34.016-20.22-15.73-30.32-30.45-30.32z"/>
</g>
<g transform="matrix(6.786 0 0 7.226 -200.7 7356)">
<g fill="#5d6c7f">
<path d="m68.75 199.3c-2.8 3.121-6.524 5.744-11 7.602l-5.999 2.487-.8311 5.348c-.2506 1.611-.7017 3.17-1.313 4.671 25.71 23.14 45.69 54.76 57.14 77.59 2.337 3.472 7.301 1.792 6.706-1.57-10.14-47.7-27.87-77.58-44.7-96.13z" stroke-width="1.243"/>
<path d="m250.8 129.9c-4.645-5.212-6.707-11.82-5.49-18.53l2.425-13.38-11.75-9.234c-.1789-.14-.3409-.2902-.5146-.4336-86.89 63.41-94.72 162.7-92.67 211.3.9312 4.337 5.823 3.761 6.705.3229 22.13-100 68.64-147.7 101.3-170.1z" stroke-width="1.211"/>
<path d="m92.38 63.95-28.37 5.251-10.64 21.36c-.1932.3878-.4118.7636-.6277 1.141 44.91 49.01 69.13 149.7 78.93 200.4.2303 1.19 1.589 2.035 3.114 1.941 1.525-.0941 2.703-1.097 2.702-2.3-.0837-109.6-22.19-182.5-44.19-228-.3053.06254-.6049.1372-.9145.1942z" stroke-width="1.251"/>
<path d="m259.9 241.5-3.746-4.799c-3.031-3.883-4.838-8.304-5.419-12.85-28.83 7.161-72.21 25.49-86.07 71.84-1.198 6.131 3.917 6.878 7.135 2.774 15.12-20.42 45.38-45.72 85.92-51.2.0223-.0587.0379-.1184.0602-.1783z" stroke-width="1.265"/>
<path d="m172.1 44.45-2.732-4.985-7.031-1.14c-5.25-.851-9.992-2.6-13.96-5.022-11.33 22.58-19.26 57.51-10.92 110 .4487 2.827 5.953 2.794 6.312-.0399 3.085-24.37 11.03-63.77 31.33-94.61-1.16-1.321-2.173-2.734-2.997-4.239z" stroke-width="1.282"/>
</g>
</g>
<path d="m-131 8651c-7.418 6.314-7.473 17.4-.126 24.63l187 184.1c7.345 7.233 19.43 7.988 26.84 1.677l134.8-114.8c7.418-6.314 7.473-17.4.126-24.63l-146.9-144.7-107.3-6.695z" fill="#5d6c7f" stroke-width=".5681"/>
<path d="m30.39 8612 40.44-34.42-107.3-6.695 40.07 39.46c7.345 7.233 19.43 7.988 26.84 1.677z" fill="#aeb7c5" stroke-width=".5681"/>
<path d="m185.4 8663c4.243 4.179 4.147 10.64-.2127 14.35l-174.5 148.5c-4.362 3.713-11.4 3.329-15.65-.8496l-77.17-76c-4.243-4.178-4.147-10.64.2127-14.35l174.5-148.5c4.362-3.713 11.4-3.329 15.65.8496z" fill="#50bee8" stroke-width=".6624"/>
<g transform="matrix(.4956 -.4219 .4826 .4753 -94.87 8744)" fill="#fff">
<path d="m95.23 64.87c0-10.5 16.9-10.88 16.9 0v73.02c0 10.62-16.9 10.88-16.9 0z"/>
<path d="m132.3 76.37c2.944-24.82 40.42-29.28 58.08-15.71 8.704 7.024-.512 18.16-8.192 12.53-9.472-6.016-30.96-8.832-33.65 4.464-3.456 20.99 52.19 8.976 51.3 42.99-.896 32.5-47.97 33.26-65.63 18.67-4.24-3.44-4.096-9.056-1.792-12.53 3.328-3.312 7.024-4.464 11.39-.896 10.48 7.168 37.49 12.54 39.39-5.648-1.648-18.91-54.86-7.52-50.9-43.87z"/>
<path d="m261.5 147c-23.66 1.024-48.24-14.72-48.24-46.06 0-31.47 24.56-46.94 48.24-46.94 22.38 1.136 45.79 16.62 45.79 46.94.016 30.34-23.39 46.06-45.79 46.06zm-1.408-76.37c-14.34 0-29.94 10.11-29.94 30.32 0 20.1 15.62 30.34 29.94 30.34 14.72 0 30.45-10.24 30.45-30.34.016-20.22-15.73-30.32-30.45-30.32z"/>
</g>
<path d="m1019 7260c-9.036-5.088-21.22-1.729-27.07 7.466l-149 234c-5.853 9.191-3.252 20.88 5.78 25.97l164.3 92.5c9.036 5.088 21.22 1.729 27.07-7.466l117.1-183.9-23.13-103.8z" fill="#5d6c7f" stroke-width=".6034"/>
<path d="m1108 7401 49.26 27.74-23.13-103.8-31.93 50.14c-5.853 9.191-3.252 20.88 5.78 25.97z" fill="#aeb7c5" stroke-width=".6034"/>
<path d="m1095 7563c-3.381 5.31-10.5 7.208-15.81 4.218l-212.6-119.7c-5.314-2.992-6.891-9.788-3.51-15.1l61.5-96.58c3.381-5.31 10.5-7.208 15.81-4.218l212.6 119.7c5.314 2.992 6.891 9.788 3.51 15.1z" fill="#50bee8" stroke-width=".7036"/>
<g transform="matrix(.6038 .34 -.3846 .604 927.1 7323)" fill="#fff">
<path d="m95.23 64.87c0-10.5 16.9-10.88 16.9 0v73.02c0 10.62-16.9 10.88-16.9 0z"/>
<path d="m132.3 76.37c2.944-24.82 40.42-29.28 58.08-15.71 8.704 7.024-.512 18.16-8.192 12.53-9.472-6.016-30.96-8.832-33.65 4.464-3.456 20.99 52.19 8.976 51.3 42.99-.896 32.5-47.97 33.26-65.63 18.67-4.24-3.44-4.096-9.056-1.792-12.53 3.328-3.312 7.024-4.464 11.39-.896 10.48 7.168 37.49 12.54 39.39-5.648-1.648-18.91-54.86-7.52-50.9-43.87z"/>
<path d="m261.5 147c-23.66 1.024-48.24-14.72-48.24-46.06 0-31.47 24.56-46.94 48.24-46.94 22.38 1.136 45.79 16.62 45.79 46.94.016 30.34-23.39 46.06-45.79 46.06zm-1.408-76.37c-14.34 0-29.94 10.11-29.94 30.32 0 20.1 15.62 30.34 29.94 30.34 14.72 0 30.45-10.24 30.45-30.34.016-20.22-15.73-30.32-30.45-30.32z"/>
</g>
<path d="m1850 7646c-10.08-10.73-28.69-11.46-41.34-1.624l-322.1 250.4c-12.65 9.836-14.76 26.67-4.678 37.4l183.3 195.1c10.08 10.73 28.69 11.46 41.34 1.624l253.1-196.8 18.69-149.6z" fill="#5d6c7f" stroke-width=".8708"/>
<path d="m1905 7874 54.98 58.52 18.69-149.6-69.02 53.66c-12.65 9.837-14.76 26.67-4.678 37.4z" fill="#aeb7c5" stroke-width=".8708"/>
<path d="m1807 8087c-7.309 5.682-18.15 5.168-24.08-1.14l-237.2-252.5c-5.931-6.313-4.797-16.13 2.512-21.81l132.9-103.4c7.309-5.682 18.15-5.168 24.08 1.141l237.2 252.5c5.931 6.313 4.796 16.13-2.512 21.81z" fill="#50bee8" stroke-width="1.015"/>
<g transform="matrix(.6739 .7173 -.8314 .6464 1691 7691)" fill="#fff">
<path d="m95.23 64.87c0-10.5 16.9-10.88 16.9 0v73.02c0 10.62-16.9 10.88-16.9 0z"/>
<path d="m132.3 76.37c2.944-24.82 40.42-29.28 58.08-15.71 8.704 7.024-.512 18.16-8.192 12.53-9.472-6.016-30.96-8.832-33.65 4.464-3.456 20.99 52.19 8.976 51.3 42.99-.896 32.5-47.97 33.26-65.63 18.67-4.24-3.44-4.096-9.056-1.792-12.53 3.328-3.312 7.024-4.464 11.39-.896 10.48 7.168 37.49 12.54 39.39-5.648-1.648-18.91-54.86-7.52-50.9-43.87z"/>
<path d="m261.5 147c-23.66 1.024-48.24-14.72-48.24-46.06 0-31.47 24.56-46.94 48.24-46.94 22.38 1.136 45.79 16.62 45.79 46.94.016 30.34-23.39 46.06-45.79 46.06zm-1.408-76.37c-14.34 0-29.94 10.11-29.94 30.32 0 20.1 15.62 30.34 29.94 30.34 14.72 0 30.45-10.24 30.45-30.34.016-20.22-15.73-30.32-30.45-30.32z"/>
</g>
<path d="m1895 8917c-1.563-8.716-11.68-14.63-22.49-13.14l-275 37.83c-10.8 1.486-18.37 9.833-16.8 18.54l28.42 158.4c1.563 8.715 11.68 14.63 22.49 13.14l216.1-29.72 67.19-74.17z" fill="#5d6c7f" stroke-width=".5579"/>
<path d="m1839 9055 8.523 47.52 67.19-74.17-58.93 8.105c-10.8 1.486-18.37 9.833-16.8 18.55z" fill="#aeb7c5" stroke-width=".5579"/>
<path d="m1704 9140c-6.24.8582-12.1-2.635-13.02-7.757l-36.78-205c-.9196-5.126 3.439-10.02 9.679-10.88l113.5-15.61c6.24-.8583 12.1 2.635 13.02 7.756l36.78 205c.9195 5.126-3.439 10.02-9.679 10.88z" fill="#50bee8" stroke-width=".6506"/>
<g transform="matrix(.1045 .5824 -.7098 .09763 1789 8894)" fill="#fff">
<path d="m95.23 64.87c0-10.5 16.9-10.88 16.9 0v73.02c0 10.62-16.9 10.88-16.9 0z"/>
<path d="m132.3 76.37c2.944-24.82 40.42-29.28 58.08-15.71 8.704 7.024-.512 18.16-8.192 12.53-9.472-6.016-30.96-8.832-33.65 4.464-3.456 20.99 52.19 8.976 51.3 42.99-.896 32.5-47.97 33.26-65.63 18.67-4.24-3.44-4.096-9.056-1.792-12.53 3.328-3.312 7.024-4.464 11.39-.896 10.48 7.168 37.49 12.54 39.39-5.648-1.648-18.91-54.86-7.52-50.9-43.87z"/>
<path d="m261.5 147c-23.66 1.024-48.24-14.72-48.24-46.06 0-31.47 24.56-46.94 48.24-46.94 22.38 1.136 45.79 16.62 45.79 46.94.016 30.34-23.39 46.06-45.79 46.06zm-1.408-76.37c-14.34 0-29.94 10.11-29.94 30.32 0 20.1 15.62 30.34 29.94 30.34 14.72 0 30.45-10.24 30.45-30.34.016-20.22-15.73-30.32-30.45-30.32z"/>
</g>
</g>
</g>
</g>
</g>
</g>
</svg>
