<svg width="200" height="200" version="1.1" viewBox="0 -7 75 80" xmlns="http://www.w3.org/2000/svg">
<g transform="matrix(.4 0 0 .4 -142.8 -459.3)">
<g transform="translate(381,556.5)">
<g transform="matrix(.7712 0 0 .7658 7.089 -54.24)">
<g transform="translate(.2073)">
<g transform="matrix(.1072 0 0 .1132 -8.854 -.698)">
<path d="m-235.2 7322c-26.34 0-47.88 21.12-47.88 46.94v657.1c0 25.81 21.55 46.94 47.88 46.94h478.8c26.34 0 47.88-21.12 47.88-46.94v-516.3l-191.5-187.7z" fill="#5d6c7f" stroke-width="1.481"/>
<path d="m147.8 7510h143.6l-191.5-187.7v140.8c0 25.81 21.55 46.94 47.88 46.94z" fill="#d4d9e0" stroke-width="1.481"/>
<path d="m343.5 7861c0 14.91-12.68 27.12-28.16 27.12h-619.6c-15.49 0-28.16-12.21-28.16-27.12v-271.2c0-14.91 12.68-27.12 28.16-27.12h619.6c15.49 0 28.16 12.21 28.16 27.12z" fill="#50bee8" stroke-width="1.727"/>
<g transform="matrix(1.76 0 0 1.696 -346.5 7559)" fill="#fff">
<path d="m95.23 64.87c0-10.5 16.9-10.88 16.9 0v73.02c0 10.62-16.9 10.88-16.9 0z"/>
<path d="m132.3 76.37c2.944-24.82 40.42-29.28 58.08-15.71 8.704 7.024-.512 18.16-8.192 12.53-9.472-6.016-30.96-8.832-33.65 4.464-3.456 20.99 52.19 8.976 51.3 42.99-.896 32.5-47.97 33.26-65.63 18.67-4.24-3.44-4.096-9.056-1.792-12.53 3.328-3.312 7.024-4.464 11.39-.896 10.48 7.168 37.49 12.54 39.39-5.648-1.648-18.91-54.86-7.52-50.9-43.87z"/>
<path d="m261.5 147c-23.66 1.024-48.24-14.72-48.24-46.06 0-31.47 24.56-46.94 48.24-46.94 22.38 1.136 45.79 16.62 45.79 46.94.016 30.34-23.39 46.06-45.79 46.06zm-1.408-76.37c-14.34 0-29.94 10.11-29.94 30.32 0 20.1 15.62 30.34 29.94 30.34 14.72 0 30.45-10.24 30.45-30.34.016-20.22-15.73-30.32-30.45-30.32z"/>
</g>
<g transform="matrix(14.62,0,0,13.65,-7829,-6654)">
<g transform="matrix(2.758 0 0 2.852 234.2 755.7)" fill="#8191a2">
<path d="m140.9 116.4a17.83 17.14 0 00-17.83 17.14 17.83 17.14 0 0017.83 17.14 17.83 17.14 0 0017.83-17.14 17.83 17.14 0 00-17.83-17.14zm0 12.85a4.459 4.284 0 014.459 4.284 4.459 4.284 0 01-4.459 4.284 4.459 4.284 0 01-4.459-4.284 4.459 4.284 0 014.459-4.284z" fill="#5d6c7f" stroke-width="1.457"/>
<path d="m137.8 130.5c.1963-.1884.4099-.3497.6314-.4955l-3.509-12.59c-2.4.8268-4.658 2.146-6.58 3.994-1.923 1.847-3.296 4.016-4.154 6.321l13.1 3.371c.1503-.2115.3179-.4169.5143-.6055z" opacity=".739" stroke-width="1.457"/>
<path d="m142.9 137.4 4.363 12.17c1.889-.6535 4.061-1.911 5.731-3.38 1.692-1.489 3.022-3.213 3.647-4.537l-12.47-5.146c-.1142.1179-.3522.336-.6349.5299-.2151.1475-.4477.275-.6378.3631z" opacity=".739" stroke-width="1.234"/>
</g>
</g>
<path d="m1175 7857-82.58 98.13c-121.2-570.2-539.7-497.5-709.1-378.4 1.798 102.2.9939 149.8-1.575 285.4 107.3-256.1 572.1-277.9 637.7 115.3l-128.5-12.14c105.4 46.31 194.4 143.5 233.6 186.2 3.831-59.21 17.52-199.5 50.51-294.6z" fill="#5d6c7f" stroke-width=".8509"/>
<path d="m-209.6 8400 123.3-63.09c-111 573.5 340.3 649.7 559.6 597-2.663-97.39-6.579-194.8 9.724-292.2-212.7 201.9-581.3 88.78-486.6-300.5l124.5 55.55c-87.24-79.47-137.2-200.7-159.2-254.1-28.06 53.9-99.19 180-171.3 257.4z" fill="#5d6c7f" stroke-width=".8842"/>
</g>
</g>
</g>
</g>
</g>
</svg>
