<svg width="200" height="200" version="1.1" viewBox="0 -7 75 80" xmlns="http://www.w3.org/2000/svg">
<g transform="matrix(.4 0 0 .4 -142.8 -459.3)">
<g transform="translate(381,556.5)">
<g transform="matrix(.7712 0 0 .7658 7.089 -54.24)">
<g transform="translate(.2073)">
<g transform="matrix(.1072 0 0 .1132 -8.854 -.698)">
<path d="m1429 7262c-27.67 0-50.31 22.38-50.31 49.74v696.4c0 27.35 22.64 49.74 50.31 49.74h503.1c27.67 0 50.31-22.38 50.31-49.74v-547.1l-201.2-199z" fill="#5d6c7f" stroke-width="1.563"/>
<path d="m1832 7461h150.9l-201.2-199v149.2c0 27.35 22.64 49.74 50.31 49.74z" fill="#d4d9e0" stroke-width="1.563"/>
<path d="m2037 7833c0 15.8-13.32 28.74-29.59 28.74h-651c-16.27 0-29.59-12.94-29.59-28.74v-287.4c0-15.8 13.32-28.74 29.59-28.74h651c16.27 0 29.59 12.94 29.59 28.74z" fill="#50bee8" stroke-width="1.823"/>
<g transform="matrix(1.849 0 0 1.797 1312 7514)" fill="#fff">
<path d="m95.23 64.87c0-10.5 16.9-10.88 16.9 0v73.02c0 10.62-16.9 10.88-16.9 0z"/>
<path d="m132.3 76.37c2.944-24.82 40.42-29.28 58.08-15.71 8.704 7.024-.512 18.16-8.192 12.53-9.472-6.016-30.96-8.832-33.65 4.464-3.456 20.99 52.19 8.976 51.3 42.99-.896 32.5-47.97 33.26-65.63 18.67-4.24-3.44-4.096-9.056-1.792-12.53 3.328-3.312 7.024-4.464 11.39-.896 10.48 7.168 37.49 12.54 39.39-5.648-1.648-18.91-54.86-7.52-50.9-43.87z"/>
<path d="m261.5 147c-23.66 1.024-48.24-14.72-48.24-46.06 0-31.47 24.56-46.94 48.24-46.94 22.38 1.136 45.79 16.62 45.79 46.94.016 30.34-23.39 46.06-45.79 46.06zm-1.408-76.37c-14.34 0-29.94 10.11-29.94 30.32 0 20.1 15.62 30.34 29.94 30.34 14.72 0 30.45-10.24 30.45-30.34.016-20.22-15.73-30.32-30.45-30.32z"/>
</g>
<g transform="matrix(14.62,0,0,13.65,-7829,-6654)"></g>
<g fill="#5d6c7f">
<path d="m1538 8464 93.02 193.9 187-105.9-80.68-24.95 61.29-174.7-115.2-37.32-61.54 174.9z"/>
<path d="m762.9 8243 20.29 295.5 291.8-50.23-90.13-70.12 166.5-198.4-127.8-102.3-167 198.6z"/>
<path d="m619.1 7512-81.45 248.9 272.4 47.31-55.39-84.97 212.4-112.4-77.6-122.9-212.9 112.5z"/>
<path d="m450.9 7991-42.41 171 176.8 20.95-38.94-55.02 131.9-84.27-54.7-79.67-132.2 84.33z"/>
<path d="m1218 8600 43.34 133.9 129.4-53.71-49.81-22.82 54.34-108.8-70.97-33.69-54.53 108.9z"/>
</g>
<path d="m-238 8114c-17.15 0-31.18 13.41-31.18 29.81v417.4c0 16.4 14.03 29.81 31.18 29.81h311.8c17.15 0 31.18-13.41 31.18-29.81v-328l-124.7-119.3z" fill="#788799" stroke-width=".9525"/>
<path d="m11.33 8234h93.52l-124.7-119.3v89.44c0 16.4 14.03 29.81 31.18 29.81z" fill="#d4d9e0" stroke-width=".9525"/>
<path d="m138.7 8456c0 9.47-8.253 17.22-18.34 17.22h-403.4c-10.08 0-18.34-7.754-18.34-17.22v-172.2c0-9.47 8.253-17.22 18.34-17.22h403.4c10.08 0 18.34 7.754 18.34 17.22z" fill="#50bee8" stroke-width="1.111"/>
<path d="m-286.4 9011c-17.74 0-32.25 13.66-32.25 30.35v425c0 16.69 14.51 30.35 32.25 30.35h322.5c17.74 0 32.25-13.66 32.25-30.35v-333.9l-128.9-121.4z" fill="#788799" stroke-width=".9774"/>
<path d="m-28.47 9133h96.74l-128.9-121.4v91.06c0 16.69 14.51 30.35 32.25 30.35z" fill="#d4d9e0" stroke-width=".9774"/>
<path d="m103.3 9360c0 9.642-8.537 17.54-18.97 17.54h-417.3c-10.43 0-18.97-7.894-18.97-17.54v-175.4c0-9.642 8.537-17.54 18.97-17.54h417.3c10.43 0 18.97 7.894 18.97 17.54z" fill="#50bee8" stroke-width="1.14"/>
<path d="m385.6 8611c-17.03 0-30.96 13.41-30.96 29.81v417.4c0 16.4 13.93 29.81 30.96 29.81h309.6c17.03 0 30.96-13.41 30.96-29.81v-328l-123.8-119.3z" fill="#788799" stroke-width=".9492"/>
<path d="m633.3 8730h92.88l-123.8-119.3v89.44c0 16.4 13.93 29.81 30.96 29.81z" fill="#d4d9e0" stroke-width=".9492"/>
<path d="m759.8 8953c0 9.47-8.196 17.22-18.21 17.22h-400.7c-10.01 0-18.21-7.754-18.21-17.22v-172.2c0-9.47 8.196-17.22 18.21-17.22h400.7c10.01 0 18.21 7.754 18.21 17.22z" fill="#50bee8" stroke-width="1.107"/>
<path d="m1071 8987c-19.26 0-35.02 15.37-35.02 34.16v478.2c0 18.78 15.76 34.16 35.02 34.16h350.2c19.26 0 35.02-15.37 35.02-34.16v-375.7l-140-136.6z" fill="#788799" stroke-width="1.08"/>
<path d="m1351 9124h105l-140-136.6v102.5c0 18.78 15.76 34.16 35.02 34.16z" fill="#d4d9e0" stroke-width="1.08"/>
<path d="m1494 9379c0 10.85-9.27 19.73-20.6 19.73h-453.1c-11.33 0-20.59-8.884-20.59-19.73v-197.3c0-10.85 9.27-19.73 20.59-19.73h453.1c11.33 0 20.6 8.883 20.6 19.73z" fill="#50bee8" stroke-width="1.26"/>
<g transform="matrix(13.15 0 0 13.5 -1131 6623)" fill="#f6f6f6" aria-label="ISZ">
<path d="m174.6 201.2h-5.109v-1.547h1.43v-5.631h-1.43v-1.547h5.109v1.547h-1.43v5.631h1.43z"/>
<path d="m183.4 198.5q0 1.289-1.096 2.098-1.09.8027-2.965.8027-1.084 0-1.893-.1875-.8027-.1934-1.506-.4863v-2.092h.2461q.6973.5566 1.559.8555.8672.2988 1.664.2988.2051 0 .5391-.0352.334-.0351.5449-.1172.2578-.1055.4219-.2637.1699-.1582.1699-.4688 0-.2871-.2461-.4922-.2402-.2109-.709-.3223-.4922-.1172-1.043-.2168-.5449-.1055-1.025-.2637-1.102-.3574-1.588-.9668-.4805-.6152-.4805-1.523 0-1.219 1.09-1.986 1.096-.7734 2.812-.7734.8613 0 1.699.1699.8438.1641 1.459.416v2.01h-.2402q-.5274-.4219-1.295-.7031-.7617-.2871-1.559-.2871-.2812 0-.5625.041-.2754.0352-.5332.1406-.2285.0879-.3926.2695-.1641.1758-.1641.4043 0 .3457.2637.5332.2637.1816.9961.334.4805.0996.9199.1934.4453.0937.9551.2578 1.002.3281 1.477.8965.4805.5625.4805 1.465z"/>
<path d="m191.7 201.2h-7.33v-1.635l4.348-5.402h-4.137v-1.688h6.885v1.664l-4.342 5.373h4.576z"/>
</g>
<g fill="#fff">
<g transform="scale(1.013 .987)" stroke-width="10.59" aria-label="MDF">
<path d="m-178.3 9442h-23.7v-61.87l-17.13 40.15h-16.44l-17.13-40.15v61.87h-22.46v-92.39h27.67l20.79 46.35 20.73-46.35h27.67z"/>
<path d="m-67.48 9396q0 12.91-5.895 23.15-5.895 10.18-14.89 15.64-6.764 4.095-14.83 5.709-8.067 1.613-19.11 1.613h-32.58v-92.39h33.51q11.29 0 19.48 1.924 8.191 1.862 13.78 5.336 9.556 5.833 15.02 15.76 5.523 9.866 5.523 23.27zm-24.63-.1862q0-9.122-3.351-15.57-3.289-6.515-10.49-10.18-3.661-1.799-7.508-2.42-3.785-.6825-11.48-.6825h-6.019v57.83h6.019q8.501 0 12.47-.7446 3.971-.8067 7.756-2.854 6.515-3.723 9.556-9.928 3.041-6.267 3.041-15.45z"/>
<path d="m16.91 9367h-42.51v17.19h39.4v17.87h-39.4v39.46h-23.7v-92.39h66.21z"/>
</g>
<g transform="matrix(1.054 0 0 .9489 -17.1 -69.33)" stroke-width="10.49" aria-label="IMG">
<path d="m-149 8938h-53.58v-16.22h14.99v-59.05h-14.99v-16.22h53.58v16.22h-14.99v59.05h14.99z"/>
<path d="m-33.71 8938h-23.47v-61.26l-16.96 39.75h-16.28l-16.96-39.75v61.26h-22.24v-91.49h27.4l20.58 45.9 20.52-45.9h27.4z"/>
<path d="m70.49 8933q-6.144 2.396-16.28 4.792-10.14 2.335-20.21 2.335-23.35 0-36.56-12.66-13.21-12.72-13.21-35.08 0-21.32 13.33-34.35 13.33-13.09 37.17-13.09 9.032 0 17.2 1.659 8.172 1.598 18.19 6.451v21.44h-2.642q-1.72-1.29-5.038-3.625-3.318-2.396-6.39-4.055-3.564-1.966-8.356-3.379-4.731-1.413-10.08-1.413-6.267 0-11.37 1.843-5.1 1.843-9.155 5.653-3.871 3.686-6.144 9.401-2.212 5.653-2.212 13.09 0 15.18 8.049 23.22 8.049 8.049 23.78 8.049 1.352 0 2.949-.061 1.659-.061 3.011-.1843v-17.94h-18.25v-17.27h42.21z"/>
</g>
<g transform="matrix(1.045 0 0 .9572 4.276 -40.78)" stroke-width="11.6" aria-label="BIN">
<path d="m461.1 9329q0 7.342-2.991 13.12-2.923 5.779-8.09 9.586-5.983 4.487-13.19 6.391-7.139 1.904-18.15 1.904h-44.19v-101.2h39.3q12.24 0 17.88.8159 5.711.8158 11.29 3.603 5.779 2.923 8.566 7.886 2.855 4.895 2.855 11.22 0 7.342-3.875 12.99-3.875 5.575-10.95 8.702v.5439q9.926 1.972 15.7 8.158 5.847 6.187 5.847 16.32zm-33.45-41.61q0-2.516-1.292-5.031-1.224-2.516-4.419-3.739-2.855-1.088-7.139-1.156-4.215-.136-11.9-.136h-2.448v21.42h4.079q6.187 0 10.54-.204 4.351-.2039 6.867-1.36 3.535-1.564 4.623-4.011 1.088-2.516 1.088-5.779zm6.391 41.2q0-4.827-1.904-7.411-1.836-2.651-6.323-3.943-3.059-.8838-8.43-.9518-5.371-.068-11.22-.068h-5.711v25.22h1.904q11.01 0 15.77-.068t8.77-1.768q4.079-1.7 5.575-4.487 1.564-2.855 1.564-6.527z"/>
<path d="m535.2 9360h-59.28v-17.95h16.59v-65.33h-16.59v-17.95h59.28v17.95h-16.59v65.33h16.59z"/>
<path d="m648.7 9360h-25.15l-42.97-69.48v69.48h-23.93v-101.2h31.21l36.92 57.99v-57.99h23.93z"/>
</g>
</g>
</g>
</g>
</g>
</g>
</g>
</svg>
