<svg width="200" height="200" version="1.1" viewBox="0 -7 75 80" xmlns="http://www.w3.org/2000/svg">
<g transform="matrix(.4 0 0 .4 -142.8 -459.3)">
<g transform="translate(381,556.5)">
<g transform="matrix(.7712 0 0 .7658 7.089 -54.24)">
<g transform="translate(.2073)">
<g transform="matrix(.1072 0 0 .1132 -8.854 -.698)">
<g transform="matrix(-67.06 1.599 .05285 62.9 14208 -2149)">
<g transform="matrix(.2707 -.2839 .3258 .2974 204.5 141.6)" aria-label="WINDOWS">
<path d="m1.93 33.18-.07689-18.46-20.87-.01194.07893 18.46zm-4.847-4.534-4.292-.01105-.01687-3.753 4.294.000775zm-4.329-9.487 4.286.0066.01687 3.753-4.29-.0095zm-13.77-9.278-67.72-.05613c-3.682-.00311-6.662 2.137-6.656 4.78l.09218 19.13c.01189 2.644 3.02 4.784 6.691 4.785l67.72.05906z" fill="#5d6c7f" stroke-width=".9503"/>
</g>
</g>
<g transform="matrix(67.06 1.599 -.05285 62.9 -12506 -2149)">
<g transform="matrix(.2707 -.2839 .3258 .2974 204.5 141.6)" aria-label="WINDOWS">
<path d="m1.93 33.18-.07689-18.46-20.87-.01194.07893 18.46zm-4.847-4.534-4.292-.01105-.01687-3.753 4.294.000775zm-4.329-9.487 4.286.0066.01687 3.753-4.29-.0095zm-13.77-9.278-67.72-.05613c-3.682-.00311-6.662 2.137-6.656 4.78l.09218 19.13c.01189 2.644 3.02 4.784 6.691 4.785l67.72.05906z" fill="#5d6c7f" stroke-width=".9503"/>
</g>
</g>
<path d="m529.1 7829c-37.91 0-68.92 32.02-68.92 71.16v996.1c0 39.13 31.02 71.16 68.92 71.16h689.2c37.91 0 68.92-32.02 68.92-71.16v-782.7l-275.6-284.5z" fill="#788799" stroke-width="2.188"/>
<path d="m1080 8114h206.7l-275.6-284.5v213.4c0 39.13 31.02 71.16 68.92 71.16z" fill="#d4d9e0" stroke-width="2.188"/>
<path d="m1362 8646c0 22.6-18.25 41.11-40.53 41.11h-891.8c-22.3 0-40.53-18.51-40.53-41.11v-411.1c0-22.6 18.25-41.11 40.53-41.11h891.8c22.3 0 40.53 18.51 40.53 41.11z" fill="#50bee8" stroke-width="2.551"/>
<g transform="matrix(2.533 0 0 2.571 368.9 8188)" fill="#fff">
<path d="m95.23 64.87c0-10.5 16.9-10.88 16.9 0v73.02c0 10.62-16.9 10.88-16.9 0z"/>
<path d="m132.3 76.37c2.944-24.82 40.42-29.28 58.08-15.71 8.704 7.024-.512 18.16-8.192 12.53-9.472-6.016-30.96-8.832-33.65 4.464-3.456 20.99 52.19 8.976 51.3 42.99-.896 32.5-47.97 33.26-65.63 18.67-4.24-3.44-4.096-9.056-1.792-12.53 3.328-3.312 7.024-4.464 11.39-.896 10.48 7.168 37.49 12.54 39.39-5.648-1.648-18.91-54.86-7.52-50.9-43.87z"/>
<path d="m261.5 147c-23.66 1.024-48.24-14.72-48.24-46.06 0-31.47 24.56-46.94 48.24-46.94 22.38 1.136 45.79 16.62 45.79 46.94.016 30.34-23.39 46.06-45.79 46.06zm-1.408-76.37c-14.34 0-29.94 10.11-29.94 30.32 0 20.1 15.62 30.34 29.94 30.34 14.72 0 30.45-10.24 30.45-30.34.016-20.22-15.73-30.32-30.45-30.32z"/>
</g>
</g>
</g>
</g>
</g>
</g>
</svg>
