<svg version="1.1" viewBox="0 0 304.3 89.04" xmlns="http://www.w3.org/2000/svg">
 <defs>
  <radialGradient id="radialGradient957" cx="3.96" cy="2.314" r="78.63" gradientTransform="matrix(-.5729 .2199 -.1729 -.4627 81.09 65.68)" gradientUnits="userSpaceOnUse">
   <stop stop-color="#f8b741" offset="0"/>
   <stop stop-color="#ae6b9f" offset="1"/>
  </radialGradient>
  <linearGradient id="linearGradient1060" x1="-148.2" x2="-25.39" y1="17.81" y2="-170.8" gradientTransform="matrix(.391 0 0 .3962 80.31 55.36)" gradientUnits="userSpaceOnUse">
   <stop stop-color="#ebebeb" offset="0"/>
   <stop stop-color="#c64dff" stop-opacity="0" offset="1"/>
  </linearGradient>
  <linearGradient id="linearGradient1438" x1="10.92" x2="-33.97" y1="40.16" y2="3.108" gradientTransform="matrix(.391 0 0 .3962 80.31 55.36)" gradientUnits="userSpaceOnUse">
   <stop stop-color="#ffa92b" offset="0"/>
   <stop stop-color="#965dad" offset="1"/>
  </linearGradient>
  <linearGradient id="linearGradient1446" x1="-143.8" x2="-24.94" y1="-101.1" y2="-70.58" gradientTransform="matrix(.391 0 0 .3962 80.31 55.36)" gradientUnits="userSpaceOnUse">
   <stop stop-color="#965fbd" offset="0"/>
   <stop stop-color="#965dad" offset="1"/>
  </linearGradient>
 </defs>
 <rect x="35.1" y="32.06" width="37.84" height="27.81" rx=".8125" ry=".429" fill="#fff" style="paint-order:fill markers stroke"/>
 <g transform="matrix(1.022 0 0 1 -2.094 0)">
  <path d="m54.57 3.753c-22.13.01382-40.06 18.24-40.05 40.72.0048 11.23 4.484 21.39 11.72 28.75l24.88-25.32c-2.92-2.195-1.792-5.567-.8892-6.914 1.403-2.095 6.008-2.504 7.724-.03424l24.93-25.36c-7.254-7.335-17.27-11.86-28.32-11.85z" fill="url(#linearGradient1446)" style="paint-order:fill markers stroke"/>
  <path d="m82.89 15.6-.05714-.0161-2.942 2.865.07365.1272-22.01 22.39c3.597 1.848 1.819 6.244.686 7.609-1.494 1.8-5.683 2.816-7.521-.6602l-21.89 22.28-.09148-.08032-3.022 2.931.1254.1894c7.195 7.377 17.14 11.97 28.36 11.97 22.13-.0046 40.07-18.23 40.07-40.71v-.03405c-.0092-11.4-4.509-21.56-11.78-28.86z" fill="url(#linearGradient1438)" style="paint-order:fill markers stroke"/>
  <path d="m79.96 18.57-21.65 22.03c4.967 5.044-1.985 12.85-7.481 7.613l-21.59 21.97c6.489 6.562 15.53 10.67 25.49 10.67 19.88-.0041 36-16.28 36-36.35v-.02941c-.0082-10.14-4.242-19.36-10.76-25.89z" fill="url(#radialGradient957)" style="paint-order:fill markers stroke"/>
  <path d="m54.47 7.905c-19.88.00421-36 16.28-36 36.35v.03019c.0082 10.14 4.242 19.36 10.76 25.89l21.86-22.24c-3.045-2.974-2.05-5.007-.4297-6.923 1.64-1.939 3.943-3.722 7.314-.07117l21.98-22.38c-6.489-6.562-15.53-10.67-25.49-10.67z" fill="url(#linearGradient1060)" style="paint-order:fill markers stroke"/>
  <path d="m54.63 32.22c-6.772.0045-12.26 5.54-12.26 12.36.0032 6.825 5.495 12.36 12.27 12.35 6.772-.0016 12.26-5.535 12.26-12.36v-.01006c-.0057-6.825-5.5-12.35-12.27-12.35zm6.957 12.86c-1.305 10.39-12.66 7.975-14.31.2541 3.041-12.42 13.54-8.593 14.31-.2541z" fill="#fff" style="paint-order:fill markers stroke"/>
 </g>
 <path d="m60.74 44.48a7.034 6.939 0 01-7.033 6.939 7.034 6.939 0 01-7.035-6.936 7.034 6.939 0 017.03-6.941 7.034 6.939 0 017.038 6.933" fill="none" stroke="#2d2d2d" stroke-linecap="round" stroke-width="4.135" style="paint-order:fill markers stroke"/>
 <g transform="matrix(.9977 0 0 1.002 -1.188 -10.92)" fill="#fff" stroke-width="3.841" aria-label="UltraISO">
  <path d="m130.5 48.42q0 3.646-0.8102 6.369-0.7877 2.701-2.611 4.501-1.733 1.71-4.051 2.498-2.318 0.7877-5.401 0.7877-3.151 0-5.491-0.8327t-3.938-2.453q-1.823-1.845-2.633-4.456-0.7877-2.611-0.7877-6.414v-20.05h4.456v20.28q0 2.723 0.3601 4.298 0.3826 1.575 1.26 2.858 0.9902 1.463 2.678 2.205 1.71 0.7427 4.096 0.7427 2.408 0 4.096-0.7201 1.688-0.7427 2.701-2.228 0.8777-1.283 1.238-2.926 0.3826-1.665 0.3826-4.118v-20.39h4.456z"/>
  <path d="m143 61.88h-4.231v-35.02h4.231z"/>
  <path d="m164.4 61.65q-1.193 0.3151-2.611 0.5176-1.395 0.2025-2.498 0.2025-3.848 0-5.851-2.07t-2.003-6.639v-13.37h-2.858v-3.556h2.858v-7.224h4.231v7.224h8.732v3.556h-8.732v11.45q0 1.98 0.09 3.106 0.09 1.103 0.6301 2.07 0.4951 0.9002 1.35 1.328 0.8777 0.4051 2.656 0.4051 1.035 0 2.16-0.2926 1.125-0.3151 1.62-0.5176h0.225z"/>
  <path d="m185.3 41.35h-0.225q-0.9452-0.225-1.845-0.3151-0.8777-0.1125-2.093-0.1125-1.958 0-3.781 0.8777-1.823 0.8552-3.511 2.228v17.85h-4.231v-25.14h4.231v3.713q2.521-2.025 4.433-2.858 1.935-0.8552 3.938-0.8552 1.103 0 1.598 0.06751 0.4951 0.04501 1.485 0.2025z"/>
  <path d="m208 61.88h-4.208v-2.678q-0.5626 0.3826-1.53 1.08-0.9452 0.6751-1.845 1.08-1.058 0.5176-2.43 0.8552-1.373 0.3601-3.218 0.3601-3.398 0-5.761-2.25t-2.363-5.739q0-2.858 1.215-4.613 1.238-1.778 3.511-2.791 2.295-1.013 5.514-1.373 3.218-0.3601 6.909-0.5401v-0.6526q0-1.44-0.5176-2.385-0.4951-0.9452-1.44-1.485-0.9002-0.5176-2.16-0.6976-1.26-0.18-2.633-0.18-1.665 0-3.713 0.4501-2.048 0.4276-4.231 1.26h-0.225v-4.298q1.238-0.3376 3.578-0.7427t4.613-0.4051q2.656 0 4.613 0.4501 1.98 0.4276 3.421 1.485 1.418 1.035 2.16 2.678 0.7426 1.643 0.7426 4.073zm-4.208-6.189v-6.999q-1.935 0.1125-4.568 0.3376-2.611 0.225-4.141 0.6526-1.823 0.5176-2.948 1.62-1.125 1.08-1.125 2.993 0 2.16 1.305 3.263 1.305 1.08 3.983 1.08 2.228 0 4.073-0.8552 1.845-0.8777 3.421-2.093z"/>
  <path d="m228.4 61.88h-13.23v-3.421h4.388v-26.67h-4.388v-3.421h13.23v3.421h-4.388v26.67h4.388z"/>
  <path d="m260.3 52.31q0 1.958-0.9227 3.871-0.9002 1.913-2.543 3.241-1.8 1.44-4.208 2.25-2.385 0.8102-5.761 0.8102-3.623 0-6.526-0.6751-2.881-0.6751-5.874-2.003v-5.581h0.3151q2.543 2.115 5.874 3.263t6.256 1.148q4.141 0 6.436-1.553 2.318-1.553 2.318-4.141 0-2.228-1.103-3.286-1.08-1.058-3.308-1.643-1.688-0.4501-3.668-0.7427-1.958-0.2926-4.163-0.7427-4.456-0.9452-6.616-3.218-2.138-2.295-2.138-5.964 0-4.208 3.556-6.886 3.556-2.701 9.024-2.701 3.533 0 6.481 0.6751t5.221 1.665v5.266h-0.3151q-1.913-1.62-5.041-2.678-3.106-1.08-6.369-1.08-3.578 0-5.761 1.485-2.16 1.485-2.16 3.826 0 2.093 1.08 3.286t3.803 1.823q1.44 0.3151 4.096 0.7652t4.501 0.9227q3.736 0.9902 5.626 2.993 1.89 2.003 1.89 5.604z"/>
  <path d="m292.5 32.22q2.048 2.25 3.128 5.514 1.103 3.263 1.103 7.404t-1.125 7.427q-1.103 3.263-3.106 5.446-2.07 2.273-4.906 3.421-2.813 1.148-6.436 1.148-3.533 0-6.436-1.17-2.881-1.17-4.906-3.398t-3.128-5.469q-1.08-3.241-1.08-7.404 0-4.096 1.08-7.336 1.08-3.263 3.151-5.581 1.98-2.205 4.906-3.376 2.948-1.17 6.414-1.17 3.601 0 6.459 1.193 2.881 1.17 4.884 3.353zm-0.4051 12.92q0-6.526-2.926-10.06-2.926-3.556-7.989-3.556-5.109 0-8.034 3.556-2.903 3.533-2.903 10.06 0 6.594 2.971 10.1 2.971 3.488 7.967 3.488t7.944-3.488q2.971-3.511 2.971-10.1z"/>
 </g>
 <g transform="matrix(1.101 .06293 -.06213 1.087 -4.411 -12.74)">
  <path d="m43.81 64.19 29.29-1.631 0.4406 8.129-29.29 1.626z" fill="#fff"/>
  <path d="m44.25 72.31 29.29-1.631 0.4406 8.129-29.29 1.636z" fill="#2c68df"/>
  <path d="m44.69 80.45 29.29-1.631 0.4406 8.129-29.34 2.041z" fill="#be2c30"/>
 </g>
 <g transform="matrix(.6593 0 0 .6699 -134 48.18)" fill="#fff" stroke-width=".5637" aria-label="RU">
  <path d="m281.8 35.22q0-0.6166-0.2532-1.057t-0.8698-0.6937q-0.4294-0.1762-1.002-0.2092-0.5726-0.04404-1.332-0.04404h-1.53v4.415h1.299q1.013 0 1.696-0.0991t1.145-0.4514q0.4404-0.3413 0.6386-0.7487 0.2092-0.4184 0.2092-1.112zm6.595 11.37h-5.164l-4.47-6.012h-1.949v6.012h-4.206v-16.39h7.091q1.453 0 2.499 0.1652t1.96 0.7157q0.9249 0.5505 1.464 1.431 0.5505 0.8698 0.5505 2.191 0 1.817-0.8478 2.962-0.8368 1.145-2.4 1.905z"/>
  <path d="m304.6 40.66q0 3.039-1.85 4.658t-5.45 1.619-5.45-1.619q-1.839-1.619-1.839-4.647v-10.47h4.25v10.23q0 1.707 0.7157 2.543 0.7157 0.8368 2.323 0.8368 1.586 0 2.312-0.8038 0.7377-0.8038 0.7377-2.577v-10.23h4.25z"/>
 </g>
 <text x="104.77242" y="73.675278" fill="#ffffff" font-family="sans-serif" font-size="13px" font-weight="bold" style="line-height:1.25" xml:space="preserve"><tspan x="104.77242" y="73.675278" fill="#ffffff" font-family="Arial" font-size="13px" font-weight="900">НЕОФИЦИАЛЬНЫЙ САЙТ</tspan></text>
</svg>
