<svg version="1.1" viewBox="0 0 182.4 53.66" xmlns="http://www.w3.org/2000/svg" xmlns:xlink="http://www.w3.org/1999/xlink">
<style type="text/css">.custom-controls {
height: 64px;
fill: #fff;
}

.control-icon {
opacity: 0;
animation: icon-fade-in-out 4s ease-in-out infinite;
animation-fill-mode: forwards;
}

.stop {
animation-delay: .3s;
}

.play {
animation-delay: .5s;
}

.gamepad {
animation-delay: .7s;
padding: 0 0 0 20px;
}

@keyframes icon-fade-in-out {
0% {
opacity: 0;
}

10% {
opacity: 1;
}

80% {
opacity: 1;
}

90% {
opacity: 0;
}

100% {
opacity: 0;
}
}</style>
<g transform="translate(-318.7 -496.8)">
<g transform="translate(381 556.5)">
<g fill="#fff"></g>
<g transform="matrix(.7712 0 0 .7658 7.089 -54.24)">
<g transform="translate(.2073)">
<g transform="matrix(.1072 0 0 .1132 -8.854 -.698)">
<path d="m107.7-42.11c-20.21 0-36.74 16.74-36.74 37.2v520.8c0 20.46 16.53 37.2 36.74 37.2h367.4c20.21 0 36.74-16.74 36.74-37.2v-409.2l-146.9-148.8z" fill="#fff" stroke-width="1.155"/>
<path d="m401.6 106.7h110.2l-146.9-148.8v111.6c0 20.46 16.53 37.2 36.74 37.2z" fill="#e8e8e8" stroke-width="1.155"/>
<path d="m551.7 384.4c0 11.82-9.725 21.49-21.61 21.49h-475.4c-11.88 0-21.61-9.672-21.61-21.49v-214.9c0-11.82 9.725-21.49 21.61-21.49h475.4c11.88 0 21.61 9.672 21.61 21.49z" fill="#50bee8" stroke-width="1.347"/>
<g transform="matrix(1.35 0 0 1.344 -10.19 -174.4)" fill="#fff">
<path d="m119.5 303.2c0-10.5 16.9-10.88 16.9 0v73.02c0 10.62-16.9 10.88-16.9 0z"/>
<path d="m156.6 314.7c2.944-24.82 40.42-29.28 58.08-15.71 8.704 7.024-.512 18.16-8.192 12.53-9.472-6.016-30.96-8.832-33.65 4.464-3.456 20.99 52.19 8.976 51.3 42.99-.896 32.5-47.97 33.26-65.63 18.67-4.24-3.44-4.096-9.056-1.792-12.53 3.328-3.312 7.024-4.464 11.39-.896 10.48 7.168 37.49 12.54 39.39-5.648-1.648-18.91-54.86-7.52-50.9-43.87z"/>
<path d="m285.8 385.3c-23.66 1.024-48.24-14.72-48.24-46.06 0-31.47 24.56-46.94 48.24-46.94 22.38 1.136 45.79 16.62 45.79 46.94.016 30.34-23.39 46.06-45.79 46.06zm-1.408-76.37c-14.34 0-29.94 10.11-29.94 30.32 0 20.1 15.62 30.34 29.94 30.34 14.72 0 30.45-10.24 30.45-30.34.016-20.22-15.73-30.32-30.45-30.32z"/>
</g>
<g transform="matrix(14.62 0 0 13.65 -7829 -6654)">
<rect x="610" y="502.5" width="11.31" height="9.702" rx="9.651" ry="9.702" fill="#fafafa" style="paint-order:fill markers stroke"/>
<path d="m615.4 500.1c-1.788 0-3.576.6849-4.945 2.055-2.74 2.74-2.74 7.151 0 9.891 2.74 2.74 7.151 2.74 9.891 0 2.74-2.74 2.74-7.151 0-9.891-1.37-1.37-3.158-2.055-4.945-2.055zm-.002 3.955a3.003 3.003 0 013.002 3.004 3.003 3.003 0 01-3.002 3.002 3.003 3.003 0 01-3.004-3.002 3.003 3.003 0 013.004-3.004z" fill="#6077e1" stroke-opacity=".5503" stroke-width="8.587"/>
<path d="m615.4 488.1c-4.857 0-9.714 1.861-13.44 5.582-7.443 7.443-7.443 19.43 0 26.87s19.43 7.443 26.87 0c7.443-7.443 7.443-19.43 0-26.87-3.722-3.722-8.579-5.582-13.44-5.582zm0 13.02c1.532 0 3.064.5876 4.238 1.762.2449.2449.4642.5054.6581.7782 1.665 2.343 1.445 5.595-.6581 7.698-2.348 2.348-6.128 2.348-8.477 0-2.348-2.348-2.348-6.128 0-8.477 1.174-1.174 2.706-1.762 4.238-1.762zm-1.881 15c.5404-.006 1.085.1499 1.469.4629.5042.432-.0297 1.116-.4746.7695-.5487-.37-1.793-.5423-1.949.2754-.2002 1.291 3.024.5527 2.973 2.645-.0519 1.999-2.78 2.044-3.803 1.146-.2456-.2116-.237-.5559-.1035-.7695.1928-.2037.4072-.2741.6602-.0547.6071.4408 2.171.7709 2.281-.3476-.0955-1.163-3.179-.4618-2.949-2.697.1066-.954.9957-1.419 1.896-1.43zm5.588.0508c1.296.0699 2.652 1.022 2.652 2.887.00092 1.866-1.355 2.834-2.652 2.834-1.371.063-2.793-.9066-2.793-2.834 0-1.935 1.421-2.887 2.793-2.887zm-9.143.1777c.2447-.003.4883.1576.4883.4922v4.492c0 .6531-.9785.6691-.9785 0v-4.492c0-.3229.2455-.4893.4902-.4922zm9.062.8457c-.8307 0-1.734.6223-1.734 1.865 0 1.236.9049 1.865 1.734 1.865.8527 0 1.764-.6291 1.764-1.865.00092-1.244-.911-1.865-1.764-1.865z" fill="#fdfdfd" stroke-opacity=".5503" stroke-width="8.587"/>
</g>
<g>
<g transform="matrix(.7048 -.2549 .2858 .6714 -754.8 250.7)">
<path d="m310.5-262.5-192.4 3.019 1.459 149.8 192.4-3.034zm-46.89 35.39.2114 30.81-39.11.6258-.3178-30.83zm-98.55 32.33-.2554-30.77 39.11-.6258.226 30.79zm-95.67 100.1 4.553 486.1c.2478 26.42 22.79 47.53 50.33 47.13l199.4-3.22c27.56-.446 49.63-22.32 49.38-48.67l-4.523-486z" fill="#6077e1"/>
</g>
<g transform="matrix(.7117 .2338 -.267 .6795 -563.5 145.1)" fill="#6077e1">
<path d="m338.1-274.5-192.6-1.468-2.106 149.7 192.6 1.452zm-47.75 34.27-.5219 30.78-39.14-.286.4159-30.8zm-99.36 30.01.4769-30.75 39.14.286-.5069 30.77zm-98.08 97.75-7.017 485.8c-.3811 26.4 21.66 48.01 49.23 48.26l199.6 1.429c27.58.1967 50.18-21.14 50.55-47.47l7.043-485.6z" fill="#50bee8"/>
</g>
<g transform="matrix(.7563 0 0 .722 -661.3 197.4)">
<path d="m285.8 385.3c-23.66 1.024-48.24-14.72-48.24-46.06 0-31.47 24.56-46.94 48.24-46.94 22.38 1.136 45.79 16.62 45.79 46.94.016 30.34-23.39 46.06-45.79 46.06zm-1.408-76.37c-14.34 0-29.94 10.11-29.94 30.32 0 20.1 15.62 30.34 29.94 30.34 14.72 0 30.45-10.24 30.45-30.34.016-20.22-15.73-30.32-30.45-30.32zm-127.8 5.77c2.944-24.82 40.42-29.28 58.08-15.71 8.704 7.024-.512 18.16-8.192 12.53-9.472-6.016-30.96-8.832-33.65 4.464-3.456 20.99 52.19 8.976 51.3 42.99-.896 32.5-47.97 33.26-65.63 18.67-4.24-3.44-4.096-9.056-1.792-12.53 3.328-3.312 7.024-4.464 11.39-.896 10.48 7.168 37.49 12.54 39.39-5.648-1.648-18.91-54.86-7.52-50.9-43.87zm-37.1-11.5c0-10.5 16.9-10.88 16.9 0v73.02c0 10.62-16.9 10.88-16.9 0zm191-565.7-192.4 3.019 1.459 149.8 192.4-3.034zm-46.89 35.39.2114 30.81-39.11.6258-.3178-30.83zm-98.55 32.33-.2554-30.77 39.11-.6258.226 30.79zm-95.67 100.1 4.553 486.1c.2478 26.42 22.79 47.53 50.33 47.13l199.4-3.22c27.56-.446 49.63-22.32 49.38-48.67l-4.523-486z" fill="#fff"/>
</g>
<path class="control-icon stop" d="m717.7 186.4 23.17 63.68-168.5-49.77.8731 140.6 169.3-26.97-9.774 70.84 128.7-109.5z" fill="#fff" stroke-width=".7774"/>
<path class="control-icon play" d="m-128.4 186.4-22.42 63.68 163.1-49.77-.8448 140.6-163.8-26.97 9.458 70.84-124.5-109.5z" fill="#fff" stroke-width=".7648"/>
<g transform="matrix(.8463 0 0 .8482 977.7 141.4)" fill="#50bee8">
<path d="m119.5 303.2c0-10.5 16.9-10.88 16.9 0v73.02c0 10.62-16.9 10.88-16.9 0z"/>
<path d="m156.6 314.7c2.944-24.82 40.42-29.28 58.08-15.71 8.704 7.024-.512 18.16-8.192 12.53-9.472-6.016-30.96-8.832-33.65 4.464-3.456 20.99 52.19 8.976 51.3 42.99-.896 32.5-47.97 33.26-65.63 18.67-4.24-3.44-4.096-9.056-1.792-12.53 3.328-3.312 7.024-4.464 11.39-.896 10.48 7.168 37.49 12.54 39.39-5.648-1.648-18.91-54.86-7.52-50.9-43.87z"/>
<path d="m285.8 385.3c-23.66 1.024-48.24-14.72-48.24-46.06 0-31.47 24.56-46.94 48.24-46.94 22.38 1.136 45.79 16.62 45.79 46.94.016 30.34-23.39 46.06-45.79 46.06zm-1.408-76.37c-14.34 0-29.94 10.11-29.94 30.32 0 20.1 15.62 30.34 29.94 30.34 14.72 0 30.45-10.24 30.45-30.34.016-20.22-15.73-30.32-30.45-30.32z"/>
</g>
</g>
</g>
</g>
</g>
</g>
</g>
</svg>
